<svg xmlns="http://www.w3.org/2000/svg" xml:space="preserve" fill="currentColor" style="fill-rule:evenodd;clip-rule:evenodd;stroke-miterlimit:2" viewBox="0 0 250 250">
  <path d="M113.109 120.349c-.939-.784-2.14-1.307-3.394-1.307-.94 0-2.192.549-2.192 1.646 0 1.147 1.383 1.593 2.272 1.879l1.305.392c2.74.809 4.855 2.194 4.855 5.377 0 1.957-.471 3.968-2.035 5.299-1.541 1.306-3.604 1.855-5.588 1.855-2.48 0-4.908-.834-6.918-2.244l2.193-4.125c1.28 1.122 2.793 2.035 4.543 2.035 1.2 0 2.479-.6 2.479-1.984 0-1.435-2.01-1.93-3.106-2.246-3.21-.912-5.326-1.749-5.326-5.559 0-3.993 2.846-6.604 6.787-6.604 1.985 0 4.412.626 6.162 1.616l-2.037 3.97Zm14.307 3.967h.86c1.855 0 3.681 0 3.681-2.401 0-2.48-1.698-2.506-3.681-2.506h-.86v4.907Zm-5.117-9.031h7.832c4.228 0 7.152 1.958 7.152 6.473 0 4.646-2.506 6.683-6.97 6.683h-2.897v6.527h-5.117v-19.683Zm21.172 0h5.115v19.683h-5.115z" style="fill:#231f20;fill-rule:nonzero"/>
  <path d="M125.016 170.627c-12.061 0-23.071-4.469-31.491-11.83a47.828 47.828 0 0 1-14.43-22.549 47.869 47.869 0 0 1-1.92-13.461c0-26.42 21.42-47.84 47.841-47.84 26.42 0 47.839 21.42 47.839 47.84s-21.419 47.84-47.839 47.84Zm-.02-102.299c-30.051 0-54.401 24.369-54.401 54.41 0 10.899 3.199 21.039 8.709 29.539.43.67.871 1.32 1.34 1.971a43.38 43.38 0 0 0 1.641 2.179c.49.63.99 1.24 1.509 1.83.59.7 1.211 1.38 1.84 2.04.551.58 1.112 1.13 1.68 1.68.66.64 1.33 1.25 2.021 1.841.6.529 1.209 1.029 1.831 1.529a42.93 42.93 0 0 0 2.179 1.641 47.673 47.673 0 0 0 4.289 2.769c.68.41 1.371.79 2.071 1.16.801.42 1.609.831 2.44 1.2.71.34 1.441.66 2.169.961.831.339 1.67.66 2.532.959a54.115 54.115 0 0 0 18.15 3.111c5.849 0 11.488-.921 16.77-2.641.75-.25 1.49-.5 2.23-.769.84-.311 1.68-.651 2.5-1.011.719-.3 1.43-.63 2.129-.97.811-.39 1.609-.8 2.391-1.23.699-.369 1.379-.77 2.048-1.18.772-.46 1.532-.939 2.272-1.439.66-.441 1.309-.901 1.939-1.371.731-.53 1.44-1.09 2.129-1.66.612-.49 1.211-1 1.791-1.53a50.433 50.433 0 0 0 3.619-3.54 46.735 46.735 0 0 0 1.791-2.02 45.09 45.09 0 0 0 1.491-1.86c.549-.7 1.08-1.42 1.59-2.17.459-.64.888-1.29 1.31-1.96.488-.76.949-1.54 1.389-2.32.39-.68.76-1.38 1.121-2.079a54.184 54.184 0 0 0 5.898-24.66c0-30.041-24.359-54.41-54.408-54.41Z" style="fill:#030405;fill-rule:nonzero"/>
  <path d="M61.568 140.618c.406-.407.557-.836.409-1.416-.155-.61-.744-1.176-1.416-1.005-.601.154-.766.824-.827 1.349l-.073.604c-.15 1.199-.543 2.165-1.826 2.493-1.394.355-2.666-.47-3.017-1.844-.316-1.241.353-2.442 1.544-2.918l.45.914c-.848.206-1.287 1.033-1.077 1.857.21.825 1.053 1.239 1.856 1.034.825-.21 1.012-.962 1.119-1.695l.088-.586c.155-.971.451-1.892 1.52-2.165 1.241-.316 2.264.594 2.56 1.754.217.856-.021 1.664-.658 2.271l-.652-.647Zm-4.313 7.43-.336-.928 7.444-2.704.337.928-7.445 2.704Zm9.045.498-2.879 8.107 5.219-2.634.445.88-7.355 3.713 2.879-8.107-5.266 2.658-.444-.881 7.401-3.736Zm5.682 17.494-.256.185c-1.76 1.276-4.01 1.015-5.31-.778-1.301-1.794-.803-4.36.973-5.648 1.845-1.338 4.431-.957 5.768.888.721.994.985 2.306.651 3.509l-.941-.173c.295-.915.15-1.991-.416-2.772-1.042-1.437-3.02-1.714-4.457-.672-1.342.974-1.816 3.003-.811 4.389.721.994 2.356 1.442 3.426.719l-1.201-1.658.73-.53 1.844 2.541Zm.926 5.582 1.648 1.751-.657.619-2.326-2.469 5.764-5.43.676.719-5.105 4.81Zm8.859-1.069 3.232 2.762-.587.687-2.482-2.121-1.438 1.683 2.41 2.06-.588.687-2.41-2.06-1.944 2.274 2.483 2.121-.587.687-3.231-2.763 5.142-6.017Zm9.576 11.48.276.153c.883.488 1.929.851 2.539-.251.599-1.084-.359-1.783-1.213-2.254l-.23-.127-1.372 2.479Zm-2.032 3.675-.864-.478 3.832-6.926.992.549c2.131 1.178 2.386 2.28 1.685 3.547-.808 1.46-2.23 1.406-3.543.679l-.496-.274-1.606 2.903Zm7.362 3.647-.904-.393 3.152-7.26.905.394-3.153 7.259Zm6.256 2.333-.939-.308 2.192-6.666-1.786-.587.282-.858 4.511 1.482-.283.858-1.786-.587-2.191 6.666Zm12.501-3.592a3.19 3.19 0 0 0-1.905-1.161c-1.743-.338-3.355.858-3.689 2.581-.33 1.702.709 3.412 2.441 3.748a3.166 3.166 0 0 0 2.229-.403l-.221 1.145a4.28 4.28 0 0 1-2.148.151c-2.219-.429-3.713-2.55-3.277-4.798.447-2.3 2.64-3.737 4.93-3.294.681.132 1.34.431 1.858.907l-.218 1.124Zm8.101 2.306.155-3.186.984.047-.379 7.904-.986-.047.183-3.795-3.763-.18-.183 3.793-.985-.046.38-7.905.985.048-.153 3.187 3.762.18Zm12.258 3.919-.977.139-1.117-7.835.977-.139 1.117 7.835Zm2.357-8.752 7.344 4.489-1.504-5.652.953-.254 2.122 7.966-7.346-4.489 1.518 5.703-.954.254-2.133-8.017Zm13.949-2.666c-.464-.339-.911-.422-1.462-.187-.579.247-1.047.915-.776 1.553.243.569.931.629 1.459.61l.608-.02c1.207-.035 2.222.205 2.742 1.422.564 1.323-.057 2.707-1.359 3.263-1.179.503-2.467.025-3.12-1.078l.834-.584c.333.806 1.217 1.113 2 .779.782-.334 1.063-1.229.737-1.992-.334-.782-1.106-.853-1.845-.846l-.593.002c-.983-.003-1.938-.155-2.371-1.17-.502-1.177.24-2.328 1.341-2.798.812-.345 1.648-.234 2.344.302l-.539.744Zm9.108 2.509-.857.489-3.477-6.095-1.633.931-.447-.785 4.124-2.351.448.784-1.633.931 3.475 6.096Zm3.246-7.037.254-.187c.813-.597 1.578-1.397.832-2.412-.734-.997-1.787-.443-2.574.136l-.211.155 1.699 2.308Zm5.643 1.021-.965.71-3.861-1.314-.33.242 1.986 2.697-.795.585-4.694-6.374.963-.71c.567-.417 1.182-.856 1.901-.942.762-.08 1.509.297 1.957.905.672.913.624 2.122-.217 2.91l4.055 1.291Zm-1.824-8.881 3.246 3.36c.896.93 2.007 1.521 3.103.463 1.094-1.058.543-2.189-.354-3.117l-3.246-3.362.71-.685 3.479 3.602c1.21 1.254 1.358 2.965.052 4.227-1.307 1.262-3.01 1.054-4.221-.2l-3.479-3.603.71-.685Zm10.549-9.568a3.198 3.198 0 0 0-1.896 1.168c-1.091 1.399-.757 3.375.624 4.453 1.364 1.065 3.357.916 4.441-.473.477-.612.704-1.38.653-2.165l.918.716a4.28 4.28 0 0 1-.84 1.979c-1.389 1.778-3.951 2.146-5.754.74-1.844-1.439-2.128-4.043-.695-5.879.425-.546.99-.997 1.648-1.242l.901.703Zm8.531-1.55-.504.848-6.025-3.588-.962 1.614-.775-.461 2.428-4.077.775.462-.961 1.615 6.024 3.587Zm1.843-12.951c-1.605-.675-3.455-.043-4.176 1.67-.722 1.712.118 3.478 1.724 4.155 1.663.7 3.513-.093 4.177-1.67.664-1.577-.061-3.454-1.725-4.155Zm.383-.909c2.168.913 3.081 3.314 2.194 5.423-.889 2.108-3.245 3.132-5.413 2.22-2.088-.88-3.072-3.333-2.191-5.423.879-2.089 3.32-3.1 5.41-2.22Zm1.082-4.55.078-.305c.252-.976.342-2.079-.877-2.395-1.199-.309-1.666.784-1.91 1.73l-.065.254 2.774.716Zm5.019-2.769-.3 1.159-3.824 1.418-.102.396 3.241.838-.247.955-7.662-1.979.299-1.158c.176-.681.375-1.41.879-1.931.541-.543 1.357-.723 2.089-.533 1.097.283 1.823 1.251 1.669 2.392l3.958-1.557Zm-88.068-82.691-.021.006-.193 2.651 1.657-.428-1.443-2.229Zm-.369 4.323-.184 1.468-2.115.546.969-8.424 2.174-.562 4.865 6.917-2.123.549-.842-1.203-2.744.709Zm8.344-8.447 2.02-.162 1.939 4.09 1.358-4.355 2.041-.163 1.827 7.797-2.052.164-.94-4.497-.021.002-1.53 4.695-.817.066-2.175-4.399-.021.002-.295 4.596-2.041.164.707-8Zm20.164 3.691c-.133 1.149-.31 2.123-1.105 3.038-.877 1.002-2.082 1.361-3.401 1.234-2.476-.239-4.039-2.088-3.801-4.565.248-2.561 2.145-4.077 4.684-3.832 1.621.156 2.805 1.009 3.342 2.548l-2.023.628c-.21-.78-.756-1.339-1.583-1.419-1.348-.13-2.171 1.089-2.288 2.291-.118 1.223.492 2.537 1.843 2.667.888.085 1.611-.309 1.783-1.21l-1.673-.161.156-1.61 4.066.391Zm7.004.528-.021-.005-1.462 2.218 1.653.436-.17-2.649Zm-2.432 3.591-.878 1.191-2.11-.556 4.956-6.877 2.171.572.869 8.41-2.121-.559-.147-1.46-2.74-.721Z" style="fill:#231f20;fill-rule:nonzero"/>
  <path d="M207.766 188.875c-14.33 17.97-34.33 30.91-56.45 36.59-.17.04-.351.09-.521.13.01-.04.021-.07.031-.109a9.905 9.905 0 0 0 .24-1.971c0-.26 0-.519-.021-.779 45.41-11.801 77.07-52.771 77.07-99.791 0-56.869-46.26-103.129-103.119-103.129-56.862 0-103.121 46.26-103.121 103.129 0 25.961 9.691 50.77 27.271 69.86 17.049 18.5 40.039 30.06 64.909 32.681-.078.069-.149.139-.229.209-1.611 1.451-3.031 2.02-4.349 1.971h-.022c-.65-.031-1.32-.241-1.959-.35-.75-.121-1.49-.271-2.23-.41-23.231-4.381-44.44-16.531-60.091-34.5a105.759 105.759 0 0 1-25.99-69.461c0-58.349 47.471-105.819 105.811-105.819 58.35 0 105.82 47.47 105.82 105.819 0 24.23-7.97 47.031-23.05 65.93Zm-57.75 29.81c.089-.019.17-.05.259-.07.571-.15 1.151-.31 1.721-.469.199-.061.41-.121.619-.181.35-.1.701-.2 1.051-.319.34-.101.68-.211 1.02-.33.339-.11.679-.221 1-.33.119-.041.24-.08.359-.131.121-.039.23-.08.351-.119.27-.09.53-.181.799-.28.461-.161.881-.321 1.282-.47.029-.01.048-.021.078-.03.371-.14.711-.271 1.021-.39.049-.021.09-.041.129-.051.191-.07.381-.14.57-.22.61-.24 1.03-.399 1.202-.469.009-.021.029-.021.039-.021.22-.09.429-.18.64-.27.879-.36 1.75-.719 2.619-1.11.1-.04.202-.09.301-.13a90.216 90.216 0 0 0 4.789-2.29c1.5-.769 2.981-1.57 4.43-2.41l1.381-.81c.91-.549 1.81-1.11 2.699-1.69.01.01.01.01.01 0 27.25-17.619 45.31-48.24 45.31-83.019 0-54.48-44.31-98.81-98.799-98.81-33.801 0-63.682 17.07-81.541 43.03v.01c-.58.85-1.15 1.71-1.709 2.58-.281.43-.561.87-.83 1.309-.291.471-.58.941-.861 1.42-.559.951-1.11 1.91-1.651 2.881-.269.481-.529.97-.789 1.46-.539 1.03-1.07 2.06-1.58 3.11-.26.52-.51 1.049-.75 1.58-.25.54-.49 1.081-.73 1.62-.26.57-.5 1.15-.741 1.72-.478 1.15-.939 2.31-1.379 3.48-.22.59-.439 1.19-.65 1.79a94.433 94.433 0 0 0-1.83 5.75c-.01.019-.01.04-.01.04-.439 1.559-.84 3.12-1.211 4.69a97.27 97.27 0 0 0-1.388 7.279c-.071.481-.141.961-.202 1.441-.089.599-.169 1.2-.24 1.799a100.244 100.244 0 0 0 .092 24.401c.189 1.42.398 2.84.639 4.25.009.07.019.139.041.209.049.341.109.68.179 1.01.1.55.2 1.09.321 1.63.029.18.07.37.109.55.08.431.18.851.279 1.28.09.45.192.901.301 1.35.481 2.03 1.02 4.03 1.631 6.01.199.66.408 1.31.619 1.951l.66 1.93c.231.65.459 1.279.7 1.92.371.99.759 1.969 1.16 2.939.111.28.23.561.361.84.119.28.238.56.359.83.17.4.34.791.51 1.18.061.14.131.281.199.421.231.53.481 1.049.731 1.569.109.24.23.49.349.74.022.04.041.09.071.131.34.709.689 1.399 1.06 2.1.039.089.09.17.129.259.061.12.121.231.192.35.339.66.699 1.32 1.058 1.971.272.479.531.949.811 1.42.25.42.49.839.75 1.259.24.42.5.84.76 1.26.259.42.521.83.791 1.25.259.42.519.83.798 1.231.821 1.23 1.661 2.439 2.522 3.629a96.41 96.41 0 0 0 4.459 5.691c.781.93 1.59 1.85 2.41 2.75.67.729 1.34 1.449 2.029 2.17a83.965 83.965 0 0 0 2.631 2.609c2 1.92 4.09 3.76 6.25 5.52a92.05 92.05 0 0 0 2.19 1.72 91.793 91.793 0 0 0 4.83 3.47 103.583 103.583 0 0 0 3.3 2.13c.741.461 1.481.9 2.219 1.33.852.49 1.711.971 2.58 1.45.871.47 1.741.92 2.621 1.37.731.371 1.459.72 2.2 1.071 1.05.51 2.111.99 3.179 1.439.432.19.862.37 1.291.551.481.209.971.409 1.459.59.381.149.762.299 1.151.439.531.21 1.06.41 1.599.6.141.051.291.1.432.15.689.26 1.379.491 2.08.721a71.45 71.45 0 0 0 2.479.789c.031.01.07.021.111.03.699.21 1.398.41 2.099.611.219.059.45.119.68.179.27.08.539.151.821.21.51.14 1.029.271 1.549.4l.15.031c.381.1.77.18 1.16.27.381.089.782.179 1.17.259.551.12 1.112.241 1.67.35 1.111.221 2.221.42 3.34.61.57.101 1.15.191 1.721.261 2.269.35 4.57.609 6.83.75h.039c-.25.229-.479.479-.719.719-.07.07-.131.14-.191.211-.03.029-.049.049-.069.07-.09.1-.17.189-.23.27-.201.199-.371.389-.551.589-.189.201-.369.401-.539.6-24.971-2.33-48.09-13.789-65.161-32.33-17.33-18.799-26.871-43.25-26.871-68.83 0-56.029 45.58-101.619 101.612-101.619 56.029 0 101.609 45.59 101.609 101.619 0 46.27-31.099 86.58-75.75 98.281a9.257 9.257 0 0 0-.839-2.541Zm-7.481 12.51c.371-.289.711-.58 1.041-.9 2.029-1.96 3.17-4.469 3.209-7.059a9.488 9.488 0 0 0-.66-3.631.88.88 0 0 0-.09-.23 9.411 9.411 0 0 0-.789-1.549 12.248 12.248 0 0 0-2.121-2.561c.68.061 1.34.231 1.951.5l.01.01c1.43.631 2.629 1.791 3.42 3.25l.019.02a8.859 8.859 0 0 1 1.041 4.431c-.101 4.299-3.181 7.67-7.031 7.719Zm-10.049 1.631c-.759-.01-1.531-.08-2.3-.211-2.29-.42-4.28-.949-6.321-1.699.281-.301.561-.621.84-.971.381-.469.76-.92 1.16-1.35 1.24.391 2.571.71 4.06.981.091.009.179.029.27.049.211.031.409.07.62.101.039 0 .069.01.11.01.53.069 1.061.109 1.591.119h.33c3.289 0 6.199-1 8.039-2.779 1.17-1.12 1.791-2.481 1.81-3.91a5.294 5.294 0 0 0-.718-2.741 4.792 4.792 0 0 0-.512-.779h-.01a7.025 7.025 0 0 0-1.539-1.49h-.01c-1.121-.821-2.51-1.42-4.101-1.721-.61-.119-1.299-.15-1.979-.14-.031 0-.07 0-.111.01-1.199.021-2.319.191-2.831.271a9.372 9.372 0 0 1-.929-.66l-.16-.131c-.709-.57-1.37-1.07-1.969-1.5 1.478-.49 4.139-1.219 6.36-1.11 3.369.16 6.38 1.571 8.4 3.66.019 0 .019.01.019.01.76.79 1.391 1.67 1.84 2.62.071.15.141.3.201.46.43 1.04.659 2.151.639 3.29-.029 2.22-.99 4.29-2.76 6-2.449 2.38-6.119 3.691-10.039 3.611Zm-17.56-.361c2.199-1.37 3.959-3.28 5.67-5.149 1.189-1.291 2.32-2.521 3.56-3.561.49.35.969.69 1.41.96.399.25.819.491 1.28.73-1 .94-2.2 2.18-3.311 3.57-3.18 3.981-6.42 4.41-8.609 3.45Zm11.379-17.42c.621.42 1.31.931 2.079 1.54.202.161.411.331.632.5.23.19.48.371.74.54.789.541 1.66 1 2.58 1.4.66.291 1.34.541 2.01.77h.019c1.49.51 2.981.88 4.24 1.15h.02c.561.131 1.08.23 1.541.33.24.041.449.09.639.131.271.55.4 1.129.39 1.729 0 .21-.019.41-.07.611-3.66-.401-6.52-1.161-8.879-2.121-1.49-.6-2.781-1.29-3.942-2.02a29.996 29.996 0 0 1-1.949-1.33c-.679-.5-1.32-1-1.939-1.5l-.451-.359c-.27-.21-.529-.42-.799-.631-1.09-.869-2.18-1.69-3.381-2.379.111-.021.221-.031.32-.051 2.141-.34 3.721.01 6.2 1.69Zm-1.409-9.79c-8.47 0-16.64-1.279-24.33-3.65-1.16-.35-2.291-.73-3.42-1.14-1.301-.46-2.58-.95-3.852-1.479a77.11 77.11 0 0 1-3.308-1.461 84.58 84.58 0 0 1-3.682-1.83 65.688 65.688 0 0 1-3.158-1.77 65.212 65.212 0 0 1-3.5-2.179c-1.012-.651-2-1.33-2.971-2.04a64.534 64.534 0 0 1-3.269-2.491 59.355 59.355 0 0 1-2.772-2.309 66.68 66.68 0 0 1-3.019-2.771 69.128 69.128 0 0 1-2.549-2.559 79.955 79.955 0 0 1-2.762-3.051 69.31 69.31 0 0 1-2.289-2.789 90.089 90.089 0 0 1-2.471-3.28 89.794 89.794 0 0 1-2.019-3c-8.34-12.89-13.18-28.25-13.18-44.75 0-45.591 36.959-82.55 82.551-82.55 45.59 0 82.549 36.959 82.549 82.55 0 13.54-3.259 26.309-9.029 37.579a75.635 75.635 0 0 1-1.721 3.171 69.826 69.826 0 0 1-2.119 3.52c-.64 1.01-1.301 2-1.99 2.98a71.09 71.09 0 0 1-2.44 3.309c-.73.95-1.48 1.881-2.261 2.79a65.313 65.313 0 0 1-2.729 3.05c-.801.881-1.64 1.74-2.5 2.561-.98.969-1.98 1.9-3 2.799-.89.8-1.801 1.57-2.73 2.32a77.474 77.474 0 0 1-3.24 2.51c-.959.71-1.93 1.39-2.93 2.05-1.131.76-2.279 1.5-3.461 2.19a73.616 73.616 0 0 1-6.76 3.65c-1.08.521-2.16 1.01-3.26 1.471a69.932 69.932 0 0 1-3.81 1.519c-1.119.41-2.26.811-3.399 1.16a82.144 82.144 0 0 1-25.17 3.92Zm-10.89 10.951c-1.961.02-3.779.509-5.301 1.349h-.01c-.279.16-.539.32-.799.5-.169.111-.33.23-.48.351-.031.029-.09.08-.17.149-.07.06-.15.13-.221.181h-.009c-1.461-.28-2.881-.58-4.231-.891 2.67-3.34 6.881-4.599 9.35-4.75.22-.019.451-.019.681-.01.77.01 1.539.081 2.299.21.362.06.731.13 1.08.22.241.051.471.11.701.18 2.02.74 3.62 1.9 5.34 3.261.26.2.52.419.789.629.151.121.301.241.461.36.319.27.649.531.991.791.339.26.679.529 1.039.779 1.07.79 2.23 1.57 3.57 2.29 2.81 1.521 6.391 2.79 11.439 3.39-.189.281-.42.551-.679.81-.391.37-.85.71-1.369 1-7.981-.839-11.641-2.96-14.291-5.12-.061-.05-.11-.09-.161-.139h-.009c-.27-.221-.52-.441-.77-.661-.26-.22-.5-.439-.75-.66-.051-.04-.09-.08-.141-.12-.339-.309-.689-.62-1.039-.92a7.637 7.637 0 0 0-.41-.35c-.01-.01-.021-.02-.031-.02-.129-.109-.27-.21-.398-.309a15.895 15.895 0 0 0-.682-.5 8.52 8.52 0 0 0-.5-.321c-.18-.11-.35-.219-.539-.319a9.284 9.284 0 0 0-.779-.391l-.012-.009c-.17-.071-.35-.151-.529-.221-1.2-.469-2.35-.68-3.43-.739Zm-2.061 16.059c-2.25.811-4.58.731-6.57-.21-1.789-.86-3.229-2.36-4.18-4.389-.009-.02-.019-.051-.029-.071.08.03.16.04.24.061 2.18.5 4.399.91 6.619 1.26.121.04.231.07.35.099.4.11.791.151 1.17.151 2.111 0 3.861-1.071 5.291-2.35.799-.731 1.529-1.531 2.23-2.311a36.179 36.179 0 0 1 1.809-1.9c.121-.109.25-.23.4-.369.471-.431 1.03-.951 1.461-1.351.289.261.66.601 1.08.96h.01c.16.131.309.27.469.41.111.09.23.19.351.29.1.09.2.181.309.271-1.24 1.059-2.359 2.289-3.459 3.489-2.191 2.38-4.451 4.851-7.551 5.96Zm13.051-216.65c-59.18 0-107.321 48.151-107.321 107.33 0 25.91 9.36 50.93 26.36 70.44 14.599 16.781 33.98 28.55 55.32 33.781.01.019.02.049.029.07 1.071 2.889 2.911 5.01 5.352 6.17 1.28.609 2.67.92 4.1.92 1.199 0 2.42-.221 3.619-.651.301-.109.59-.23.881-.37a6.536 6.536 0 0 0 3.641 1.08c1.789 0 3.769-.69 5.699-2.33 1.56.62 3.939 1.441 7.269 2.04.04.01.071.01.109.02.8.131 1.612.201 2.401.211.121.009.25.009.371.009 2.879 0 5.629-.689 7.94-1.97.369.15.949.341 1.66.341h.01c3.49 0 6.46-2.201 7.82-5.431.18-.039.369-.09.549-.14 22.781-5.62 43.41-18.86 58.14-37.319 15.291-19.17 23.381-42.301 23.381-66.871 0-59.179-48.15-107.33-107.33-107.33Z" style="fill:#231f20;fill-rule:nonzero"/>
  <path d="M57.492 131.405a68.67 68.67 0 0 1-.348-3.431 62.04 62.04 0 0 1-.109-1.734 68.245 68.245 0 0 1 .109-8.739 64.689 64.689 0 0 1 .348-3.43 71.184 71.184 0 0 1 .515-3.38 75.56 75.56 0 0 1 .68-3.322 79.92 79.92 0 0 1 .4-1.639c.141-.543.288-1.084.44-1.623.152-.538.312-1.074.478-1.607a67.931 67.931 0 0 1 1.661-4.717 70.5 70.5 0 0 1 1.291-3.052c.228-.503.461-1.001.699-1.497a67.493 67.493 0 0 1 2.306-4.371 68.804 68.804 0 0 1 2.606-4.176c.307-.453.617-.901.934-1.345.316-.446.636-.886.962-1.323.329-.436.659-.869.996-1.297.336-.429.678-.853 1.026-1.273.346-.42.697-.836 1.055-1.248.355-.411.716-.818 1.084-1.221a73.885 73.885 0 0 1 2.253-2.364 66.114 66.114 0 0 1 2.364-2.254c.402-.366.81-.727 1.22-1.084.413-.356.829-.708 1.248-1.054a65.513 65.513 0 0 1 3.893-2.985c.445-.315.895-.627 1.346-.932.453-.306.91-.606 1.369-.902.461-.295.926-.585 1.392-.869.469-.284.94-.562 1.415-.836a69.843 69.843 0 0 1 5.869-3.005 70.171 70.171 0 0 1 1.515-.664m52.981 0a64.443 64.443 0 0 1 3.016 1.363c.496.239.988.484 1.476.735a65.15 65.15 0 0 1 2.893 1.571 70.938 70.938 0 0 1 2.807 1.705 70.26 70.26 0 0 1 4.037 2.798 66.333 66.333 0 0 1 2.57 2.021 69.483 69.483 0 0 1 2.469 2.138 66.457 66.457 0 0 1 3.506 3.423 69.6 69.6 0 0 1 2.197 2.416c.355.412.707.828 1.055 1.248a69.521 69.521 0 0 1 3.916 5.238 71.824 71.824 0 0 1 1.771 2.762c.283.468.563.94.836 1.414a62.757 62.757 0 0 1 1.57 2.893 70.379 70.379 0 0 1 2.098 4.492 70.5 70.5 0 0 1 1.219 3.09 66.918 66.918 0 0 1 3.345 13.037 66.52 66.52 0 0 1 .432 3.405c.059.571.11 1.145.152 1.721a62.354 62.354 0 0 1 .178 3.481 73.11 73.11 0 0 1 0 3.512 62.034 62.034 0 0 1-.178 3.48 68.667 68.667 0 0 1-.347 3.431" style="fill:none;stroke:#231f20;stroke-width:1px"/>
</svg>
