<?xml version="1.0" encoding="UTF-8" standalone="no"?>
<!DOCTYPE svg PUBLIC "-//W3C//DTD SVG 1.1//EN" "http://www.w3.org/Graphics/SVG/1.1/DTD/svg11.dtd">
<svg width="100%" height="100%" viewBox="0 0 250 250" version="1.1" xmlns="http://www.w3.org/2000/svg" xmlns:xlink="http://www.w3.org/1999/xlink" xml:space="preserve" xmlns:serif="http://www.serif.com/" style="fill-rule:evenodd;clip-rule:evenodd;stroke-miterlimit:2;">
    <g>
        <path d="M113.109,120.349C112.17,119.565 110.969,119.042 109.715,119.042C108.775,119.042 107.523,119.591 107.523,120.688C107.523,121.835 108.906,122.281 109.795,122.567L111.1,122.959C113.84,123.768 115.955,125.153 115.955,128.336C115.955,130.293 115.484,132.304 113.92,133.635C112.379,134.941 110.316,135.49 108.332,135.49C105.852,135.49 103.424,134.656 101.414,133.246L103.607,129.121C104.887,130.243 106.4,131.156 108.15,131.156C109.35,131.156 110.629,130.556 110.629,129.172C110.629,127.737 108.619,127.242 107.523,126.926C104.313,126.014 102.197,125.177 102.197,121.367C102.197,117.374 105.043,114.763 108.984,114.763C110.969,114.763 113.396,115.389 115.146,116.379L113.109,120.349Z" style="fill:rgb(35,31,32);fill-rule:nonzero;"/>
        <path d="M127.416,124.316L128.276,124.316C130.131,124.316 131.957,124.316 131.957,121.915C131.957,119.435 130.259,119.409 128.276,119.409L127.416,119.409L127.416,124.316ZM122.299,115.285L130.131,115.285C134.359,115.285 137.283,117.243 137.283,121.758C137.283,126.404 134.777,128.441 130.313,128.441L127.416,128.441L127.416,134.968L122.299,134.968L122.299,115.285Z" style="fill:rgb(35,31,32);fill-rule:nonzero;"/>
        <rect x="143.471" y="115.285" width="5.115" height="19.683" style="fill:rgb(35,31,32);fill-rule:nonzero;"/>
        <path d="M125.016,170.627C112.955,170.627 101.945,166.158 93.525,158.797C86.765,152.887 81.685,145.097 79.095,136.248C77.845,131.977 77.175,127.457 77.175,122.787C77.175,96.367 98.595,74.947 125.016,74.947C151.436,74.947 172.855,96.367 172.855,122.787C172.855,149.207 151.436,170.627 125.016,170.627ZM124.996,68.328C94.945,68.328 70.595,92.697 70.595,122.738C70.595,133.637 73.794,143.777 79.304,152.277C79.734,152.947 80.175,153.597 80.644,154.248C81.166,154.988 81.714,155.717 82.285,156.427C82.775,157.057 83.275,157.667 83.794,158.257C84.384,158.957 85.005,159.637 85.634,160.297C86.185,160.877 86.746,161.427 87.314,161.977C87.974,162.617 88.644,163.227 89.335,163.818C89.935,164.347 90.544,164.847 91.166,165.347C91.875,165.917 92.605,166.467 93.345,166.988C93.984,167.447 94.634,167.898 95.294,168.328C96.064,168.828 96.845,169.307 97.634,169.757C98.314,170.167 99.005,170.547 99.705,170.917C100.506,171.337 101.314,171.748 102.145,172.117C102.855,172.457 103.586,172.777 104.314,173.078C105.145,173.417 105.984,173.738 106.846,174.037C107.596,174.307 108.355,174.557 109.115,174.787C114.145,176.328 119.475,177.148 124.996,177.148C130.845,177.148 136.484,176.227 141.766,174.507C142.516,174.257 143.256,174.007 143.996,173.738C144.836,173.427 145.676,173.087 146.496,172.727C147.215,172.427 147.926,172.097 148.625,171.757C149.436,171.367 150.234,170.957 151.016,170.527C151.715,170.158 152.395,169.757 153.064,169.347C153.836,168.887 154.596,168.408 155.336,167.908C155.996,167.467 156.645,167.007 157.275,166.537C158.006,166.007 158.715,165.447 159.404,164.877C160.016,164.387 160.615,163.877 161.195,163.347C161.875,162.748 162.535,162.127 163.176,161.498C163.734,160.947 164.285,160.387 164.814,159.807C165.436,159.148 166.025,158.477 166.605,157.787C167.115,157.177 167.615,156.568 168.096,155.927C168.645,155.227 169.176,154.507 169.686,153.757C170.145,153.117 170.574,152.467 170.996,151.797C171.484,151.037 171.945,150.257 172.385,149.477C172.775,148.797 173.145,148.097 173.506,147.398C177.275,139.998 179.404,131.617 179.404,122.738C179.404,92.697 155.045,68.328 124.996,68.328Z" style="fill:rgb(3,4,5);fill-rule:nonzero;"/>
        <path d="M61.568,140.618C61.974,140.211 62.125,139.782 61.977,139.202C61.822,138.592 61.233,138.026 60.561,138.197C59.96,138.351 59.795,139.021 59.734,139.546L59.661,140.15C59.511,141.349 59.118,142.315 57.835,142.643C56.441,142.998 55.169,142.173 54.818,140.799C54.502,139.558 55.171,138.357 56.362,137.881L56.812,138.795C55.964,139.001 55.525,139.828 55.735,140.652C55.945,141.477 56.788,141.891 57.591,141.686C58.416,141.476 58.603,140.724 58.71,139.991L58.798,139.405C58.953,138.434 59.249,137.513 60.318,137.24C61.559,136.924 62.582,137.834 62.878,138.994C63.095,139.85 62.857,140.658 62.22,141.265L61.568,140.618Z" style="fill:rgb(35,31,32);fill-rule:nonzero;"/>
        <path d="M57.255,148.048L56.919,147.12L64.363,144.416L64.7,145.344L57.255,148.048Z" style="fill:rgb(35,31,32);fill-rule:nonzero;"/>
        <path d="M66.3,148.546L63.421,156.653L68.64,154.019L69.085,154.899L61.73,158.612L64.609,150.505L59.343,153.163L58.899,152.282L66.3,148.546Z" style="fill:rgb(35,31,32);fill-rule:nonzero;"/>
        <path d="M71.982,166.04L71.726,166.225C69.966,167.501 67.716,167.24 66.416,165.447C65.115,163.653 65.613,161.087 67.389,159.799C69.234,158.461 71.82,158.842 73.157,160.687C73.878,161.681 74.142,162.993 73.808,164.196L72.867,164.023C73.162,163.108 73.017,162.032 72.451,161.251C71.409,159.814 69.431,159.537 67.994,160.579C66.652,161.553 66.178,163.582 67.183,164.968C67.904,165.962 69.539,166.41 70.609,165.687L69.408,164.029L70.138,163.499L71.982,166.04Z" style="fill:rgb(35,31,32);fill-rule:nonzero;"/>
        <path d="M72.908,171.622L74.556,173.373L73.899,173.992L71.573,171.523L77.337,166.093L78.013,166.812L72.908,171.622Z" style="fill:rgb(35,31,32);fill-rule:nonzero;"/>
        <path d="M81.767,170.553L84.999,173.315L84.412,174.002L81.93,171.881L80.492,173.564L82.902,175.624L82.314,176.311L79.904,174.251L77.96,176.525L80.443,178.646L79.856,179.333L76.625,176.57L81.767,170.553Z" style="fill:rgb(35,31,32);fill-rule:nonzero;"/>
        <path d="M91.343,182.033L91.619,182.186C92.502,182.674 93.548,183.037 94.158,181.935C94.757,180.851 93.799,180.152 92.945,179.681L92.715,179.554L91.343,182.033ZM89.311,185.708L88.447,185.23L92.279,178.304L93.271,178.853C95.402,180.031 95.657,181.133 94.956,182.4C94.148,183.86 92.726,183.806 91.413,183.079L90.917,182.805L89.311,185.708Z" style="fill:rgb(35,31,32);fill-rule:nonzero;"/>
        <path d="M96.673,189.355L95.769,188.962L98.921,181.702L99.826,182.096L96.673,189.355Z" style="fill:rgb(35,31,32);fill-rule:nonzero;"/>
        <path d="M102.929,191.688L101.99,191.38L104.182,184.714L102.396,184.127L102.678,183.269L107.189,184.751L106.906,185.609L105.12,185.022L102.929,191.688Z" style="fill:rgb(35,31,32);fill-rule:nonzero;"/>
        <path d="M115.43,188.096C114.969,187.492 114.258,187.076 113.525,186.935C111.782,186.597 110.17,187.793 109.836,189.516C109.506,191.218 110.545,192.928 112.277,193.264C113.041,193.412 113.829,193.265 114.506,192.861L114.285,194.006C113.619,194.241 112.817,194.289 112.137,194.157C109.918,193.728 108.424,191.607 108.86,189.359C109.307,187.059 111.5,185.622 113.79,186.065C114.471,186.197 115.13,186.496 115.648,186.972L115.43,188.096Z" style="fill:rgb(35,31,32);fill-rule:nonzero;"/>
        <path d="M123.531,190.402L123.686,187.216L124.67,187.263L124.291,195.167L123.305,195.12L123.488,191.325L119.725,191.145L119.542,194.938L118.557,194.892L118.937,186.987L119.922,187.035L119.769,190.222L123.531,190.402Z" style="fill:rgb(35,31,32);fill-rule:nonzero;"/>
        <path d="M135.789,194.321L134.812,194.46L133.695,186.625L134.672,186.486L135.789,194.321Z" style="fill:rgb(35,31,32);fill-rule:nonzero;"/>
        <path d="M138.146,185.569L145.49,190.058L143.986,184.406L144.939,184.152L147.061,192.118L139.715,187.629L141.233,193.332L140.279,193.586L138.146,185.569Z" style="fill:rgb(35,31,32);fill-rule:nonzero;"/>
        <path d="M152.095,182.903C151.631,182.564 151.184,182.481 150.633,182.716C150.054,182.963 149.586,183.631 149.857,184.269C150.1,184.838 150.788,184.898 151.316,184.879L151.924,184.859C153.131,184.824 154.146,185.064 154.666,186.281C155.23,187.604 154.609,188.988 153.307,189.544C152.128,190.047 150.84,189.569 150.187,188.466L151.021,187.882C151.354,188.688 152.238,188.995 153.021,188.661C153.803,188.327 154.084,187.432 153.758,186.669C153.424,185.887 152.652,185.816 151.913,185.823L151.32,185.825C150.337,185.822 149.382,185.67 148.949,184.655C148.447,183.478 149.189,182.327 150.29,181.857C151.102,181.512 151.938,181.623 152.634,182.159L152.095,182.903Z" style="fill:rgb(35,31,32);fill-rule:nonzero;"/>
        <path d="M161.203,185.412L160.346,185.901L156.869,179.806L155.236,180.737L154.789,179.952L158.913,177.601L159.361,178.385L157.728,179.316L161.203,185.412Z" style="fill:rgb(35,31,32);fill-rule:nonzero;"/>
        <path d="M164.449,178.375L164.703,178.188C165.516,177.591 166.281,176.791 165.535,175.776C164.801,174.779 163.748,175.333 162.961,175.912L162.75,176.067L164.449,178.375ZM170.092,179.396L169.127,180.106L165.266,178.792L164.936,179.034L166.922,181.731L166.127,182.316L161.433,175.942L162.396,175.232C162.963,174.815 163.578,174.376 164.297,174.29C165.059,174.21 165.806,174.587 166.254,175.195C166.926,176.108 166.878,177.317 166.037,178.105L170.092,179.396Z" style="fill:rgb(35,31,32);fill-rule:nonzero;"/>
        <path d="M168.268,170.515L171.514,173.875C172.41,174.805 173.521,175.396 174.617,174.338C175.711,173.28 175.16,172.149 174.263,171.221L171.017,167.859L171.727,167.174L175.206,170.776C176.416,172.03 176.564,173.741 175.258,175.003C173.951,176.265 172.248,176.057 171.037,174.803L167.558,171.2L168.268,170.515Z" style="fill:rgb(35,31,32);fill-rule:nonzero;"/>
        <path d="M178.817,160.947C178.072,161.084 177.379,161.528 176.921,162.115C175.83,163.514 176.164,165.49 177.545,166.568C178.909,167.633 180.902,167.484 181.986,166.095C182.463,165.483 182.69,164.715 182.639,163.93L183.557,164.646C183.463,165.345 183.143,166.08 182.717,166.625C181.328,168.403 178.766,168.771 176.963,167.365C175.119,165.926 174.835,163.322 176.268,161.486C176.693,160.94 177.258,160.489 177.916,160.244L178.817,160.947Z" style="fill:rgb(35,31,32);fill-rule:nonzero;"/>
        <path d="M187.348,159.397L186.844,160.245L180.819,156.657L179.857,158.271L179.082,157.81L181.51,153.733L182.285,154.195L181.324,155.81L187.348,159.397Z" style="fill:rgb(35,31,32);fill-rule:nonzero;"/>
        <path d="M189.191,146.446C187.586,145.771 185.736,146.403 185.015,148.116C184.293,149.828 185.133,151.594 186.739,152.271C188.402,152.971 190.252,152.178 190.916,150.601C191.58,149.024 190.855,147.147 189.191,146.446ZM189.574,145.537C191.742,146.45 192.655,148.851 191.768,150.96C190.879,153.068 188.523,154.092 186.355,153.18C184.267,152.3 183.283,149.847 184.164,147.757C185.043,145.668 187.484,144.657 189.574,145.537Z" style="fill:rgb(35,31,32);fill-rule:nonzero;"/>
        <path d="M190.656,140.987L190.734,140.682C190.986,139.706 191.076,138.603 189.857,138.287C188.658,137.978 188.191,139.071 187.947,140.017L187.882,140.271L190.656,140.987ZM195.675,138.218L195.375,139.377L191.551,140.795L191.449,141.191L194.69,142.029L194.443,142.984L186.781,141.005L187.08,139.847C187.256,139.166 187.455,138.437 187.959,137.916C188.5,137.373 189.316,137.193 190.048,137.383C191.145,137.666 191.871,138.634 191.717,139.775L195.675,138.218Z" style="fill:rgb(35,31,32);fill-rule:nonzero;"/>
        <path d="M107.607,55.527L107.586,55.533L107.393,58.184L109.05,57.756L107.607,55.527ZM107.238,59.85L107.054,61.318L104.939,61.864L105.908,53.44L108.082,52.878L112.947,59.795L110.824,60.344L109.982,59.141L107.238,59.85Z" style="fill:rgb(35,31,32);fill-rule:nonzero;"/>
        <path d="M115.582,51.403L117.602,51.241L119.541,55.331L120.899,50.976L122.94,50.813L124.767,58.61L122.715,58.774L121.775,54.277L121.754,54.279L120.224,58.974L119.407,59.04L117.232,54.641L117.211,54.643L116.916,59.239L114.875,59.403L115.582,51.403Z" style="fill:rgb(35,31,32);fill-rule:nonzero;"/>
        <path d="M135.746,55.094C135.613,56.243 135.436,57.217 134.641,58.132C133.764,59.134 132.559,59.493 131.24,59.366C128.764,59.127 127.201,57.278 127.439,54.801C127.687,52.24 129.584,50.724 132.123,50.969C133.744,51.125 134.928,51.978 135.465,53.517L133.442,54.145C133.232,53.365 132.686,52.806 131.859,52.726C130.511,52.596 129.688,53.815 129.571,55.017C129.453,56.24 130.063,57.554 131.414,57.684C132.302,57.769 133.025,57.375 133.197,56.474L131.524,56.313L131.68,54.703L135.746,55.094Z" style="fill:rgb(35,31,32);fill-rule:nonzero;"/>
        <path d="M142.75,55.622L142.729,55.617L141.267,57.835L142.92,58.271L142.75,55.622ZM140.318,59.213L139.44,60.404L137.33,59.848L142.286,52.971L144.457,53.543L145.326,61.953L143.205,61.394L143.058,59.934L140.318,59.213Z" style="fill:rgb(35,31,32);fill-rule:nonzero;"/>
        <path d="M207.766,188.875C193.436,206.845 173.436,219.785 151.316,225.465C151.146,225.505 150.965,225.555 150.795,225.595C150.805,225.555 150.816,225.525 150.826,225.486C150.965,224.855 151.055,224.195 151.066,223.515C151.066,223.255 151.066,222.996 151.045,222.736C196.455,210.935 228.115,169.965 228.115,122.945C228.115,66.076 181.855,19.816 124.996,19.816C68.134,19.816 21.875,66.076 21.875,122.945C21.875,148.906 31.566,173.715 49.146,192.805C66.195,211.305 89.185,222.865 114.055,225.486C113.977,225.555 113.906,225.625 113.826,225.695C112.215,227.146 110.795,227.715 109.477,227.666L109.455,227.666C108.805,227.635 108.135,227.425 107.496,227.316C106.746,227.195 106.006,227.045 105.266,226.906C82.035,222.525 60.826,210.375 45.175,192.406C28.416,173.166 19.185,148.486 19.185,122.945C19.185,64.596 66.656,17.126 124.996,17.126C183.346,17.126 230.816,64.596 230.816,122.945C230.816,147.175 222.846,169.976 207.766,188.875ZM150.016,218.685C150.105,218.666 150.186,218.635 150.275,218.615C150.846,218.465 151.426,218.305 151.996,218.146C152.195,218.085 152.406,218.025 152.615,217.965C152.965,217.865 153.316,217.765 153.666,217.646C154.006,217.545 154.346,217.435 154.686,217.316C155.025,217.206 155.365,217.095 155.686,216.986C155.805,216.945 155.926,216.906 156.045,216.855C156.166,216.816 156.275,216.775 156.396,216.736C156.666,216.646 156.926,216.555 157.195,216.456C157.656,216.295 158.076,216.135 158.477,215.986C158.506,215.976 158.525,215.965 158.555,215.956C158.926,215.816 159.266,215.685 159.576,215.566C159.625,215.545 159.666,215.525 159.705,215.515C159.896,215.445 160.086,215.375 160.275,215.295C160.885,215.055 161.305,214.896 161.477,214.826C161.486,214.805 161.506,214.805 161.516,214.805C161.736,214.715 161.945,214.625 162.156,214.535C163.035,214.175 163.906,213.816 164.775,213.425C164.875,213.385 164.977,213.335 165.076,213.295C166.695,212.576 168.295,211.816 169.865,211.005C171.365,210.236 172.846,209.435 174.295,208.595L175.676,207.785C176.586,207.236 177.486,206.675 178.375,206.095C178.385,206.105 178.385,206.105 178.385,206.095C205.635,188.476 223.695,157.855 223.695,123.076C223.695,68.596 179.385,24.266 124.896,24.266C91.095,24.266 61.214,41.336 43.355,67.296L43.355,67.306C42.775,68.156 42.205,69.016 41.646,69.886C41.365,70.316 41.085,70.756 40.816,71.195C40.525,71.666 40.236,72.136 39.955,72.615C39.396,73.566 38.845,74.525 38.304,75.496C38.035,75.977 37.775,76.466 37.515,76.956C36.976,77.986 36.445,79.016 35.935,80.066C35.675,80.586 35.425,81.115 35.185,81.646C34.935,82.186 34.695,82.727 34.455,83.266C34.195,83.836 33.955,84.416 33.714,84.986C33.236,86.136 32.775,87.296 32.335,88.466C32.115,89.056 31.896,89.656 31.685,90.256C31.015,92.146 30.406,94.066 29.855,96.006C29.845,96.025 29.845,96.046 29.845,96.046C29.406,97.605 29.005,99.166 28.634,100.736C28.085,103.135 27.615,105.555 27.246,108.015C27.175,108.496 27.105,108.976 27.044,109.456C26.955,110.055 26.875,110.656 26.804,111.255C26.345,115.125 26.105,119.066 26.105,123.066C26.105,124.775 26.146,126.465 26.236,128.157C26.316,129.836 26.445,131.505 26.615,133.166C26.695,134.005 26.794,134.826 26.896,135.656C27.085,137.076 27.294,138.496 27.535,139.906C27.544,139.976 27.554,140.045 27.576,140.115C27.625,140.456 27.685,140.795 27.755,141.125C27.855,141.675 27.955,142.215 28.076,142.755C28.105,142.935 28.146,143.125 28.185,143.305C28.265,143.736 28.365,144.156 28.464,144.585C28.554,145.035 28.656,145.486 28.765,145.935C29.246,147.965 29.785,149.965 30.396,151.945C30.595,152.605 30.804,153.255 31.015,153.896C31.236,154.545 31.455,155.185 31.675,155.826C31.906,156.476 32.134,157.105 32.375,157.746C32.746,158.736 33.134,159.715 33.535,160.685C33.646,160.965 33.765,161.246 33.896,161.525C34.015,161.805 34.134,162.085 34.255,162.355C34.425,162.755 34.595,163.146 34.765,163.535C34.826,163.675 34.896,163.816 34.964,163.956C35.195,164.486 35.445,165.005 35.695,165.525C35.804,165.765 35.925,166.015 36.044,166.265C36.066,166.305 36.085,166.355 36.115,166.396C36.455,167.105 36.804,167.795 37.175,168.496C37.214,168.585 37.265,168.666 37.304,168.755C37.365,168.875 37.425,168.986 37.496,169.105C37.835,169.765 38.195,170.425 38.554,171.076C38.826,171.555 39.085,172.025 39.365,172.496C39.615,172.916 39.855,173.335 40.115,173.755C40.355,174.175 40.615,174.595 40.875,175.015C41.134,175.435 41.396,175.845 41.666,176.265C41.925,176.685 42.185,177.095 42.464,177.496C43.285,178.726 44.125,179.935 44.986,181.125C45.996,182.515 47.035,183.875 48.115,185.206C48.554,185.746 48.996,186.285 49.445,186.816C50.226,187.746 51.035,188.666 51.855,189.566C52.525,190.295 53.195,191.015 53.884,191.736C54.746,192.625 55.625,193.505 56.515,194.345C58.515,196.265 60.605,198.105 62.765,199.865C63.486,200.445 64.214,201.025 64.955,201.585C66.525,202.795 68.134,203.945 69.785,205.055C70.294,205.396 70.804,205.736 71.316,206.066C71.896,206.445 72.486,206.816 73.085,207.185C73.826,207.646 74.566,208.085 75.304,208.515C76.156,209.005 77.015,209.486 77.884,209.965C78.755,210.435 79.625,210.885 80.505,211.335C81.236,211.706 81.964,212.055 82.705,212.406C83.755,212.916 84.816,213.396 85.884,213.845C86.316,214.035 86.746,214.215 87.175,214.396C87.656,214.605 88.146,214.805 88.634,214.986C89.015,215.135 89.396,215.285 89.785,215.425C90.316,215.635 90.845,215.835 91.384,216.025C91.525,216.076 91.675,216.125 91.816,216.175C92.505,216.435 93.195,216.666 93.896,216.896C94.714,217.175 95.544,217.435 96.375,217.685C96.406,217.695 96.445,217.706 96.486,217.715C97.185,217.925 97.884,218.125 98.585,218.326C98.804,218.385 99.035,218.445 99.265,218.505C99.535,218.585 99.804,218.656 100.086,218.715C100.596,218.855 101.115,218.986 101.635,219.115L101.785,219.146C102.166,219.246 102.555,219.326 102.945,219.416C103.326,219.505 103.727,219.595 104.115,219.675C104.666,219.795 105.227,219.916 105.785,220.025C106.896,220.246 108.006,220.445 109.125,220.635C109.695,220.736 110.275,220.826 110.846,220.896C113.115,221.246 115.416,221.505 117.676,221.646L117.715,221.646C117.465,221.875 117.236,222.125 116.996,222.365C116.926,222.435 116.865,222.505 116.805,222.576C116.775,222.605 116.756,222.625 116.736,222.646C116.646,222.746 116.566,222.835 116.506,222.916C116.305,223.115 116.135,223.305 115.955,223.505C115.766,223.706 115.586,223.906 115.416,224.105C90.445,221.775 67.326,210.316 50.255,191.775C32.925,172.976 23.384,148.525 23.384,122.945C23.384,66.916 68.964,21.326 124.996,21.326C181.025,21.326 226.605,66.916 226.605,122.945C226.605,169.215 195.506,209.525 150.855,221.226C150.695,220.316 150.406,219.465 150.016,218.685ZM142.535,231.195C142.906,230.906 143.246,230.615 143.576,230.295C145.605,228.335 146.746,225.826 146.785,223.236C146.805,221.976 146.576,220.755 146.125,219.605C146.105,219.525 146.076,219.445 146.035,219.375C145.826,218.835 145.555,218.326 145.246,217.826C144.676,216.896 143.955,216.035 143.125,215.265C143.805,215.326 144.465,215.496 145.076,215.765L145.086,215.775C146.516,216.406 147.715,217.566 148.506,219.025C148.516,219.035 148.525,219.045 148.525,219.045C149.227,220.345 149.605,221.865 149.566,223.476C149.465,227.775 146.385,231.146 142.535,231.195ZM132.486,232.826C131.727,232.816 130.955,232.746 130.186,232.615C127.896,232.195 125.906,231.666 123.865,230.916C124.146,230.615 124.426,230.295 124.705,229.945C125.086,229.476 125.465,229.025 125.865,228.595C127.105,228.986 128.436,229.305 129.925,229.576C130.016,229.585 130.104,229.605 130.195,229.625C130.406,229.656 130.604,229.695 130.815,229.726C130.854,229.726 130.884,229.736 130.925,229.736C131.455,229.805 131.986,229.845 132.516,229.855L132.846,229.855C136.135,229.855 139.045,228.855 140.885,227.076C142.055,225.956 142.676,224.595 142.695,223.166C142.715,222.195 142.455,221.265 141.977,220.425C141.836,220.156 141.666,219.896 141.465,219.646L141.455,219.646C141.045,219.095 140.525,218.595 139.916,218.156L139.906,218.156C138.785,217.335 137.396,216.736 135.805,216.435C135.195,216.316 134.506,216.285 133.826,216.295C133.795,216.295 133.756,216.295 133.715,216.305C132.516,216.326 131.396,216.496 130.884,216.576C130.554,216.375 130.246,216.146 129.955,215.916C129.906,215.875 129.845,215.826 129.795,215.785C129.086,215.215 128.425,214.715 127.826,214.285C129.304,213.795 131.965,213.066 134.186,213.175C137.555,213.335 140.566,214.746 142.586,216.835C142.605,216.835 142.605,216.845 142.605,216.845C143.365,217.635 143.996,218.515 144.445,219.465C144.516,219.615 144.586,219.765 144.646,219.925C145.076,220.965 145.305,222.076 145.285,223.215C145.256,225.435 144.295,227.505 142.525,229.215C140.076,231.595 136.406,232.906 132.486,232.826ZM114.926,232.465C117.125,231.095 118.885,229.185 120.596,227.316C121.785,226.025 122.916,224.795 124.156,223.755C124.646,224.105 125.125,224.445 125.566,224.715C125.965,224.965 126.385,225.206 126.846,225.445C125.846,226.385 124.646,227.625 123.535,229.015C120.355,232.996 117.115,233.425 114.926,232.465ZM126.305,215.045C126.926,215.465 127.615,215.976 128.384,216.585C128.586,216.746 128.795,216.916 129.016,217.085C129.246,217.275 129.496,217.456 129.756,217.625C130.545,218.166 131.416,218.625 132.336,219.025C132.996,219.316 133.676,219.566 134.346,219.795L134.365,219.795C135.855,220.305 137.346,220.675 138.605,220.945L138.625,220.945C139.186,221.076 139.705,221.175 140.166,221.275C140.406,221.316 140.615,221.365 140.805,221.406C141.076,221.956 141.205,222.535 141.195,223.135C141.195,223.345 141.176,223.545 141.125,223.746C137.465,223.345 134.605,222.585 132.246,221.625C130.756,221.025 129.465,220.335 128.304,219.605C127.615,219.175 126.965,218.726 126.355,218.275C125.676,217.775 125.035,217.275 124.416,216.775C124.266,216.656 124.115,216.535 123.965,216.416C123.695,216.206 123.436,215.996 123.166,215.785C122.076,214.916 120.986,214.095 119.785,213.406C119.896,213.385 120.006,213.375 120.105,213.355C122.246,213.015 123.826,213.365 126.305,215.045ZM124.896,205.255C116.426,205.255 108.256,203.976 100.566,201.605C99.406,201.255 98.275,200.875 97.146,200.465C95.845,200.005 94.566,199.515 93.294,198.986C92.175,198.525 91.076,198.035 89.986,197.525C88.746,196.945 87.515,196.335 86.304,195.695C85.236,195.135 84.185,194.545 83.146,193.925C81.955,193.236 80.785,192.505 79.646,191.746C78.634,191.095 77.646,190.416 76.675,189.706C75.566,188.916 74.476,188.085 73.406,187.215C72.464,186.476 71.535,185.706 70.634,184.906C69.605,184.015 68.595,183.095 67.615,182.135C66.746,181.305 65.896,180.456 65.066,179.576C64.125,178.585 63.195,177.566 62.304,176.525C61.515,175.615 60.755,174.685 60.015,173.736C59.166,172.666 58.345,171.566 57.544,170.456C56.855,169.465 56.175,168.476 55.525,167.456C47.185,154.566 42.345,139.206 42.345,122.706C42.345,77.115 79.304,40.156 124.896,40.156C170.486,40.156 207.445,77.115 207.445,122.706C207.445,136.246 204.186,149.015 198.416,160.285C197.865,161.355 197.295,162.416 196.695,163.456C196.025,164.646 195.316,165.826 194.576,166.976C193.936,167.986 193.275,168.976 192.586,169.956C191.805,171.076 190.996,172.185 190.146,173.265C189.416,174.215 188.666,175.146 187.885,176.055C187.006,177.095 186.105,178.115 185.156,179.105C184.355,179.986 183.516,180.845 182.656,181.666C181.676,182.635 180.676,183.566 179.656,184.465C178.766,185.265 177.855,186.035 176.926,186.785C175.865,187.656 174.785,188.486 173.686,189.295C172.727,190.005 171.756,190.685 170.756,191.345C169.625,192.105 168.477,192.845 167.295,193.535C166.275,194.156 165.236,194.755 164.186,195.326C162.986,195.976 161.766,196.595 160.535,197.185C159.455,197.706 158.375,198.195 157.275,198.656C156.025,199.195 154.756,199.706 153.465,200.175C152.346,200.585 151.205,200.986 150.066,201.335C142.125,203.885 133.676,205.255 124.896,205.255ZM114.006,216.206C112.045,216.226 110.227,216.715 108.705,217.555L108.695,217.555C108.416,217.715 108.156,217.875 107.896,218.055C107.727,218.166 107.566,218.285 107.416,218.406C107.385,218.435 107.326,218.486 107.246,218.555C107.176,218.615 107.096,218.685 107.025,218.736L107.016,218.736C105.555,218.456 104.135,218.156 102.785,217.845C105.455,214.505 109.666,213.246 112.135,213.095C112.355,213.076 112.586,213.076 112.816,213.085C113.586,213.095 114.355,213.166 115.115,213.295C115.477,213.355 115.846,213.425 116.195,213.515C116.436,213.566 116.666,213.625 116.896,213.695C118.916,214.435 120.516,215.595 122.236,216.956C122.496,217.156 122.756,217.375 123.025,217.585C123.176,217.706 123.326,217.826 123.486,217.945C123.805,218.215 124.135,218.476 124.477,218.736C124.816,218.996 125.156,219.265 125.516,219.515C126.586,220.305 127.746,221.085 129.086,221.805C131.896,223.326 135.477,224.595 140.525,225.195C140.336,225.476 140.105,225.746 139.846,226.005C139.455,226.375 138.996,226.715 138.477,227.005C130.496,226.166 126.836,224.045 124.186,221.885C124.125,221.835 124.076,221.795 124.025,221.746L124.016,221.746C123.746,221.525 123.496,221.305 123.246,221.085C122.986,220.865 122.746,220.646 122.496,220.425C122.445,220.385 122.406,220.345 122.355,220.305C122.016,219.996 121.666,219.685 121.316,219.385C121.186,219.265 121.045,219.146 120.906,219.035C120.896,219.025 120.885,219.015 120.875,219.015C120.746,218.906 120.605,218.805 120.477,218.706C120.256,218.535 120.025,218.365 119.795,218.206C119.635,218.095 119.465,217.986 119.295,217.885C119.115,217.775 118.945,217.666 118.756,217.566C118.506,217.425 118.246,217.295 117.977,217.175L117.965,217.166C117.795,217.095 117.615,217.015 117.436,216.945C116.236,216.476 115.086,216.265 114.006,216.206ZM111.945,232.265C109.695,233.076 107.365,232.996 105.375,232.055C103.586,231.195 102.146,229.695 101.195,227.666C101.186,227.646 101.176,227.615 101.166,227.595C101.246,227.625 101.326,227.635 101.406,227.656C103.586,228.156 105.805,228.566 108.025,228.916C108.146,228.956 108.256,228.986 108.375,229.015C108.775,229.125 109.166,229.166 109.545,229.166C111.656,229.166 113.406,228.095 114.836,226.816C115.635,226.085 116.365,225.285 117.066,224.505C117.635,223.875 118.227,223.226 118.875,222.605C118.996,222.496 119.125,222.375 119.275,222.236C119.746,221.805 120.305,221.285 120.736,220.885C121.025,221.146 121.396,221.486 121.816,221.845L121.826,221.845C121.986,221.976 122.135,222.115 122.295,222.255C122.406,222.345 122.525,222.445 122.646,222.545C122.746,222.635 122.846,222.726 122.955,222.816C121.715,223.875 120.596,225.105 119.496,226.305C117.305,228.685 115.045,231.156 111.945,232.265ZM124.996,15.615C65.816,15.615 17.675,63.766 17.675,122.945C17.675,148.855 27.035,173.875 44.035,193.385C58.634,210.166 78.015,221.935 99.355,227.166C99.365,227.185 99.375,227.215 99.384,227.236C100.455,230.125 102.295,232.246 104.736,233.406C106.016,234.015 107.406,234.326 108.836,234.326C110.035,234.326 111.256,234.105 112.455,233.675C112.756,233.566 113.045,233.445 113.336,233.305C114.375,233.996 115.625,234.385 116.977,234.385C118.766,234.385 120.746,233.695 122.676,232.055C124.236,232.675 126.615,233.496 129.945,234.095C129.985,234.105 130.016,234.105 130.054,234.115C130.854,234.246 131.666,234.316 132.455,234.326C132.576,234.335 132.705,234.335 132.826,234.335C135.705,234.335 138.455,233.646 140.766,232.365C141.135,232.515 141.715,232.706 142.426,232.706L142.436,232.706C145.926,232.706 148.896,230.505 150.256,227.275C150.436,227.236 150.625,227.185 150.805,227.135C173.586,221.515 194.215,208.275 208.945,189.816C224.236,170.646 232.326,147.515 232.326,122.945C232.326,63.766 184.176,15.615 124.996,15.615Z" style="fill:rgb(35,31,32);fill-rule:nonzero;"/>
        <path d="M57.492,131.405C57.419,130.838 57.355,130.267 57.296,129.696C57.238,129.125 57.187,128.55 57.144,127.974C57.099,127.398 57.064,126.82 57.035,126.24C57.005,125.66 56.982,125.078 56.968,124.494C56.953,123.911 56.945,123.326 56.945,122.738C56.945,122.15 56.953,121.565 56.968,120.982C56.982,120.398 57.005,119.816 57.035,119.236C57.064,118.656 57.099,118.078 57.144,117.501C57.187,116.925 57.238,116.351 57.296,115.78C57.355,115.208 57.419,114.638 57.492,114.071C57.564,113.503 57.644,112.937 57.73,112.375C57.816,111.811 57.908,111.25 58.007,110.691C58.109,110.132 58.214,109.577 58.328,109.023C58.441,108.469 58.562,107.917 58.687,107.369C58.814,106.82 58.949,106.274 59.087,105.73C59.228,105.187 59.375,104.646 59.527,104.107C59.679,103.569 59.839,103.033 60.005,102.5C60.169,101.968 60.343,101.438 60.521,100.911C60.699,100.383 60.884,99.859 61.074,99.338C61.265,98.816 61.462,98.299 61.666,97.783C61.869,97.269 62.078,96.757 62.293,96.248C62.509,95.739 62.73,95.233 62.957,94.731C63.185,94.228 63.418,93.73 63.656,93.234C63.896,92.738 64.14,92.246 64.39,91.756C64.64,91.268 64.898,90.781 65.16,90.299C65.421,89.816 65.689,89.338 65.962,88.863C66.234,88.389 66.513,87.917 66.798,87.449C67.082,86.981 67.371,86.518 67.666,86.057C67.96,85.597 68.261,85.141 68.568,84.687C68.875,84.234 69.185,83.786 69.502,83.342C69.818,82.896 70.138,82.456 70.464,82.019C70.793,81.583 71.123,81.15 71.46,80.722C71.796,80.293 72.138,79.869 72.486,79.449C72.832,79.029 73.183,78.613 73.541,78.201C73.896,77.79 74.257,77.383 74.625,76.98C74.99,76.577 75.361,76.179 75.738,75.785C76.113,75.391 76.494,75.002 76.878,74.616C77.263,74.23 77.652,73.851 78.046,73.475C78.439,73.1 78.839,72.728 79.242,72.362C79.644,71.996 80.052,71.635 80.462,71.278C80.875,70.922 81.291,70.57 81.71,70.224C82.13,69.877 82.554,69.535 82.984,69.198C83.412,68.861 83.845,68.529 84.281,68.203C84.718,67.877 85.16,67.556 85.603,67.239C86.048,66.924 86.498,66.612 86.949,66.307C87.402,66.001 87.859,65.701 88.318,65.405C88.779,65.11 89.244,64.82 89.71,64.536C90.179,64.252 90.65,63.974 91.125,63.7C91.599,63.428 92.08,63.16 92.56,62.897C93.043,62.635 93.529,62.379 94.017,62.129C94.507,61.878 95,61.633 95.496,61.394C95.992,61.155 96.49,60.922 96.994,60.695C97.496,60.468 98.002,60.246 98.509,60.031" style="fill:none;stroke:rgb(35,31,32);stroke-width:1px;"/>
        <path d="M151.49,60.031C152,60.246 152.506,60.468 153.008,60.695C153.51,60.922 154.01,61.155 154.506,61.394C155.002,61.633 155.494,61.878 155.982,62.129C156.471,62.379 156.957,62.635 157.439,62.897C157.922,63.16 158.4,63.428 158.875,63.7C159.35,63.974 159.822,64.252 160.289,64.536C160.758,64.82 161.221,65.11 161.682,65.405C162.143,65.701 162.598,66.001 163.051,66.307C163.504,66.612 163.951,66.924 164.396,67.239C164.842,67.556 165.281,67.877 165.719,68.203C166.156,68.529 166.588,68.861 167.016,69.198C167.445,69.535 167.869,69.877 168.289,70.224C168.709,70.57 169.125,70.922 169.537,71.278C169.949,71.635 170.355,71.996 170.758,72.362C171.162,72.728 171.561,73.1 171.955,73.475C172.348,73.851 172.738,74.23 173.123,74.616C173.508,75.002 173.887,75.391 174.264,75.785C174.639,76.179 175.01,76.577 175.375,76.98C175.742,77.383 176.104,77.79 176.461,78.201C176.816,78.613 177.168,79.029 177.516,79.449C177.861,79.869 178.203,80.293 178.541,80.722C178.877,81.15 179.209,81.583 179.535,82.019C179.861,82.456 180.184,82.896 180.5,83.342C180.816,83.786 181.127,84.234 181.432,84.687C181.738,85.141 182.039,85.597 182.334,86.057C182.629,86.518 182.918,86.981 183.203,87.449C183.486,87.917 183.766,88.389 184.039,88.863C184.313,89.338 184.58,89.816 184.842,90.299C185.104,90.781 185.359,91.268 185.609,91.756C185.859,92.246 186.105,92.738 186.344,93.234C186.582,93.73 186.816,94.228 187.043,94.731C187.27,95.233 187.492,95.739 187.707,96.248C187.922,96.757 188.131,97.269 188.334,97.783C188.537,98.299 188.734,98.816 188.926,99.338C189.117,99.859 189.301,100.383 189.479,100.911C189.658,101.438 189.83,101.968 189.996,102.5C190.162,103.033 190.32,103.569 190.473,104.107C190.627,104.646 190.773,105.187 190.912,105.73C191.053,106.274 191.186,106.82 191.313,107.369C191.439,107.917 191.559,108.469 191.672,109.023C191.785,109.577 191.893,110.132 191.992,110.691C192.092,111.25 192.186,111.811 192.271,112.375C192.357,112.937 192.436,113.503 192.508,114.071C192.58,114.638 192.645,115.208 192.703,115.78C192.762,116.351 192.813,116.925 192.855,117.501C192.9,118.078 192.938,118.656 192.967,119.236C192.996,119.816 193.018,120.398 193.033,120.982C193.047,121.565 193.055,122.15 193.055,122.738C193.055,123.326 193.047,123.911 193.033,124.494C193.018,125.078 192.996,125.66 192.967,126.24C192.938,126.82 192.9,127.398 192.855,127.974C192.813,128.55 192.762,129.125 192.703,129.696C192.645,130.267 192.58,130.838 192.508,131.405" style="fill:none;stroke:rgb(35,31,32);stroke-width:1px;"/>
    </g>
</svg>
