<?xml version="1.0" encoding="UTF-8" standalone="no"?>
<!DOCTYPE svg PUBLIC "-//W3C//DTD SVG 1.1//EN" "http://www.w3.org/Graphics/SVG/1.1/DTD/svg11.dtd">
<svg width="100%" height="100%" viewBox="0 0 2100 2100" version="1.1" xmlns="http://www.w3.org/2000/svg" xmlns:xlink="http://www.w3.org/1999/xlink" xml:space="preserve" xmlns:serif="http://www.serif.com/" style="fill-rule:evenodd;clip-rule:evenodd;stroke-linecap:round;stroke-miterlimit:1.5;">
    <g transform="matrix(1,0,0,1,-283.432,-365.669)">
        <g transform="matrix(416.667,0,0,416.667,1137.63,1497.64)">
            <path d="M0.406,-0.335L0.545,-0.335C0.543,-0.368 0.535,-0.397 0.521,-0.422C0.507,-0.446 0.489,-0.466 0.467,-0.483C0.444,-0.499 0.419,-0.511 0.391,-0.519C0.362,-0.527 0.333,-0.531 0.302,-0.531C0.26,-0.531 0.223,-0.524 0.19,-0.51C0.157,-0.496 0.13,-0.476 0.107,-0.452C0.084,-0.427 0.067,-0.397 0.056,-0.363C0.044,-0.328 0.038,-0.291 0.038,-0.251C0.038,-0.212 0.044,-0.177 0.057,-0.145C0.07,-0.112 0.087,-0.084 0.11,-0.061C0.133,-0.038 0.16,-0.02 0.193,-0.007C0.225,0.007 0.26,0.013 0.299,0.013C0.368,0.013 0.424,-0.005 0.468,-0.041C0.512,-0.077 0.539,-0.129 0.548,-0.198L0.411,-0.198C0.406,-0.166 0.395,-0.14 0.377,-0.122C0.358,-0.102 0.332,-0.093 0.298,-0.093C0.276,-0.093 0.257,-0.098 0.242,-0.108C0.227,-0.118 0.215,-0.131 0.206,-0.147C0.197,-0.162 0.19,-0.18 0.186,-0.199C0.182,-0.218 0.18,-0.237 0.18,-0.256C0.18,-0.275 0.182,-0.295 0.186,-0.315C0.19,-0.334 0.197,-0.352 0.207,-0.369C0.216,-0.385 0.229,-0.398 0.244,-0.409C0.259,-0.419 0.278,-0.424 0.301,-0.424C0.362,-0.424 0.397,-0.394 0.406,-0.335Z" style="fill-rule:nonzero;"/>
        </g>
        <g transform="matrix(416.667,0,0,416.667,1376.79,1497.64)">
            <rect x="0.058" y="-0.714" width="0.142" height="0.714" style="fill-rule:nonzero;"/>
        </g>
        <g transform="matrix(416.667,0,0,416.667,1484.29,1497.64)">
            <path d="M0.2,-0.597L0.2,-0.714L0.058,-0.714L0.058,-0.597L0.2,-0.597ZM0.058,-0.517L0.058,-0L0.2,-0L0.2,-0.517L0.058,-0.517Z" style="fill-rule:nonzero;"/>
        </g>
        <g transform="matrix(416.667,0,0,416.667,1591.79,1497.64)">
            <path d="M0.058,-0.517L0.058,-0L0.2,-0L0.2,-0.3C0.2,-0.325 0.204,-0.346 0.211,-0.362C0.218,-0.377 0.227,-0.389 0.238,-0.398C0.248,-0.406 0.259,-0.412 0.27,-0.415C0.281,-0.418 0.289,-0.419 0.296,-0.419C0.319,-0.419 0.336,-0.415 0.348,-0.408C0.359,-0.4 0.368,-0.39 0.373,-0.377C0.378,-0.364 0.38,-0.35 0.381,-0.336C0.382,-0.321 0.382,-0.305 0.382,-0.29L0.382,-0L0.524,-0L0.524,-0.288C0.524,-0.304 0.525,-0.32 0.528,-0.336C0.53,-0.351 0.535,-0.365 0.542,-0.378C0.549,-0.39 0.558,-0.4 0.571,-0.408C0.583,-0.415 0.599,-0.419 0.619,-0.419C0.639,-0.419 0.655,-0.416 0.667,-0.409C0.678,-0.402 0.687,-0.393 0.693,-0.382C0.699,-0.371 0.703,-0.357 0.704,-0.342C0.705,-0.327 0.706,-0.31 0.706,-0.293L0.706,-0L0.848,-0L0.848,-0.346C0.848,-0.379 0.843,-0.408 0.834,-0.432C0.825,-0.455 0.812,-0.474 0.795,-0.489C0.778,-0.504 0.758,-0.514 0.735,-0.521C0.712,-0.528 0.686,-0.531 0.659,-0.531C0.623,-0.531 0.592,-0.522 0.566,-0.505C0.539,-0.488 0.518,-0.468 0.503,-0.445C0.489,-0.477 0.468,-0.499 0.442,-0.512C0.415,-0.525 0.385,-0.531 0.352,-0.531C0.318,-0.531 0.288,-0.524 0.262,-0.509C0.235,-0.494 0.213,-0.474 0.194,-0.447L0.192,-0.447L0.192,-0.517L0.058,-0.517Z" style="fill-rule:nonzero;"/>
        </g>
        <g transform="matrix(416.667,0,0,416.667,1969.29,1497.64)">
            <path d="M0.433,-0.258C0.433,-0.237 0.431,-0.216 0.426,-0.196C0.421,-0.176 0.414,-0.158 0.404,-0.143C0.394,-0.128 0.382,-0.115 0.367,-0.107C0.352,-0.097 0.333,-0.093 0.312,-0.093C0.291,-0.093 0.273,-0.097 0.258,-0.107C0.243,-0.115 0.23,-0.128 0.22,-0.143C0.21,-0.158 0.203,-0.176 0.198,-0.196C0.193,-0.216 0.191,-0.237 0.191,-0.258C0.191,-0.28 0.193,-0.301 0.198,-0.321C0.203,-0.341 0.21,-0.359 0.22,-0.374C0.23,-0.389 0.243,-0.402 0.258,-0.411C0.273,-0.42 0.291,-0.424 0.312,-0.424C0.333,-0.424 0.352,-0.42 0.367,-0.411C0.382,-0.402 0.394,-0.389 0.404,-0.374C0.414,-0.359 0.421,-0.341 0.426,-0.321C0.431,-0.301 0.433,-0.28 0.433,-0.258ZM0.054,-0.714L0.054,-0L0.189,-0L0.189,-0.066L0.191,-0.066C0.206,-0.037 0.229,-0.017 0.259,-0.005C0.289,0.007 0.323,0.013 0.361,0.013C0.387,0.013 0.413,0.008 0.438,-0.003C0.463,-0.014 0.486,-0.03 0.507,-0.052C0.527,-0.074 0.543,-0.102 0.556,-0.137C0.569,-0.171 0.575,-0.212 0.575,-0.259C0.575,-0.306 0.569,-0.347 0.556,-0.382C0.543,-0.416 0.527,-0.444 0.507,-0.466C0.486,-0.488 0.463,-0.504 0.438,-0.515C0.413,-0.526 0.387,-0.531 0.361,-0.531C0.329,-0.531 0.298,-0.525 0.269,-0.513C0.239,-0.5 0.215,-0.481 0.198,-0.454L0.196,-0.454L0.196,-0.714L0.054,-0.714Z" style="fill-rule:nonzero;"/>
        </g>
    </g>
    <g transform="matrix(1,0,0,1,-282.644,-4.87799)">
        <g transform="matrix(541.667,0,0,541.667,1137.63,1645.6)">
            <path d="M0.418,-0.349C0.418,-0.284 0.411,-0.233 0.399,-0.197C0.388,-0.165 0.37,-0.14 0.345,-0.122L0.345,-0.021C0.345,-0.016 0.342,-0.012 0.337,-0.01C0.302,0.004 0.262,0.012 0.216,0.012C0.177,0.012 0.142,0.004 0.112,-0.01C0.109,-0.011 0.107,-0.015 0.107,-0.021L0.107,-0.127C0.093,-0.14 0.079,-0.168 0.066,-0.21C0.053,-0.257 0.046,-0.303 0.046,-0.349C0.046,-0.393 0.047,-0.42 0.049,-0.431C0.055,-0.469 0.07,-0.488 0.094,-0.488C0.092,-0.51 0.099,-0.528 0.113,-0.543C0.129,-0.555 0.147,-0.56 0.167,-0.557C0.176,-0.588 0.197,-0.603 0.228,-0.603C0.243,-0.603 0.256,-0.598 0.266,-0.587C0.277,-0.576 0.283,-0.562 0.285,-0.546L0.27,-0.713C0.263,-0.786 0.279,-0.822 0.316,-0.822C0.351,-0.822 0.372,-0.785 0.379,-0.71L0.399,-0.506C0.411,-0.468 0.418,-0.416 0.418,-0.349ZM0.396,-0.313L0.396,-0.349C0.396,-0.418 0.39,-0.468 0.378,-0.5L0.358,-0.707C0.355,-0.737 0.352,-0.758 0.349,-0.769C0.342,-0.79 0.331,-0.8 0.316,-0.8C0.299,-0.8 0.29,-0.783 0.29,-0.748C0.29,-0.739 0.29,-0.728 0.291,-0.716L0.309,-0.527C0.309,-0.519 0.305,-0.515 0.299,-0.515L0.315,-0.473C0.319,-0.463 0.315,-0.458 0.303,-0.458C0.299,-0.458 0.296,-0.46 0.294,-0.464L0.263,-0.548C0.255,-0.57 0.243,-0.581 0.228,-0.581C0.202,-0.581 0.189,-0.568 0.187,-0.542C0.191,-0.525 0.197,-0.498 0.206,-0.46L0.212,-0.437C0.219,-0.435 0.231,-0.43 0.248,-0.421L0.26,-0.421L0.254,-0.482C0.253,-0.49 0.256,-0.494 0.263,-0.494C0.269,-0.494 0.272,-0.491 0.273,-0.484L0.281,-0.418C0.292,-0.418 0.303,-0.415 0.315,-0.41C0.34,-0.4 0.367,-0.367 0.396,-0.313ZM0.19,-0.439C0.19,-0.44 0.188,-0.445 0.185,-0.454C0.177,-0.48 0.171,-0.506 0.167,-0.533C0.153,-0.538 0.14,-0.536 0.128,-0.526C0.115,-0.517 0.111,-0.502 0.116,-0.484C0.119,-0.483 0.121,-0.481 0.122,-0.478L0.16,-0.394C0.162,-0.417 0.172,-0.432 0.19,-0.439ZM0.203,-0.325C0.201,-0.327 0.198,-0.33 0.195,-0.332C0.191,-0.335 0.188,-0.338 0.184,-0.342C0.185,-0.338 0.188,-0.333 0.194,-0.327C0.196,-0.326 0.199,-0.325 0.203,-0.325ZM0.16,-0.337L0.103,-0.466C0.096,-0.466 0.091,-0.465 0.087,-0.464C0.077,-0.463 0.071,-0.446 0.069,-0.412L0.069,-0.41C0.07,-0.409 0.07,-0.409 0.07,-0.409C0.096,-0.355 0.119,-0.328 0.139,-0.328C0.147,-0.328 0.154,-0.331 0.16,-0.337ZM0.391,-0.26C0.387,-0.271 0.381,-0.287 0.373,-0.307C0.36,-0.331 0.338,-0.359 0.306,-0.391C0.296,-0.394 0.285,-0.397 0.273,-0.399L0.257,-0.399C0.249,-0.4 0.243,-0.4 0.24,-0.4C0.224,-0.412 0.209,-0.418 0.196,-0.418C0.187,-0.413 0.182,-0.402 0.182,-0.387C0.182,-0.38 0.188,-0.37 0.199,-0.359C0.209,-0.348 0.221,-0.339 0.234,-0.334C0.246,-0.328 0.257,-0.325 0.267,-0.325C0.272,-0.325 0.275,-0.324 0.276,-0.321C0.282,-0.312 0.293,-0.299 0.309,-0.282C0.312,-0.28 0.313,-0.277 0.313,-0.273C0.313,-0.265 0.309,-0.261 0.301,-0.261C0.294,-0.261 0.281,-0.275 0.263,-0.301C0.241,-0.28 0.23,-0.258 0.23,-0.237C0.23,-0.211 0.235,-0.193 0.246,-0.181C0.249,-0.178 0.251,-0.175 0.251,-0.172C0.251,-0.164 0.247,-0.16 0.239,-0.16C0.236,-0.16 0.233,-0.161 0.231,-0.163C0.215,-0.178 0.207,-0.202 0.207,-0.237C0.207,-0.259 0.217,-0.283 0.237,-0.307L0.224,-0.312C0.217,-0.307 0.211,-0.304 0.206,-0.304C0.192,-0.304 0.181,-0.309 0.172,-0.318C0.163,-0.31 0.152,-0.306 0.139,-0.306C0.119,-0.306 0.096,-0.327 0.069,-0.37L0.069,-0.349C0.069,-0.304 0.075,-0.261 0.087,-0.219C0.099,-0.176 0.111,-0.151 0.124,-0.142C0.128,-0.14 0.13,-0.137 0.13,-0.133L0.13,-0.028C0.154,-0.016 0.183,-0.01 0.216,-0.01C0.247,-0.01 0.283,-0.016 0.322,-0.028L0.322,-0.127C0.322,-0.132 0.324,-0.135 0.327,-0.136C0.362,-0.159 0.383,-0.2 0.391,-0.26Z" style="fill-rule:nonzero;"/>
        </g>
        <g transform="matrix(541.667,0,0,541.667,1389.87,1645.6)">
            <path d="M0.445,-0.285C0.445,-0.269 0.437,-0.244 0.421,-0.21C0.407,-0.182 0.396,-0.161 0.387,-0.149C0.381,-0.141 0.367,-0.132 0.345,-0.122L0.345,-0.021C0.345,-0.016 0.342,-0.012 0.337,-0.01C0.302,0.004 0.262,0.012 0.216,0.012C0.177,0.012 0.142,0.004 0.112,-0.01C0.109,-0.011 0.107,-0.015 0.107,-0.021L0.107,-0.127C0.094,-0.14 0.081,-0.169 0.069,-0.213C0.057,-0.258 0.051,-0.303 0.051,-0.349C0.051,-0.367 0.053,-0.392 0.059,-0.425C0.064,-0.457 0.07,-0.478 0.076,-0.488C0.084,-0.503 0.096,-0.512 0.112,-0.515C0.115,-0.561 0.135,-0.584 0.173,-0.584C0.185,-0.584 0.197,-0.58 0.207,-0.572C0.219,-0.597 0.241,-0.609 0.272,-0.609C0.297,-0.609 0.313,-0.6 0.322,-0.582C0.331,-0.585 0.343,-0.587 0.357,-0.587C0.377,-0.587 0.393,-0.574 0.407,-0.549C0.42,-0.523 0.427,-0.496 0.427,-0.467C0.427,-0.428 0.42,-0.401 0.406,-0.385L0.403,-0.372C0.431,-0.346 0.445,-0.317 0.445,-0.285ZM0.404,-0.467C0.404,-0.491 0.4,-0.513 0.392,-0.534C0.383,-0.554 0.372,-0.564 0.357,-0.564C0.349,-0.564 0.341,-0.563 0.333,-0.561C0.347,-0.53 0.355,-0.503 0.358,-0.481C0.361,-0.455 0.36,-0.433 0.355,-0.416C0.355,-0.403 0.365,-0.397 0.384,-0.397C0.398,-0.397 0.404,-0.42 0.404,-0.467ZM0.337,-0.478C0.321,-0.55 0.3,-0.587 0.272,-0.587C0.249,-0.587 0.233,-0.576 0.224,-0.554C0.237,-0.539 0.255,-0.513 0.278,-0.476C0.286,-0.459 0.291,-0.438 0.293,-0.412C0.298,-0.407 0.305,-0.404 0.316,-0.404C0.333,-0.404 0.342,-0.418 0.342,-0.445C0.342,-0.455 0.34,-0.466 0.337,-0.478ZM0.272,-0.401C0.272,-0.425 0.267,-0.447 0.257,-0.467C0.221,-0.53 0.193,-0.561 0.173,-0.561C0.149,-0.561 0.136,-0.546 0.133,-0.516C0.152,-0.512 0.173,-0.497 0.197,-0.469C0.216,-0.447 0.229,-0.423 0.237,-0.397C0.243,-0.393 0.251,-0.391 0.26,-0.391C0.268,-0.391 0.272,-0.395 0.272,-0.401ZM0.422,-0.285C0.422,-0.307 0.414,-0.328 0.397,-0.348C0.382,-0.365 0.368,-0.374 0.354,-0.376C0.341,-0.378 0.329,-0.379 0.319,-0.379C0.3,-0.379 0.288,-0.376 0.281,-0.37C0.279,-0.368 0.275,-0.367 0.27,-0.367C0.235,-0.369 0.218,-0.361 0.218,-0.343C0.218,-0.318 0.252,-0.306 0.319,-0.306C0.333,-0.306 0.345,-0.306 0.354,-0.307C0.362,-0.308 0.366,-0.305 0.366,-0.297C0.366,-0.291 0.363,-0.288 0.357,-0.287C0.333,-0.282 0.304,-0.282 0.27,-0.288C0.251,-0.274 0.242,-0.256 0.242,-0.233C0.242,-0.214 0.246,-0.196 0.255,-0.179C0.256,-0.177 0.257,-0.175 0.257,-0.173C0.257,-0.166 0.253,-0.163 0.246,-0.163C0.242,-0.163 0.239,-0.164 0.237,-0.167C0.225,-0.186 0.219,-0.208 0.219,-0.233C0.219,-0.257 0.228,-0.277 0.245,-0.294C0.212,-0.304 0.196,-0.32 0.196,-0.343L0.196,-0.349C0.184,-0.35 0.165,-0.362 0.139,-0.384C0.116,-0.402 0.104,-0.414 0.103,-0.419C0.1,-0.43 0.102,-0.436 0.11,-0.436C0.114,-0.436 0.119,-0.433 0.124,-0.428C0.162,-0.391 0.186,-0.372 0.197,-0.372C0.211,-0.372 0.218,-0.376 0.218,-0.384C0.218,-0.401 0.205,-0.425 0.18,-0.453C0.154,-0.481 0.137,-0.496 0.128,-0.496C0.114,-0.496 0.103,-0.489 0.096,-0.476C0.09,-0.467 0.084,-0.448 0.08,-0.419C0.075,-0.389 0.073,-0.366 0.073,-0.349C0.073,-0.303 0.078,-0.259 0.089,-0.217C0.099,-0.175 0.111,-0.15 0.124,-0.142C0.128,-0.14 0.13,-0.137 0.13,-0.133L0.13,-0.028C0.154,-0.016 0.183,-0.01 0.216,-0.01C0.247,-0.01 0.283,-0.016 0.322,-0.028L0.322,-0.13C0.322,-0.136 0.324,-0.139 0.328,-0.14C0.347,-0.146 0.361,-0.154 0.369,-0.164C0.378,-0.174 0.388,-0.192 0.4,-0.218C0.415,-0.248 0.422,-0.27 0.422,-0.285Z" style="fill-rule:nonzero;"/>
        </g>
        <g transform="matrix(541.667,0,0,541.667,1655.04,1645.6)">
            <path d="M0.479,-0.455L0.452,-0.31C0.429,-0.24 0.397,-0.187 0.354,-0.152L0.354,-0.021C0.354,-0.016 0.351,-0.012 0.346,-0.01C0.311,0.004 0.271,0.012 0.225,0.012C0.186,0.012 0.151,0.004 0.121,-0.01C0.118,-0.011 0.116,-0.015 0.116,-0.021L0.116,-0.127C0.1,-0.14 0.085,-0.168 0.07,-0.21C0.053,-0.258 0.045,-0.304 0.045,-0.349C0.045,-0.373 0.051,-0.4 0.064,-0.431C0.081,-0.472 0.102,-0.493 0.127,-0.493C0.131,-0.493 0.137,-0.492 0.145,-0.49C0.159,-0.519 0.175,-0.533 0.193,-0.531C0.204,-0.531 0.215,-0.528 0.224,-0.522C0.236,-0.543 0.252,-0.554 0.273,-0.554C0.292,-0.554 0.307,-0.547 0.319,-0.533C0.326,-0.542 0.338,-0.546 0.354,-0.546C0.359,-0.546 0.365,-0.545 0.373,-0.543C0.387,-0.577 0.407,-0.594 0.433,-0.594C0.441,-0.594 0.448,-0.592 0.454,-0.587C0.461,-0.582 0.464,-0.576 0.464,-0.57C0.464,-0.565 0.463,-0.558 0.461,-0.549C0.459,-0.539 0.458,-0.531 0.458,-0.525C0.458,-0.517 0.462,-0.506 0.469,-0.491C0.476,-0.476 0.479,-0.464 0.479,-0.455ZM0.379,-0.455C0.374,-0.468 0.371,-0.48 0.37,-0.491C0.368,-0.498 0.368,-0.508 0.37,-0.521C0.364,-0.523 0.359,-0.524 0.354,-0.524C0.342,-0.524 0.334,-0.519 0.33,-0.509C0.321,-0.486 0.314,-0.457 0.31,-0.422C0.308,-0.406 0.306,-0.385 0.303,-0.357C0.312,-0.35 0.319,-0.346 0.325,-0.346C0.337,-0.346 0.349,-0.361 0.361,-0.39C0.362,-0.398 0.364,-0.41 0.367,-0.427C0.369,-0.436 0.373,-0.445 0.379,-0.455ZM0.306,-0.509C0.3,-0.524 0.289,-0.531 0.273,-0.531C0.259,-0.531 0.247,-0.52 0.236,-0.497L0.242,-0.387L0.242,-0.351C0.242,-0.34 0.244,-0.332 0.247,-0.328C0.25,-0.324 0.255,-0.322 0.26,-0.322C0.274,-0.322 0.282,-0.331 0.285,-0.348C0.285,-0.418 0.292,-0.472 0.306,-0.509ZM0.231,-0.316C0.224,-0.328 0.22,-0.352 0.219,-0.387L0.215,-0.497C0.211,-0.506 0.203,-0.51 0.193,-0.51C0.183,-0.51 0.172,-0.499 0.161,-0.475C0.177,-0.446 0.185,-0.401 0.185,-0.34C0.185,-0.332 0.188,-0.325 0.194,-0.317C0.2,-0.31 0.206,-0.306 0.213,-0.306C0.22,-0.306 0.226,-0.309 0.231,-0.316ZM0.458,-0.457C0.458,-0.465 0.454,-0.476 0.447,-0.491C0.44,-0.506 0.436,-0.517 0.436,-0.525C0.436,-0.531 0.437,-0.539 0.439,-0.549C0.441,-0.558 0.442,-0.565 0.442,-0.57C0.442,-0.571 0.439,-0.572 0.433,-0.572C0.414,-0.572 0.4,-0.558 0.393,-0.531C0.393,-0.527 0.392,-0.521 0.391,-0.512L0.391,-0.494C0.392,-0.482 0.396,-0.471 0.401,-0.46C0.402,-0.458 0.4,-0.451 0.396,-0.44C0.391,-0.429 0.388,-0.423 0.388,-0.422C0.386,-0.413 0.384,-0.4 0.382,-0.384C0.364,-0.344 0.345,-0.324 0.325,-0.324C0.314,-0.324 0.305,-0.327 0.299,-0.333C0.292,-0.311 0.279,-0.3 0.26,-0.3C0.255,-0.3 0.251,-0.3 0.248,-0.301C0.239,-0.29 0.227,-0.284 0.213,-0.284C0.192,-0.284 0.176,-0.294 0.167,-0.315C0.159,-0.311 0.153,-0.309 0.149,-0.309C0.121,-0.309 0.102,-0.339 0.091,-0.4C0.09,-0.408 0.094,-0.412 0.101,-0.412C0.107,-0.412 0.113,-0.399 0.119,-0.372C0.125,-0.345 0.135,-0.331 0.149,-0.331C0.158,-0.331 0.163,-0.334 0.163,-0.34C0.163,-0.359 0.161,-0.382 0.157,-0.407C0.153,-0.438 0.148,-0.458 0.143,-0.466C0.137,-0.469 0.132,-0.47 0.127,-0.47C0.106,-0.47 0.09,-0.453 0.079,-0.418C0.071,-0.394 0.067,-0.371 0.067,-0.349C0.067,-0.305 0.075,-0.261 0.091,-0.216C0.105,-0.176 0.119,-0.151 0.133,-0.142C0.137,-0.14 0.139,-0.137 0.139,-0.133L0.139,-0.028C0.163,-0.016 0.192,-0.01 0.225,-0.01C0.256,-0.01 0.292,-0.016 0.331,-0.028L0.331,-0.157C0.331,-0.162 0.333,-0.165 0.336,-0.166C0.348,-0.175 0.359,-0.186 0.37,-0.199C0.396,-0.23 0.416,-0.269 0.431,-0.315L0.458,-0.457ZM0.263,-0.182C0.266,-0.18 0.267,-0.178 0.267,-0.175C0.267,-0.166 0.263,-0.161 0.255,-0.161C0.252,-0.161 0.25,-0.162 0.248,-0.164C0.227,-0.181 0.216,-0.207 0.216,-0.242C0.216,-0.267 0.221,-0.279 0.23,-0.279C0.238,-0.279 0.241,-0.275 0.24,-0.267C0.235,-0.225 0.243,-0.197 0.263,-0.182Z" style="fill-rule:nonzero;"/>
        </g>
        <g transform="matrix(541.667,0,0,541.667,1934.77,1645.6)">
            <path d="M0.485,-0.376C0.485,-0.36 0.474,-0.317 0.452,-0.248L0.387,-0.157C0.382,-0.153 0.373,-0.147 0.361,-0.14C0.356,-0.139 0.351,-0.138 0.345,-0.136L0.345,-0.021C0.345,-0.016 0.342,-0.012 0.337,-0.01C0.302,0.004 0.262,0.012 0.216,0.012C0.177,0.012 0.142,0.004 0.112,-0.01C0.109,-0.011 0.107,-0.015 0.107,-0.021L0.107,-0.127C0.093,-0.14 0.079,-0.168 0.066,-0.21C0.053,-0.257 0.046,-0.303 0.046,-0.349C0.046,-0.392 0.053,-0.432 0.066,-0.469L0.075,-0.618C0.079,-0.683 0.096,-0.715 0.127,-0.715C0.132,-0.715 0.137,-0.714 0.143,-0.712L0.143,-0.751C0.143,-0.774 0.148,-0.793 0.157,-0.809C0.167,-0.825 0.179,-0.833 0.194,-0.833C0.206,-0.833 0.216,-0.83 0.224,-0.824C0.233,-0.851 0.248,-0.864 0.27,-0.864C0.286,-0.864 0.299,-0.858 0.307,-0.845C0.316,-0.832 0.321,-0.817 0.321,-0.8L0.321,-0.615C0.33,-0.618 0.338,-0.619 0.345,-0.619C0.365,-0.619 0.382,-0.61 0.396,-0.59C0.411,-0.571 0.418,-0.549 0.418,-0.524L0.418,-0.487L0.419,-0.487C0.424,-0.48 0.43,-0.469 0.437,-0.455C0.438,-0.449 0.44,-0.442 0.442,-0.433C0.471,-0.41 0.485,-0.391 0.485,-0.376ZM0.396,-0.491L0.396,-0.524C0.396,-0.544 0.391,-0.561 0.381,-0.575C0.372,-0.59 0.36,-0.597 0.345,-0.597C0.324,-0.597 0.313,-0.585 0.313,-0.56C0.313,-0.553 0.315,-0.544 0.318,-0.534C0.323,-0.517 0.333,-0.493 0.348,-0.46C0.351,-0.466 0.354,-0.471 0.358,-0.475C0.37,-0.484 0.383,-0.489 0.396,-0.491ZM0.463,-0.376C0.463,-0.383 0.458,-0.391 0.449,-0.4C0.439,-0.409 0.432,-0.414 0.427,-0.416C0.422,-0.417 0.419,-0.42 0.419,-0.425C0.419,-0.43 0.418,-0.438 0.416,-0.449C0.414,-0.454 0.411,-0.46 0.407,-0.467C0.397,-0.47 0.386,-0.467 0.375,-0.458C0.365,-0.449 0.36,-0.434 0.36,-0.412C0.36,-0.39 0.367,-0.371 0.381,-0.354C0.382,-0.352 0.382,-0.349 0.382,-0.346C0.382,-0.344 0.382,-0.342 0.381,-0.34C0.374,-0.329 0.37,-0.317 0.37,-0.303C0.37,-0.296 0.371,-0.29 0.373,-0.284C0.376,-0.275 0.373,-0.27 0.363,-0.27C0.358,-0.27 0.354,-0.273 0.352,-0.278C0.345,-0.3 0.346,-0.32 0.355,-0.339C0.324,-0.332 0.299,-0.317 0.279,-0.294C0.259,-0.271 0.249,-0.249 0.249,-0.227C0.249,-0.222 0.25,-0.217 0.251,-0.212C0.253,-0.203 0.249,-0.199 0.239,-0.199C0.231,-0.199 0.227,-0.208 0.227,-0.227C0.227,-0.256 0.238,-0.283 0.26,-0.309C0.283,-0.335 0.312,-0.351 0.349,-0.358C0.338,-0.382 0.335,-0.406 0.34,-0.431C0.329,-0.443 0.315,-0.476 0.297,-0.528C0.289,-0.557 0.29,-0.58 0.299,-0.596L0.299,-0.8C0.299,-0.828 0.289,-0.842 0.27,-0.842C0.251,-0.842 0.242,-0.826 0.242,-0.794L0.242,-0.531C0.242,-0.523 0.238,-0.519 0.23,-0.519C0.223,-0.519 0.219,-0.523 0.219,-0.531L0.219,-0.794C0.219,-0.805 0.211,-0.81 0.194,-0.81C0.175,-0.81 0.166,-0.791 0.166,-0.751L0.166,-0.501C0.166,-0.494 0.162,-0.49 0.154,-0.49C0.147,-0.49 0.143,-0.494 0.143,-0.501L0.143,-0.672C0.143,-0.686 0.138,-0.693 0.127,-0.693C0.109,-0.693 0.099,-0.668 0.096,-0.618L0.087,-0.464C0.075,-0.433 0.069,-0.395 0.069,-0.349C0.069,-0.304 0.075,-0.261 0.087,-0.219C0.099,-0.176 0.111,-0.151 0.124,-0.142C0.128,-0.14 0.13,-0.137 0.13,-0.133L0.13,-0.028C0.154,-0.016 0.183,-0.01 0.216,-0.01C0.247,-0.01 0.283,-0.016 0.322,-0.028L0.322,-0.145C0.322,-0.151 0.325,-0.154 0.331,-0.155C0.336,-0.156 0.344,-0.158 0.355,-0.161C0.36,-0.163 0.365,-0.167 0.37,-0.172L0.433,-0.257C0.453,-0.316 0.463,-0.356 0.463,-0.376Z" style="fill-rule:nonzero;"/>
        </g>
        <path d="M2163.22,1380.39C2163.38,1380.51 2163.52,1380.66 2163.64,1380.83C2166.38,1384.66 2169.67,1390.41 2173.51,1398.08C2173.6,1398.27 2173.67,1398.47 2173.7,1398.67C2174.21,1401.72 2174.96,1405.48 2175.95,1409.97C2185.24,1417.41 2191.76,1424.1 2195.52,1430.01C2198.28,1434.33 2199.6,1438.3 2199.6,1441.86C2199.6,1450.56 2193.68,1473.96 2181.72,1512.02C2181.65,1512.23 2181.55,1512.43 2181.42,1512.61L2145.85,1561.93C2145.74,1562.08 2145.61,1562.22 2145.46,1562.33C2142.71,1564.53 2138.05,1567.56 2131.46,1571.4C2131.26,1571.52 2131.05,1571.6 2130.82,1571.64C2128.6,1572.09 2126.2,1572.72 2123.6,1573.54L2123.6,1634.28C2123.6,1637.87 2121.86,1640.42 2118.28,1641.86C2099.18,1650.04 2077.09,1654.15 2051.99,1654.15C2030.13,1654.15 2011,1650.04 1994.59,1641.86C1992.42,1641.05 1990.89,1638.66 1990.89,1634.28L1990.89,1577.81C1982.89,1570.39 1975.3,1555.22 1968.35,1532.21L1968.33,1532.16C1961.27,1506.64 1957.75,1481.39 1957.75,1456.42C1957.75,1433.1 1961.26,1411.4 1968.28,1391.33L1973.11,1310.77L1973.11,1310.77C1974.21,1292.86 1977.23,1279.45 1982.05,1270.49C1987.19,1260.94 1994.38,1256.26 2003.49,1256.26C2005.6,1256.26 2007.87,1256.56 2010.3,1257.18L2010.3,1238.94C2010.3,1226.12 2012.97,1215.26 2018.27,1206.35C2023.83,1196.97 2031.08,1192.39 2039.87,1192.39C2045.73,1192.39 2050.76,1193.65 2054.97,1196.12C2060.3,1182.22 2069.09,1175.41 2081.1,1175.41C2090.45,1175.41 2097.76,1179.22 2103.02,1186.82C2108.11,1194.17 2110.67,1202.65 2110.67,1212.26L2110.67,1309.69C2114.66,1308.56 2118.28,1308 2121.52,1308C2132.93,1308 2142.81,1313.48 2151.08,1324.61C2159.17,1335.48 2163.22,1347.89 2163.22,1361.83L2163.22,1380.39ZM2160.84,1384.1C2159.83,1383.96 2159.05,1383.09 2159.05,1382.04L2159.05,1361.83C2159.05,1348.82 2155.28,1337.24 2147.74,1327.09C2140.38,1317.2 2131.67,1312.17 2121.52,1312.17C2117.94,1312.17 2113.85,1312.95 2109.24,1314.49C2108.61,1314.7 2107.91,1314.59 2107.37,1314.2C2106.82,1313.81 2106.5,1313.18 2106.5,1312.51L2106.5,1212.26C2106.5,1203.55 2104.21,1195.86 2099.6,1189.19C2095.16,1182.78 2088.99,1179.58 2081.1,1179.58C2070.11,1179.58 2062.51,1186.5 2058.01,1199.99C2057.8,1200.62 2057.3,1201.12 2056.66,1201.32C2056.02,1201.52 2055.32,1201.39 2054.78,1200.99C2050.81,1198.01 2045.83,1196.56 2039.87,1196.56C2032.49,1196.56 2026.53,1200.6 2021.85,1208.48C2016.9,1216.81 2014.46,1226.97 2014.46,1238.94L2014.46,1259.96C2014.46,1260.63 2014.14,1261.26 2013.6,1261.65C2013.05,1262.04 2012.36,1262.15 2011.72,1261.94C2008.73,1260.94 2005.98,1260.43 2003.49,1260.43C1995.89,1260.43 1990,1264.5 1985.72,1272.47C1981.1,1281.03 1978.32,1293.89 1977.27,1311.02L1972.42,1391.87C1972.41,1392.06 1972.37,1392.25 1972.3,1392.43C1965.37,1412.16 1961.91,1433.49 1961.91,1456.42C1961.91,1481.02 1965.39,1505.89 1972.34,1531.02C1979.18,1553.66 1986.44,1568.46 1994.34,1575.3C1994.8,1575.7 1995.06,1576.27 1995.06,1576.88L1995.06,1634.28C1995.06,1635.33 1995.15,1636.21 1995.36,1636.91C1995.51,1637.43 1995.67,1637.83 1996.06,1637.96C1996.15,1637.99 1996.25,1638.03 1996.33,1638.07C2012.23,1646.02 2030.79,1649.98 2051.99,1649.98C2076.47,1649.98 2098.03,1646 2116.66,1638.02L2116.7,1638C2118.49,1637.29 2119.44,1636.07 2119.44,1634.28L2119.44,1572.03C2119.44,1571.13 2120.01,1570.33 2120.86,1570.05C2124.05,1568.99 2126.98,1568.18 2129.66,1567.63C2135.68,1564.11 2140.01,1561.32 2142.64,1559.26L2177.84,1510.45C2189.53,1473.24 2195.43,1450.39 2195.43,1441.86C2195.43,1438.96 2194.25,1435.77 2192.01,1432.25C2188.35,1426.51 2181.92,1420.03 2172.78,1412.78C2172.4,1412.48 2172.14,1412.06 2172.04,1411.6C2170.98,1406.85 2170.18,1402.88 2169.64,1399.67C2166.26,1392.93 2163.34,1387.74 2160.84,1384.1ZM2187.47,1441.86C2187.47,1452.75 2182.08,1474.54 2171.2,1507.2C2171.13,1507.41 2171.03,1507.6 2170.9,1507.78L2136.94,1553.86C2136.88,1553.94 2136.81,1554.02 2136.74,1554.1C2133.81,1557.02 2130.88,1559.05 2127.95,1560.22C2127.88,1560.25 2127.8,1560.27 2127.73,1560.29C2121.72,1561.93 2117.22,1563.02 2114.21,1563.57C2113.31,1563.73 2112.6,1564.05 2112.14,1564.62C2111.65,1565.25 2111.48,1566.11 2111.48,1567.17L2111.48,1630.24C2111.48,1631.15 2110.87,1631.97 2109.99,1632.23C2088.21,1638.77 2068.88,1642.02 2051.99,1642.02C2033.3,1642.02 2017.37,1638.69 2004.17,1632.1C2003.47,1631.75 2003.02,1631.02 2003.02,1630.24L2003.02,1573.64C2003.02,1572.3 2002.28,1571.33 2000.94,1570.65C2000.85,1570.61 2000.76,1570.56 2000.68,1570.51C1997.68,1568.43 1994.68,1564.83 1991.77,1559.66C1987.64,1552.31 1983.59,1541.67 1979.65,1527.72C1973.13,1504.63 1969.87,1480.86 1969.87,1456.42C1969.87,1431.47 1973.13,1410.58 1979.6,1393.72L1984.43,1310.77L1984.43,1310.77C1985.43,1294.14 1988.01,1282.52 1992,1275.87C1995.04,1270.8 1998.92,1268.39 2003.49,1268.39C2006.43,1268.39 2008.76,1269.2 2010.53,1270.69C2013.03,1272.82 2014.46,1276.48 2014.46,1281.79L2014.46,1373.95C2014.46,1375.49 2014.69,1376.67 2015.36,1377.43C2015.95,1378.1 2016.86,1378.34 2018.04,1378.34C2019.52,1378.34 2020.67,1378.07 2021.41,1377.33C2022.16,1376.59 2022.42,1375.44 2022.42,1373.95L2022.42,1238.94C2022.42,1227.76 2023.81,1219.38 2026.46,1213.79C2029.43,1207.55 2033.94,1204.52 2039.87,1204.52C2050.65,1204.52 2055.69,1208.52 2055.69,1215.5L2055.69,1357.79C2055.69,1359.32 2055.92,1360.5 2056.59,1361.26C2057.18,1361.93 2058.1,1362.17 2059.27,1362.17C2060.76,1362.17 2061.9,1361.9 2062.65,1361.16C2063.39,1360.42 2063.65,1359.27 2063.65,1357.79L2063.65,1215.5C2063.65,1196.61 2069.88,1187.54 2081.1,1187.54C2085.81,1187.54 2089.56,1188.98 2092.39,1191.76C2096.37,1195.68 2098.54,1202.48 2098.54,1212.26L2098.54,1323.02C2098.54,1323.38 2098.45,1323.73 2098.27,1324.04C2093.64,1332.28 2093.53,1343.87 2097.64,1358.79C2107.19,1386.9 2114.79,1404.18 2120.63,1410.54C2121.08,1411.03 2121.27,1411.71 2121.14,1412.36C2118.53,1425.4 2120.1,1438.18 2125.84,1450.7C2126.11,1451.28 2126.09,1451.95 2125.8,1452.52C2125.5,1453.09 2124.96,1453.49 2124.33,1453.61C2104.89,1457.29 2089.24,1465.94 2077.42,1479.61C2065.66,1493.2 2059.74,1507.55 2059.74,1522.71C2059.74,1527.47 2060.19,1531.04 2061.19,1533.42C2061.87,1535.03 2062.76,1535.99 2064.12,1535.99C2066.05,1535.99 2067.45,1535.74 2068.22,1534.87C2068.93,1534.07 2068.91,1532.85 2068.55,1531.25L2068.55,1531.2C2067.98,1528.37 2067.7,1525.54 2067.7,1522.71C2067.7,1510.42 2073.2,1497.81 2084.38,1484.96C2095.45,1472.23 2109.56,1463.92 2126.72,1460.04C2127.5,1459.87 2128.31,1460.15 2128.81,1460.77C2129.3,1461.39 2129.4,1462.25 2129.06,1462.97C2124.45,1472.71 2123.95,1483.23 2127.53,1494.53C2128.25,1496.27 2129.46,1497.18 2131.22,1497.18C2133.07,1497.18 2134.39,1497 2135.03,1496.17C2135.64,1495.38 2135.43,1494.21 2134.91,1492.65C2133.76,1489.21 2133.18,1485.49 2133.18,1481.48C2133.18,1473.56 2135.16,1466.48 2139.11,1460.24C2139.46,1459.5 2139.65,1458.77 2139.65,1458.03C2139.65,1456.89 2139.5,1455.91 2139.15,1455.11C2131.4,1445.61 2127.52,1434.73 2127.52,1422.46C2127.52,1409.83 2130.71,1400.99 2136.74,1395.82C2143.01,1390.44 2149.45,1388.75 2156.02,1390.54C2156.56,1390.68 2157.01,1391.04 2157.28,1391.52C2159.5,1395.39 2161.15,1398.71 2162.26,1401.48C2162.31,1401.61 2162.35,1401.74 2162.38,1401.88C2163.49,1407.98 2164.03,1412.41 2164.03,1415.18C2164.03,1416.87 2164.9,1417.94 2166.58,1418.44C2169.46,1419.31 2173.68,1422.24 2179.14,1427.42C2184.82,1432.79 2187.47,1437.68 2187.47,1441.86ZM2183.3,1441.86C2183.3,1438.5 2180.84,1434.77 2176.28,1430.44C2171.49,1425.91 2167.9,1423.19 2165.39,1422.44C2161.68,1421.32 2159.86,1418.89 2159.86,1415.18C2159.86,1412.6 2159.34,1408.48 2158.31,1402.83C2157.34,1400.43 2155.94,1397.61 2154.11,1394.36C2149.11,1393.28 2144.24,1394.88 2139.45,1398.98C2134.16,1403.51 2131.69,1411.38 2131.69,1422.46C2131.69,1433.82 2135.3,1443.89 2142.53,1452.67C2142.63,1452.79 2142.72,1452.92 2142.79,1453.06C2143.45,1454.39 2143.82,1456.04 2143.82,1458.03C2143.82,1459.42 2143.48,1460.81 2142.79,1462.2C2142.76,1462.26 2142.72,1462.33 2142.68,1462.39C2139.12,1467.99 2137.35,1474.35 2137.35,1481.48C2137.35,1485.02 2137.85,1488.3 2138.86,1491.33C2139.95,1494.62 2139.6,1497.08 2138.32,1498.73C2137.08,1500.32 2134.77,1501.35 2131.22,1501.35C2127.62,1501.35 2125.07,1499.6 2123.63,1496C2123.61,1495.95 2123.59,1495.9 2123.58,1495.85C2120.11,1484.95 2120.15,1474.7 2123.65,1465.11C2109.18,1469.11 2097.14,1476.64 2087.52,1487.7C2077.14,1499.64 2071.86,1511.29 2071.86,1522.71C2071.86,1525.26 2072.12,1527.82 2072.62,1530.35C2073.34,1533.6 2072.78,1536.01 2071.34,1537.64C2069.95,1539.19 2067.59,1540.15 2064.12,1540.15C2061.68,1540.15 2059.69,1539.05 2058.22,1536.73C2056.53,1534.05 2055.57,1529.39 2055.57,1522.71C2055.57,1506.61 2061.77,1491.32 2074.27,1476.88C2086.17,1463.12 2101.75,1454.16 2121,1450.03C2115.89,1437.77 2114.51,1425.28 2116.86,1412.55C2110.93,1405.42 2103.14,1387.95 2093.68,1360.07C2093.66,1360.03 2093.65,1360 2093.64,1359.96C2089.22,1343.94 2089.57,1331.45 2094.38,1322.49L2094.38,1212.26C2094.38,1198.76 2090.26,1191.71 2081.1,1191.71C2075.86,1191.71 2072.23,1194.41 2070.13,1199.71C2068.57,1203.65 2067.82,1208.92 2067.82,1215.5L2067.82,1357.79C2067.82,1360.61 2067.01,1362.69 2065.59,1364.11C2064.18,1365.52 2062.1,1366.34 2059.27,1366.34C2056.67,1366.34 2054.76,1365.49 2053.46,1364.01C2052.24,1362.62 2051.53,1360.56 2051.53,1357.79L2051.53,1215.5C2051.53,1210.61 2047.42,1208.69 2039.87,1208.69C2035.56,1208.69 2032.38,1211.04 2030.23,1215.58C2027.76,1220.77 2026.59,1228.56 2026.59,1238.94L2026.59,1373.95C2026.59,1376.78 2025.78,1378.86 2024.36,1380.28C2022.95,1381.69 2020.87,1382.51 2018.04,1382.51C2015.44,1382.51 2013.53,1381.66 2012.23,1380.18C2011.01,1378.79 2010.3,1376.73 2010.3,1373.95L2010.3,1281.79C2010.3,1278.05 2009.59,1275.37 2007.83,1273.87C2006.75,1272.95 2005.29,1272.56 2003.49,1272.56C2000.29,1272.56 1997.7,1274.46 1995.57,1278.01C1991.8,1284.29 1989.53,1295.31 1988.59,1311.02L1983.74,1394.29C1983.72,1394.5 1983.68,1394.71 1983.6,1394.92C1977.21,1411.42 1974.04,1431.92 1974.04,1456.42C1974.04,1480.48 1977.25,1503.87 1983.66,1526.59C1987.49,1540.13 1991.39,1550.48 1995.41,1557.62C1997.89,1562.04 2000.38,1565.18 2002.94,1567C2005.81,1568.48 2007.19,1570.72 2007.19,1573.64L2007.19,1628.93C2019.64,1634.9 2034.58,1637.85 2051.99,1637.85C2068.14,1637.85 2086.58,1634.79 2107.31,1628.68L2107.31,1567.17C2107.31,1565.01 2107.87,1563.31 2108.87,1562.05C2109.9,1560.74 2111.41,1559.84 2113.47,1559.47C2116.37,1558.94 2120.72,1557.88 2126.52,1556.3C2128.91,1555.32 2131.29,1553.63 2133.68,1551.26L2167.35,1505.57C2177.95,1473.73 2183.3,1452.5 2183.3,1441.86ZM2149.32,1381.67C2142.68,1382.69 2136.3,1385.51 2130.16,1390.09C2128.2,1392.08 2126.48,1394.56 2125,1397.52C2124.64,1398.24 2123.9,1398.69 2123.1,1398.67C2122.3,1398.66 2121.57,1398.18 2121.24,1397.45C2113.1,1379.55 2107.68,1365.99 2104.97,1356.76C2103.28,1351.14 2102.46,1346.36 2102.46,1342.42C2102.46,1335.08 2104.11,1329.6 2107.19,1325.92C2110.39,1322.12 2115.14,1320.13 2121.52,1320.13C2130.3,1320.13 2137.51,1324.31 2143.07,1332.79C2148.4,1340.93 2151.09,1350.6 2151.09,1361.83L2151.09,1379.61C2151.09,1380.64 2150.34,1381.52 2149.32,1381.67ZM2146.93,1377.87L2146.93,1361.83C2146.93,1351.49 2144.49,1342.57 2139.59,1335.08C2134.91,1327.93 2128.91,1324.3 2121.52,1324.3C2116.59,1324.3 2112.85,1325.67 2110.38,1328.61C2107.81,1331.67 2106.63,1336.3 2106.63,1342.42C2106.63,1346.03 2107.42,1350.41 2108.96,1355.57L2108.97,1355.58C2111.45,1364.03 2116.25,1376.17 2123.35,1392C2124.56,1390.12 2125.89,1388.47 2127.32,1387.03C2127.39,1386.96 2127.47,1386.9 2127.55,1386.84C2133.77,1382.17 2140.23,1379.19 2146.93,1377.87ZM1366.08,1456.42C1366.08,1492.29 1362.51,1520 1355.45,1539.57C1349.5,1556.88 1339.83,1570.47 1326.46,1580.36L1326.46,1634.28C1326.46,1637.87 1324.72,1640.42 1321.14,1641.86C1302.04,1650.04 1279.95,1654.15 1254.85,1654.15C1232.99,1654.15 1213.86,1650.04 1197.45,1641.86C1195.28,1641.05 1193.75,1638.66 1193.75,1634.28L1193.75,1577.81C1185.75,1570.39 1178.16,1555.22 1171.2,1532.21L1171.19,1532.16C1164.13,1506.64 1160.61,1481.39 1160.61,1456.42C1160.61,1432.54 1161.17,1417.6 1162.25,1411.6C1165.52,1390.94 1173.78,1380.34 1186.34,1379.24C1185.8,1367.68 1189.56,1357.88 1197.6,1349.84C1197.67,1349.77 1197.74,1349.71 1197.82,1349.65C1206.43,1343.19 1216.06,1340.56 1226.7,1341.75C1229.31,1333.76 1233.38,1327.71 1238.84,1323.58C1244.7,1319.15 1252.18,1316.89 1261.32,1316.89C1270,1316.89 1277.37,1320.07 1283.44,1326.43C1285.36,1328.44 1287.03,1330.6 1288.45,1332.9L1281.88,1259.34C1279.95,1239.22 1281.2,1224.14 1285.48,1214.08C1290.02,1203.38 1297.88,1198.05 1309.02,1198.05C1319.18,1198.05 1327.38,1203.39 1333.48,1214.28C1339.24,1224.57 1343.13,1239.99 1345.05,1260.57L1355.54,1371.09C1362.55,1391.71 1366.08,1420.15 1366.08,1456.42ZM1361.91,1456.42C1361.91,1420.59 1358.46,1392.52 1351.51,1372.2C1351.46,1372.05 1351.43,1371.89 1351.41,1371.73L1340.9,1260.97L1340.9,1260.96C1339.05,1241.12 1335.39,1226.23 1329.84,1216.31C1324.62,1206.99 1317.72,1202.22 1309.02,1202.22C1299.68,1202.22 1293.12,1206.73 1289.31,1215.7C1285.23,1225.31 1284.19,1239.73 1286.03,1258.95L1286.03,1258.97L1294.12,1349.52C1294.22,1350.65 1293.39,1351.65 1292.27,1351.77C1291.13,1351.89 1290.12,1351.09 1289.98,1349.96C1288.96,1341.8 1285.78,1334.92 1280.43,1329.31C1275.18,1323.81 1268.82,1321.06 1261.32,1321.06C1253.21,1321.06 1246.55,1322.98 1241.36,1326.91C1236.16,1330.84 1232.46,1336.76 1230.17,1344.62C1229.88,1345.62 1228.9,1346.26 1227.87,1346.1C1217.71,1344.58 1208.57,1346.84 1200.43,1352.9C1192.88,1360.51 1189.62,1369.9 1190.63,1381.04C1190.69,1381.62 1190.49,1382.2 1190.1,1382.63C1189.7,1383.07 1189.15,1383.31 1188.56,1383.31C1176.5,1383.31 1169.38,1393.18 1166.36,1412.28L1166.36,1412.32C1165.29,1418.2 1164.77,1432.9 1164.77,1456.42C1164.77,1481.02 1168.25,1505.89 1175.2,1531.02C1182.05,1553.66 1189.3,1568.46 1197.2,1575.3C1197.66,1575.7 1197.92,1576.27 1197.92,1576.88L1197.92,1634.28C1197.92,1635.33 1198.01,1636.21 1198.22,1636.91C1198.37,1637.43 1198.54,1637.83 1198.92,1637.96C1199.01,1637.99 1199.11,1638.03 1199.19,1638.07C1215.1,1646.02 1233.65,1649.98 1254.85,1649.98C1279.34,1649.98 1300.89,1646 1319.52,1638.02L1319.57,1638C1321.36,1637.29 1322.3,1636.07 1322.3,1634.28L1322.3,1579.3C1322.3,1578.63 1322.62,1578 1323.16,1577.61C1336.3,1568.16 1345.74,1555.01 1351.52,1538.2L1351.53,1538.17C1358.47,1518.94 1361.91,1491.68 1361.91,1456.42ZM1351.51,1505.2C1347.1,1538.28 1335.12,1561.09 1315.82,1573.77C1315.67,1573.87 1315.51,1573.94 1315.34,1574C1314.97,1574.12 1314.75,1574.43 1314.61,1574.85C1314.41,1575.4 1314.34,1576.08 1314.34,1576.88L1314.34,1630.24C1314.34,1631.15 1313.73,1631.97 1312.85,1632.23C1291.07,1638.77 1271.74,1642.02 1254.85,1642.02C1236.16,1642.02 1220.23,1638.69 1207.03,1632.1C1206.33,1631.75 1205.88,1631.02 1205.88,1630.24L1205.88,1573.64C1205.88,1572.3 1205.14,1571.33 1203.8,1570.65C1203.71,1570.61 1203.62,1570.56 1203.54,1570.51C1200.54,1568.43 1197.55,1564.83 1194.63,1559.66C1190.5,1552.31 1186.45,1541.67 1182.51,1527.72C1175.99,1504.63 1172.73,1480.86 1172.73,1456.42L1172.73,1445.1C1172.73,1444.17 1173.35,1443.35 1174.24,1443.1C1175.13,1442.84 1176.09,1443.2 1176.58,1443.99C1185.14,1457.62 1193,1467.18 1200.23,1472.64C1204.71,1476.02 1208.88,1477.78 1212.81,1477.78C1219.27,1477.78 1224.75,1475.81 1229.22,1471.84C1230.04,1471.1 1231.29,1471.14 1232.07,1471.92C1236.54,1476.38 1242.25,1478.59 1249.19,1478.59C1251.57,1478.59 1254.37,1477.3 1257.68,1474.93C1258.23,1474.55 1258.92,1474.44 1259.56,1474.65L1266.83,1477.08C1267.48,1477.29 1267.98,1477.81 1268.17,1478.46C1268.36,1479.12 1268.22,1479.82 1267.8,1480.36C1257.38,1493.38 1252.09,1505.59 1252.09,1517.05C1252.09,1535.18 1256.07,1548.18 1264.36,1555.95L1264.41,1556C1265.1,1556.68 1265.96,1557.01 1266.98,1557.01C1268.47,1557.01 1269.62,1556.74 1270.36,1556C1271.1,1555.26 1271.37,1554.11 1271.37,1552.62C1271.37,1551.48 1270.69,1550.39 1269.55,1549.25L1269.49,1549.18C1263.28,1542.41 1260.05,1531.72 1260.05,1517.05C1260.05,1505.27 1266.1,1493.15 1278.44,1480.81C1278.88,1480.37 1279.5,1480.15 1280.12,1480.21C1280.74,1480.28 1281.3,1480.61 1281.65,1481.13C1287.34,1489.67 1292.07,1495.66 1295.86,1499.07C1297.93,1500.93 1299.56,1502.03 1300.94,1502.03C1302.42,1502.03 1303.57,1501.77 1304.31,1501.03C1305.06,1500.28 1305.32,1499.13 1305.32,1497.65C1305.32,1496.27 1304.85,1495.22 1303.82,1494.53C1303.69,1494.44 1303.57,1494.34 1303.46,1494.23C1294.73,1484.95 1288.73,1477.85 1285.46,1472.93C1285.36,1472.78 1285.27,1472.61 1285.22,1472.44C1285.09,1472.07 1284.78,1471.85 1284.36,1471.7C1283.82,1471.51 1283.14,1471.43 1282.34,1471.43C1276.7,1471.43 1270.36,1469.91 1263.31,1466.81C1256.34,1463.75 1249.78,1459.02 1243.65,1452.6C1237.19,1445.86 1234.18,1440.31 1234.18,1436.2C1234.18,1426.6 1237.12,1420.41 1242.52,1417.41C1242.83,1417.23 1243.18,1417.14 1243.54,1417.14C1251.3,1417.14 1259.64,1420.34 1268.5,1426.86C1270.24,1426.92 1273.01,1427.18 1276.81,1427.65L1285.58,1427.65C1285.69,1427.65 1285.8,1427.66 1285.92,1427.68C1292.48,1428.78 1298.49,1430.14 1303.96,1431.78C1304.29,1431.88 1304.59,1432.06 1304.83,1432.31C1322.26,1449.73 1334.5,1464.99 1341.57,1478.06C1341.62,1478.14 1341.66,1478.23 1341.69,1478.31C1346.01,1489.64 1349.24,1498.28 1351.4,1504.21C1351.52,1504.53 1351.55,1504.87 1351.51,1505.2ZM1347.31,1505.15C1345.17,1499.27 1342.01,1490.86 1337.84,1479.92C1330.95,1467.24 1319.08,1452.49 1302.26,1435.63C1297.13,1434.11 1291.51,1432.85 1285.4,1431.82L1276.68,1431.82C1276.6,1431.82 1276.51,1431.82 1276.42,1431.81C1272.24,1431.28 1269.36,1431.01 1267.79,1431.01C1267.34,1431.01 1266.9,1430.87 1266.54,1430.6C1258.56,1424.61 1251.1,1421.48 1244.09,1421.32C1240.11,1423.81 1238.34,1428.84 1238.34,1436.2C1238.34,1439.65 1241.25,1444.07 1246.66,1449.72C1252.38,1455.7 1258.49,1460.14 1264.99,1463C1271.42,1465.83 1277.2,1467.27 1282.34,1467.27C1286.07,1467.27 1288.21,1468.66 1289.06,1470.83C1292.27,1475.58 1298.03,1482.37 1306.34,1491.21C1308.41,1492.67 1309.49,1494.8 1309.49,1497.65C1309.49,1500.48 1308.67,1502.56 1307.26,1503.97C1305.85,1505.38 1303.76,1506.2 1300.94,1506.2C1298.86,1506.2 1296.18,1504.97 1293.08,1502.17C1289.43,1498.89 1284.94,1493.37 1279.62,1485.57C1269.41,1496.31 1264.21,1506.77 1264.21,1517.05C1264.21,1530.38 1266.9,1540.17 1272.52,1546.32C1274.6,1548.41 1275.53,1550.54 1275.53,1552.62C1275.53,1555.45 1274.72,1557.53 1273.31,1558.95C1271.89,1560.36 1269.81,1561.17 1266.98,1561.17C1264.78,1561.17 1262.96,1560.43 1261.49,1558.97C1252.55,1550.57 1247.92,1536.63 1247.92,1517.05C1247.92,1505.49 1252.81,1493.15 1262.72,1480.1L1259.23,1478.93C1255.37,1481.53 1252,1482.75 1249.19,1482.75C1241.75,1482.75 1235.53,1480.54 1230.52,1476.17C1225.58,1480.01 1219.68,1481.94 1212.81,1481.94C1208.12,1481.94 1203.07,1480 1197.72,1475.96C1191.29,1471.12 1184.34,1463.18 1176.9,1452.13L1176.9,1456.42C1176.9,1480.48 1180.11,1503.87 1186.52,1526.59C1190.35,1540.13 1194.25,1550.48 1198.27,1557.62C1200.75,1562.04 1203.24,1565.18 1205.8,1567C1208.67,1568.48 1210.05,1570.72 1210.05,1573.64L1210.05,1628.93C1222.5,1634.9 1237.43,1637.85 1254.85,1637.85C1271,1637.85 1289.44,1634.79 1310.17,1628.68L1310.17,1576.88C1310.17,1573.14 1311.56,1571.01 1313.74,1570.15C1331.95,1558.08 1343.06,1536.37 1347.31,1505.15ZM1173.9,1425.3L1173.34,1424.74C1173.48,1424.88 1173.63,1425 1173.8,1425.09C1173.78,1425.05 1173.77,1425.02 1173.75,1424.98L1174.18,1425.25C1174.38,1425.32 1174.6,1425.35 1174.82,1425.35C1175.32,1425.35 1175.79,1425.17 1176.16,1424.86L1175.62,1426.16L1177.5,1423.17C1185.77,1440.34 1193.43,1452.38 1200.55,1459.25C1204.89,1463.44 1208.94,1465.65 1212.81,1465.65C1216.12,1465.65 1219.05,1464.55 1221.62,1462.37L1192.06,1395.45C1189.14,1395.51 1186.79,1395.74 1185.02,1396.19C1184.92,1396.21 1184.83,1396.23 1184.73,1396.24C1183.16,1396.39 1182.03,1397.76 1180.96,1399.98C1178.85,1404.39 1177.54,1411.88 1176.91,1422.41L1177.09,1422.6L1176.9,1423.06L1176.9,1423.26C1176.9,1423.2 1176.9,1423.14 1176.89,1423.08L1176.76,1423.4L1174.82,1425.35L1172.73,1423.26L1172.73,1422.46C1172.73,1422.42 1172.73,1422.38 1172.74,1422.34C1173.4,1410.97 1174.93,1402.93 1177.21,1398.18C1179.04,1394.34 1181.47,1392.44 1184.15,1392.11C1186.42,1391.56 1189.5,1391.27 1193.41,1391.27C1194.24,1391.27 1194.98,1391.76 1195.32,1392.52L1226.04,1462.04C1226.39,1462.83 1226.21,1463.75 1225.61,1464.36C1221.95,1468.01 1217.68,1469.82 1212.81,1469.82C1208.07,1469.82 1202.97,1467.38 1197.66,1462.25C1190.34,1455.19 1182.39,1442.89 1173.9,1425.3ZM1176.16,1424.86L1176.76,1423.4L1176.9,1423.26C1176.9,1423.53 1176.85,1423.81 1176.74,1424.07C1176.61,1424.38 1176.41,1424.65 1176.16,1424.86ZM1350.03,1476.81C1334.72,1448.29 1320.6,1431.01 1307.38,1425.18C1301.2,1422.61 1295.28,1421.31 1289.62,1421.31C1288.56,1421.31 1287.67,1420.52 1287.55,1419.46L1283.51,1383.91C1283.31,1382.58 1282.95,1381.55 1282.28,1380.88C1281.71,1380.31 1280.9,1380.08 1279.92,1380.08C1278.83,1380.08 1278.01,1380.24 1277.54,1380.86C1276.99,1381.6 1276.95,1382.73 1277.13,1384.2L1277.14,1384.26L1280.37,1417.41C1280.43,1417.99 1280.24,1418.58 1279.84,1419.01C1279.45,1419.45 1278.89,1419.69 1278.3,1419.69L1271.83,1419.69C1271.49,1419.69 1271.16,1419.61 1270.86,1419.45C1261.88,1414.7 1255.55,1411.78 1251.86,1410.72C1251.15,1410.52 1250.6,1409.96 1250.41,1409.25L1247.18,1397.13L1247.17,1397.07C1242.32,1376.59 1238.81,1361.77 1236.66,1352.6C1236.61,1352.39 1236.59,1352.18 1236.61,1351.97C1237.19,1344.34 1239.63,1338.65 1243.74,1334.83C1247.85,1331.02 1253.69,1329.02 1261.32,1329.02C1270.15,1329.02 1277.16,1335.23 1281.87,1348.17L1298.81,1393.33C1299.48,1394.62 1300.43,1395.32 1301.74,1395.32C1303.11,1395.32 1304.25,1395.19 1305.16,1394.9C1305.79,1394.71 1306.28,1394.46 1306.59,1394.08C1307.3,1393.19 1306.99,1391.87 1306.28,1390.09L1306.27,1390.08L1297.38,1367.44C1297.13,1366.8 1297.21,1366.07 1297.6,1365.5C1297.99,1364.93 1298.63,1364.59 1299.32,1364.59C1300.49,1364.59 1301.41,1364.36 1302,1363.69C1302.65,1362.94 1302.88,1361.79 1302.89,1360.31L1293.2,1257.73L1293.2,1257.71C1292.66,1251.17 1292.38,1245.46 1292.38,1240.56C1292.38,1230.7 1293.72,1223.31 1296.25,1218.38C1299.08,1212.88 1303.36,1210.18 1309.02,1210.18C1317.9,1210.18 1324.64,1216.15 1328.78,1228.58C1328.8,1228.62 1328.81,1228.65 1328.82,1228.69C1330.45,1234.68 1332.1,1245.84 1333.73,1262.18L1333.73,1262.19L1344.21,1374.29C1350.68,1391.71 1353.95,1419.08 1353.95,1456.42L1353.95,1475.82C1353.95,1476.77 1353.3,1477.61 1352.38,1477.84C1351.45,1478.07 1350.49,1477.65 1350.03,1476.81ZM1349.79,1467.74L1349.79,1456.42C1349.79,1419.56 1346.63,1392.59 1340.22,1375.49C1340.15,1375.32 1340.11,1375.14 1340.09,1374.96L1329.58,1262.59C1327.99,1246.64 1326.41,1235.72 1324.81,1229.83C1321.41,1219.67 1316.3,1214.35 1309.02,1214.35C1304.98,1214.35 1301.98,1216.36 1299.96,1220.29C1297.64,1224.79 1296.55,1231.56 1296.55,1240.56C1296.55,1245.36 1296.82,1250.95 1297.35,1257.35L1307.05,1360.01C1307.06,1360.08 1307.06,1360.14 1307.06,1360.21C1307.06,1362.99 1306.35,1365.04 1305.13,1366.43C1304.37,1367.3 1303.4,1367.95 1302.21,1368.34L1310.15,1388.55C1311.59,1392.17 1311.29,1394.87 1309.84,1396.68C1308.48,1398.38 1305.83,1399.48 1301.74,1399.48C1298.78,1399.48 1296.51,1398.06 1295.03,1395.1C1295,1395.03 1294.97,1394.96 1294.94,1394.9L1277.96,1349.62L1277.96,1349.6C1274.04,1338.83 1268.66,1333.19 1261.32,1333.19C1254.94,1333.19 1250.01,1334.7 1246.57,1337.89C1243.19,1341.03 1241.32,1345.74 1240.79,1351.97C1242.95,1361.15 1246.42,1375.85 1251.21,1396.08L1254.14,1407.07C1258.03,1408.37 1264.1,1411.18 1272.35,1415.53L1276,1415.53L1273,1384.7C1272.65,1381.87 1273.15,1379.78 1274.21,1378.36C1275.36,1376.83 1277.22,1375.91 1279.92,1375.91C1282.16,1375.91 1283.92,1376.63 1285.23,1377.94C1286.44,1379.15 1287.29,1380.94 1287.64,1383.36L1287.64,1383.42L1291.48,1417.19C1297.1,1417.44 1302.94,1418.82 1309.01,1421.35L1309.05,1421.36C1321.66,1426.91 1335.31,1442.31 1349.79,1467.74ZM1241.06,1409.85C1232.09,1413.34 1227.2,1420.88 1226.21,1432.34C1226.13,1433.29 1225.41,1434.06 1224.48,1434.22C1223.54,1434.38 1222.62,1433.88 1222.23,1433.01L1202.02,1387.74C1201.99,1387.68 1201.97,1387.61 1201.94,1387.55C1201.62,1386.59 1200.99,1385.95 1200.03,1385.63C1199.36,1385.41 1198.85,1384.87 1198.67,1384.18C1195.72,1372.95 1198.1,1364.57 1205.49,1358.96C1212.84,1353.37 1220.64,1352.07 1228.88,1355.01C1229.6,1355.27 1230.12,1355.91 1230.24,1356.67C1232.38,1371.11 1235.58,1385.28 1239.86,1399.18C1241.6,1404.4 1242.38,1407.33 1242.38,1407.91C1242.38,1408.77 1241.86,1409.54 1241.06,1409.85ZM1237.84,1406.69C1237.44,1405.33 1236.76,1403.07 1235.9,1400.48L1235.88,1400.44C1231.67,1386.73 1228.48,1372.77 1226.31,1358.55C1219.88,1356.63 1213.78,1357.88 1208.01,1362.27C1202.14,1366.73 1200.39,1373.38 1202.45,1382.14C1204.09,1382.97 1205.23,1384.3 1205.86,1386.13L1223.21,1424.98C1225.42,1416.22 1230.33,1410.15 1237.84,1406.69ZM1247.58,1471.43C1245,1471.43 1243.08,1471.05 1241.8,1470.41C1241.6,1470.31 1241.41,1470.17 1241.25,1470.02C1237.66,1466.42 1235.65,1463.36 1235.05,1460.96C1234.82,1460.06 1235.23,1459.11 1236.04,1458.65C1236.86,1458.18 1237.88,1458.32 1238.54,1458.99C1240.6,1461.05 1242.54,1462.73 1244.34,1464.02C1246.34,1465.45 1247.91,1466.74 1249.05,1467.88C1249.65,1468.47 1249.83,1469.37 1249.5,1470.15C1249.18,1470.93 1248.42,1471.43 1247.58,1471.43ZM1632.87,1491.18C1632.87,1499.99 1628.54,1513.77 1619.74,1532.49L1619.73,1532.51C1612.1,1548.31 1605.83,1559.46 1600.92,1566C1597.68,1570.33 1590.31,1575.26 1578.7,1580.64L1578.7,1634.28C1578.7,1637.87 1576.96,1640.42 1573.38,1641.86C1554.28,1650.04 1532.19,1654.15 1507.09,1654.15C1485.23,1654.15 1466.09,1650.04 1449.69,1641.86C1447.52,1641.05 1445.99,1638.66 1445.99,1634.28L1445.99,1577.76C1438.52,1570.32 1431.46,1554.6 1425.04,1530.52C1418.53,1506.09 1415.27,1481.39 1415.27,1456.42C1415.27,1446.63 1416.76,1432.91 1419.75,1415.24C1422.77,1397.4 1425.99,1385.73 1429.28,1380.22C1433.64,1372.05 1440.07,1366.98 1448.54,1364.96C1449.77,1350.18 1454.45,1339.82 1462.33,1333.79C1467.84,1329.57 1474.93,1327.4 1483.65,1327.4C1489.82,1327.4 1495.76,1329.23 1501.47,1332.9C1508.47,1320.11 1520.29,1313.66 1537.01,1313.66C1550.69,1313.66 1560.15,1318.45 1565.52,1327.8C1570.27,1326.47 1576.12,1325.79 1583.09,1325.79C1594.54,1325.79 1604.28,1332.91 1612.01,1347.51C1619.45,1361.56 1623.17,1376.57 1623.17,1392.55C1623.17,1413.91 1619.24,1429.02 1611.69,1437.98L1610.44,1443.58C1625.43,1457.83 1632.87,1473.72 1632.87,1491.18ZM1628.7,1491.18C1628.7,1474.48 1621.34,1459.38 1606.73,1445.82C1606.19,1445.31 1605.96,1444.56 1606.12,1443.84L1607.73,1436.56C1607.81,1436.22 1607.97,1435.9 1608.2,1435.64C1615.51,1427.29 1619,1412.9 1619,1392.55C1619,1377.26 1615.44,1362.9 1608.33,1349.46C1601.51,1336.58 1593.19,1329.95 1583.09,1329.95C1575.81,1329.95 1569.83,1330.71 1565.15,1332.27C1564.17,1332.6 1563.09,1332.16 1562.63,1331.23C1558.12,1322.21 1549.53,1317.83 1537.01,1317.83C1521.22,1317.83 1510.23,1324.13 1504.12,1336.86C1503.85,1337.41 1503.35,1337.83 1502.75,1337.98C1502.15,1338.13 1501.52,1338.01 1501.02,1337.64C1495.48,1333.61 1489.69,1331.57 1483.65,1331.57C1475.98,1331.57 1469.71,1333.38 1464.87,1337.09C1457.5,1342.74 1453.5,1352.69 1452.58,1366.81C1452.52,1367.76 1451.82,1368.55 1450.88,1368.73C1442.9,1370.22 1436.93,1374.73 1432.94,1382.21L1432.88,1382.3C1429.72,1387.58 1426.76,1398.8 1423.85,1415.94C1420.91,1433.31 1419.44,1446.8 1419.44,1456.42C1419.44,1481.03 1422.65,1505.37 1429.07,1529.45C1435.39,1553.16 1442.12,1568.5 1449.49,1575.35C1449.92,1575.74 1450.16,1576.3 1450.16,1576.88L1450.16,1634.28C1450.16,1635.33 1450.25,1636.21 1450.46,1636.91C1450.61,1637.43 1450.77,1637.83 1451.16,1637.96C1451.25,1637.99 1451.34,1638.03 1451.43,1638.07C1467.33,1646.02 1485.89,1649.98 1507.09,1649.98C1531.57,1649.98 1553.13,1646 1571.76,1638.02L1571.8,1638C1573.59,1637.29 1574.54,1636.07 1574.54,1634.28L1574.54,1579.3C1574.54,1578.49 1575.01,1577.74 1575.76,1577.4C1587.16,1572.22 1594.48,1567.65 1597.59,1563.5C1602.39,1557.1 1608.51,1546.17 1615.97,1530.71C1624.41,1512.78 1628.7,1499.62 1628.7,1491.18ZM1620.74,1491.18C1620.74,1499.46 1616.69,1511.91 1608.41,1528.46C1601.84,1542.7 1596.2,1552.54 1591.55,1558.01C1586.76,1563.64 1579.05,1568.21 1568.35,1571.59C1568.31,1571.6 1568.27,1571.61 1568.23,1571.62C1566.91,1571.95 1566.58,1573.28 1566.58,1575.26L1566.58,1630.24C1566.58,1631.15 1565.97,1631.97 1565.09,1632.23C1543.31,1638.77 1523.97,1642.02 1507.09,1642.02C1488.4,1642.02 1472.46,1638.69 1459.27,1632.1C1458.57,1631.75 1458.12,1631.02 1458.12,1630.24L1458.12,1573.64C1458.12,1572.3 1457.38,1571.33 1456.04,1570.65C1455.98,1570.63 1455.93,1570.6 1455.88,1570.57C1452.84,1568.7 1449.86,1565.26 1447.06,1560.16C1443.11,1553 1439.4,1542.43 1435.95,1528.46C1430.25,1505.4 1427.4,1481.38 1427.4,1456.42C1427.4,1447.18 1428.61,1434.54 1431.06,1418.51C1433.55,1402.2 1436.54,1391.57 1439.84,1386.6C1444.57,1378.91 1451.11,1375.1 1459.39,1375.1C1461.62,1375.1 1464.72,1376.37 1468.58,1379.19C1473.7,1382.94 1480.46,1389.48 1488.84,1398.84C1503.05,1414.73 1509.98,1427.79 1509.98,1437.82C1509.98,1443.08 1505.78,1446.37 1496.58,1446.37C1494.55,1446.37 1491.74,1445.42 1488.21,1443.31C1480.92,1438.96 1470,1429.55 1455.5,1415.04C1453.31,1412.86 1451.44,1411.61 1449.69,1411.61C1448.73,1411.61 1447.99,1411.74 1447.55,1412.27C1447.22,1412.67 1447.1,1413.25 1447.08,1413.96C1447.04,1415.04 1447.24,1416.34 1447.66,1417.87C1447.67,1417.92 1447.68,1417.96 1447.69,1418.01C1447.87,1418.89 1448.94,1420.18 1450.67,1422.05C1453.8,1425.43 1459.04,1430.15 1466.38,1436.22L1466.4,1436.23C1479.92,1447.67 1489.7,1453.82 1495.95,1454.34C1497.03,1454.43 1497.86,1455.33 1497.86,1456.42L1497.86,1459.65C1497.86,1471.24 1506.43,1479.3 1523.06,1484.34C1523.76,1484.55 1524.3,1485.11 1524.47,1485.82C1524.65,1486.53 1524.44,1487.29 1523.93,1487.8C1515.17,1496.56 1510.79,1507.12 1510.79,1519.48C1510.79,1532.52 1513.9,1544 1520.17,1553.93C1520.86,1554.94 1521.9,1555.39 1523.26,1555.39C1524.48,1555.39 1525.42,1555.19 1526.03,1554.59C1526.64,1553.98 1526.84,1553.03 1526.84,1551.81C1526.84,1551.05 1526.64,1550.29 1526.26,1549.54C1521.26,1540.07 1518.75,1530.05 1518.75,1519.48C1518.75,1506.39 1524.15,1495.85 1534.96,1487.89C1535.42,1487.55 1536,1487.41 1536.56,1487.51C1554.58,1490.69 1569.94,1490.98 1582.66,1488.33L1582.75,1488.32C1583.8,1488.14 1584.62,1487.81 1585.14,1487.2C1585.66,1486.59 1585.86,1485.75 1585.86,1484.71C1585.86,1483.31 1585.65,1482.25 1584.95,1481.63C1584.24,1481.01 1583.15,1480.94 1581.73,1481.12L1581.7,1481.12C1576.79,1481.67 1570.52,1481.94 1562.88,1481.94C1540.4,1481.94 1524.68,1479.37 1515.69,1474.41C1509.03,1470.74 1505.82,1465.77 1505.82,1459.65C1505.82,1453.94 1508.56,1449.79 1514.11,1447.25C1519.04,1444.99 1526.41,1444.08 1536.26,1444.63C1538.2,1444.63 1539.6,1444.4 1540.38,1443.62C1540.42,1443.59 1540.46,1443.55 1540.5,1443.52C1544.52,1440.07 1551.95,1438.16 1562.88,1438.16C1568.35,1438.16 1574.79,1438.71 1582.18,1439.8C1589.83,1440.94 1597.98,1446.21 1606.48,1455.85L1606.5,1455.88C1616.03,1467.08 1620.74,1478.86 1620.74,1491.18ZM1616.58,1491.18C1616.58,1479.79 1612.14,1468.94 1603.34,1458.58C1595.67,1449.9 1588.47,1444.95 1581.57,1443.92C1574.41,1442.86 1568.18,1442.33 1562.88,1442.33C1553.36,1442.33 1546.8,1443.65 1543.27,1446.63C1541.89,1447.96 1539.57,1448.8 1536.2,1448.8C1536.16,1448.8 1536.12,1448.8 1536.08,1448.8C1527.09,1448.28 1520.34,1448.98 1515.84,1451.04C1511.96,1452.81 1509.98,1455.66 1509.98,1459.65C1509.98,1464.31 1512.63,1467.96 1517.7,1470.76C1526.31,1475.51 1541.37,1477.78 1562.88,1477.78C1570.32,1477.78 1576.44,1477.52 1581.23,1476.98C1584.12,1476.63 1586.25,1477.23 1587.69,1478.5C1589.15,1479.77 1590.02,1481.81 1590.02,1484.71C1590.02,1486.91 1589.41,1488.63 1588.31,1489.91C1587.22,1491.17 1585.63,1492.05 1583.48,1492.42C1570.54,1495.11 1554.96,1494.91 1536.73,1491.77C1527.53,1498.83 1522.92,1508.06 1522.92,1519.48C1522.92,1529.37 1525.27,1538.75 1529.95,1547.61L1529.98,1547.65C1530.67,1549.04 1531,1550.43 1531,1551.81C1531,1554.37 1530.26,1556.25 1528.98,1557.53C1527.7,1558.81 1525.82,1559.56 1523.26,1559.56C1520.32,1559.56 1518.15,1558.41 1516.68,1556.2L1516.65,1556.16C1509.98,1545.6 1506.63,1533.37 1506.63,1519.48C1506.63,1507.09 1510.64,1496.37 1518.68,1487.3C1501.88,1481.45 1493.69,1472.1 1493.69,1459.65L1493.69,1458.2C1486.95,1456.76 1476.91,1450.58 1463.72,1439.42C1454.9,1432.14 1449.04,1426.72 1446.13,1423.19C1444.63,1421.37 1443.85,1419.91 1443.63,1418.92C1442.43,1414.49 1442.88,1411.4 1444.33,1409.63C1445.45,1408.26 1447.2,1407.44 1449.69,1407.44C1452.26,1407.44 1455.23,1408.89 1458.44,1412.1C1470.61,1424.27 1480.18,1432.8 1487.17,1437.66C1491.37,1440.6 1494.46,1442.21 1496.58,1442.21C1499.29,1442.21 1501.46,1441.93 1503.09,1441.31C1504.86,1440.63 1505.82,1439.51 1505.82,1437.82C1505.82,1428.45 1499,1416.45 1485.73,1401.62C1477.62,1392.55 1471.09,1386.18 1466.12,1382.56C1463.25,1380.46 1461.05,1379.27 1459.39,1379.27C1452.59,1379.27 1447.27,1382.47 1443.38,1388.79L1443.34,1388.85C1440.2,1393.57 1437.54,1403.68 1435.18,1419.14C1432.77,1434.9 1431.56,1447.33 1431.56,1456.42C1431.56,1481.04 1434.37,1504.72 1439.99,1527.46C1443.33,1540.98 1446.89,1551.22 1450.71,1558.15C1453.06,1562.41 1455.45,1565.38 1457.99,1566.97C1460.89,1568.46 1462.29,1570.71 1462.29,1573.64L1462.29,1628.93C1474.74,1634.9 1489.67,1637.85 1507.09,1637.85C1523.24,1637.85 1541.68,1634.79 1562.41,1628.68L1562.41,1575.26C1562.41,1570.8 1564.2,1568.36 1567.16,1567.6C1576.91,1564.51 1584.01,1560.45 1588.37,1555.32C1592.88,1550.02 1598.28,1540.47 1604.64,1526.69L1604.67,1526.63C1612.55,1510.86 1616.58,1499.06 1616.58,1491.18ZM1574.6,1386.41L1574.61,1386.41C1576.26,1393.05 1577.09,1399.14 1577.09,1404.67C1577.09,1420.85 1571.44,1428.59 1561.26,1428.59C1554.64,1428.59 1549.86,1426.94 1546.85,1423.93C1546.5,1423.58 1546.29,1423.12 1546.25,1422.62C1545.2,1408.96 1542.6,1397.65 1538.41,1388.69C1526.12,1368.93 1516.51,1355.04 1509.56,1347.02C1509.05,1346.43 1508.91,1345.6 1509.21,1344.87C1514.42,1332.13 1523.69,1325.79 1537.01,1325.79C1543.61,1325.79 1549.72,1329.13 1555.19,1336.02C1562.83,1345.62 1569.34,1362.4 1574.6,1386.41ZM1570.54,1387.34C1565.46,1364.14 1559.3,1347.89 1551.93,1338.61C1547.4,1332.91 1542.47,1329.95 1537.01,1329.95C1525.94,1329.95 1518.13,1335.08 1513.56,1345.29C1520.54,1353.56 1530.03,1367.32 1542.01,1386.6C1542.05,1386.67 1542.09,1386.74 1542.12,1386.81C1546.44,1395.99 1549.19,1407.54 1550.34,1421.48C1552.74,1423.51 1556.4,1424.42 1561.26,1424.42C1569.4,1424.42 1572.92,1417.61 1572.92,1404.67C1572.92,1399.44 1572.13,1393.68 1570.56,1387.39L1570.54,1387.34ZM1611.04,1392.55C1611.04,1408.16 1609.58,1419.07 1606.79,1425.32C1604.54,1430.34 1601.38,1432.63 1597.64,1432.63C1590.76,1432.63 1586,1431.04 1583.25,1428.22C1581.25,1426.17 1580.2,1423.45 1580.2,1420.04C1580.2,1419.84 1580.22,1419.64 1580.28,1419.45C1582.91,1410.51 1583.4,1399.2 1581.83,1385.52C1580.23,1373.29 1575.69,1358.95 1568.25,1342.47C1568,1341.91 1568.01,1341.26 1568.28,1340.71C1568.55,1340.15 1569.05,1339.74 1569.65,1339.59C1574.13,1338.47 1578.61,1337.91 1583.09,1337.91C1591.91,1337.91 1599.01,1343.72 1604.01,1355.77C1608.69,1367.07 1611.04,1379.33 1611.04,1392.55ZM1606.88,1392.55C1606.88,1379.9 1604.64,1368.17 1600.16,1357.37C1596,1347.33 1590.44,1342.08 1583.09,1342.08C1579.76,1342.08 1576.42,1342.42 1573.09,1343.09C1580.12,1359.05 1584.4,1373.02 1585.96,1385L1585.97,1385.03C1587.6,1399.23 1587.05,1410.99 1584.37,1420.32C1584.51,1426.04 1589.13,1428.46 1597.64,1428.46C1599.94,1428.46 1601.6,1426.71 1602.98,1423.62C1605.62,1417.7 1606.88,1407.34 1606.88,1392.55ZM1539.09,1428.12C1539.09,1430.72 1538.25,1432.63 1536.76,1433.93C1535.37,1435.15 1533.32,1435.86 1530.54,1435.86C1525.22,1435.86 1520.8,1434.64 1517.26,1432.28C1516.86,1432.01 1516.56,1431.62 1516.42,1431.16C1512.19,1417.41 1505.05,1404.73 1495.01,1393.1L1495,1393.1C1482.46,1378.47 1471.32,1370 1461.39,1367.91C1460.35,1367.69 1459.64,1366.72 1459.75,1365.66C1460.79,1355.24 1464.15,1348.01 1469.57,1343.85C1473.27,1341 1477.95,1339.53 1483.65,1339.53C1488.35,1339.53 1493.89,1342.34 1500.09,1348.26C1508.73,1356.5 1518.95,1370.91 1530.73,1391.52C1530.75,1391.55 1530.77,1391.58 1530.78,1391.62C1536.32,1402.68 1539.09,1414.85 1539.09,1428.12ZM1534.92,1428.12C1534.92,1415.55 1532.31,1404.01 1527.08,1393.53C1515.59,1373.42 1505.65,1359.32 1497.21,1351.27C1492.04,1346.33 1487.57,1343.7 1483.65,1343.7C1478.99,1343.7 1475.14,1344.82 1472.11,1347.15C1467.76,1350.5 1465.16,1356.24 1464.1,1364.28C1474.2,1367.09 1485.6,1375.73 1498.16,1390.38C1508.42,1402.26 1515.75,1415.2 1520.17,1429.2C1522.99,1430.88 1526.45,1431.7 1530.54,1431.7C1532.07,1431.7 1533.25,1431.47 1534.02,1430.8C1534.69,1430.21 1534.92,1429.29 1534.92,1428.12ZM1916.6,1399.4L1902.05,1477.82C1902.04,1477.9 1902.01,1477.99 1901.99,1478.08C1889.58,1516.37 1871.8,1545.03 1848.73,1564.12L1848.73,1634.28C1848.73,1637.87 1846.98,1640.42 1843.4,1641.86C1824.31,1650.04 1802.21,1654.15 1777.12,1654.15C1755.25,1654.15 1736.12,1650.04 1719.71,1641.86C1717.55,1641.05 1716.02,1638.66 1716.02,1634.28L1716.02,1577.85C1707.47,1570.43 1699.09,1555.28 1691.07,1532.29C1681.83,1506.19 1677.21,1480.89 1677.21,1456.42C1677.21,1443.25 1680.75,1428.16 1687.88,1411.15C1697.48,1387.99 1709.64,1376.72 1723.76,1376.72C1725.74,1376.72 1728.59,1377.14 1732.31,1378C1740.19,1361.86 1749.43,1354.65 1759.44,1355.7C1765.5,1355.72 1770.88,1357.08 1775.61,1359.76C1782.4,1348.93 1791.55,1343.57 1802.99,1343.57C1813.05,1343.57 1821.4,1347.01 1828.04,1353.87C1832.21,1349.76 1838.38,1347.62 1846.64,1347.62C1849.1,1347.62 1852.19,1348.03 1855.92,1348.88C1863.85,1330.67 1875.14,1321.75 1889.49,1321.75C1894.27,1321.75 1898.6,1323.23 1902.49,1326.22C1906.61,1329.39 1908.55,1332.96 1908.55,1336.77C1908.55,1339.56 1908.01,1343.61 1906.89,1348.92C1905.85,1353.86 1905.32,1357.89 1905.32,1361.02C1905.32,1365.13 1907.19,1371.02 1910.78,1378.73C1914.73,1387.18 1916.64,1393.95 1916.64,1399.02C1916.64,1399.14 1916.63,1399.27 1916.6,1399.4ZM1912.47,1398.83L1912.47,1398.83C1912.42,1394.21 1910.56,1388.11 1907.01,1380.49C1903.06,1372.04 1901.15,1365.53 1901.15,1361.02C1901.15,1357.67 1901.7,1353.35 1902.82,1348.06C1903.85,1343.12 1904.39,1339.36 1904.39,1336.77C1904.39,1334.11 1902.83,1331.74 1899.94,1329.52C1896.82,1327.12 1893.34,1325.91 1889.49,1325.91C1876.24,1325.91 1866.22,1334.78 1859.08,1352.11C1858.69,1353.07 1857.65,1353.59 1856.65,1353.34C1852.54,1352.31 1849.21,1351.78 1846.64,1351.78C1838.81,1351.78 1833.12,1353.85 1829.69,1358.26C1829.31,1358.75 1828.73,1359.04 1828.1,1359.06C1827.47,1359.07 1826.88,1358.81 1826.47,1358.33C1820.41,1351.26 1812.58,1347.74 1802.99,1347.74C1792.42,1347.74 1784.16,1353.1 1778.12,1363.67C1777.83,1364.17 1777.35,1364.53 1776.79,1364.66C1776.23,1364.8 1775.63,1364.69 1775.15,1364.37C1770.63,1361.36 1765.36,1359.87 1759.33,1359.87C1759.26,1359.87 1759.18,1359.86 1759.1,1359.86C1754.81,1359.38 1750.78,1360.87 1746.96,1364.2C1742.82,1367.83 1738.97,1373.54 1735.35,1381.3C1734.93,1382.21 1733.92,1382.68 1732.95,1382.44C1728.87,1381.42 1725.8,1380.89 1723.76,1380.89C1710.93,1380.89 1700.45,1391.71 1691.73,1412.75L1691.73,1412.76C1684.85,1429.16 1681.38,1443.71 1681.38,1456.42C1681.38,1480.45 1685.92,1505.28 1695,1530.91L1695.01,1530.92C1702.91,1553.59 1710.98,1568.41 1719.41,1575.26C1719.9,1575.65 1720.18,1576.25 1720.18,1576.88L1720.18,1634.28C1720.18,1635.33 1720.27,1636.21 1720.48,1636.91C1720.64,1637.43 1720.8,1637.83 1721.18,1637.96C1721.28,1637.99 1721.37,1638.03 1721.46,1638.07C1737.36,1646.02 1755.91,1649.98 1777.12,1649.98C1801.6,1649.98 1823.15,1646 1841.78,1638.02L1841.83,1638C1843.62,1637.29 1844.56,1636.07 1844.56,1634.28L1844.56,1563.13C1844.56,1562.51 1844.84,1561.91 1845.33,1561.52C1868.21,1542.89 1885.73,1514.68 1897.98,1476.92L1912.47,1398.83ZM1822.72,1370.65C1815.24,1390.42 1811.54,1419.28 1811.54,1457.23C1811.54,1457.35 1811.53,1457.47 1811.51,1457.59C1810.42,1463.75 1808.03,1468.01 1804.55,1470.47C1802.15,1472.17 1799.21,1473.05 1795.71,1473.05C1792.41,1473.05 1789.59,1471.75 1787.27,1469.11C1785.16,1466.7 1783.93,1462.23 1783.93,1455.61L1783.93,1436.26L1780.7,1376.49C1780.68,1376.14 1780.75,1375.8 1780.9,1375.48C1787.3,1362.1 1794.84,1355.7 1802.99,1355.7C1812.55,1355.7 1819.12,1360.18 1822.71,1369.14C1822.9,1369.62 1822.91,1370.16 1822.72,1370.65ZM1818.53,1369.95C1815.59,1363.23 1810.41,1359.87 1802.99,1359.87C1796.14,1359.87 1790.28,1365.7 1784.89,1376.8L1788.09,1436.09C1788.09,1436.13 1788.09,1436.17 1788.09,1436.2L1788.09,1455.61C1788.09,1460.85 1788.74,1464.46 1790.41,1466.36C1791.87,1468.03 1793.63,1468.88 1795.71,1468.88C1798.25,1468.88 1800.4,1468.3 1802.14,1467.07C1804.84,1465.16 1806.51,1461.78 1807.37,1457.04C1807.38,1419.04 1811.13,1390.01 1818.53,1369.95ZM1862.17,1400.09C1859.08,1405.25 1857,1410.14 1855.96,1414.79C1854.36,1423.88 1853.29,1430.56 1852.75,1434.85C1852.73,1435.03 1852.68,1435.21 1852.61,1435.38C1848.59,1445.11 1844.52,1451.89 1840.49,1455.78C1837.44,1458.73 1834.34,1460.12 1831.28,1460.12C1827.73,1460.12 1823.22,1458.17 1817.88,1454.02C1817.31,1453.58 1817.01,1452.87 1817.09,1452.15C1818.7,1437.05 1820.05,1425.19 1821.13,1416.55C1823.31,1397.48 1826.87,1381.68 1831.77,1369.15L1831.78,1369.14C1834.26,1362.92 1839.19,1359.74 1846.64,1359.74C1849.54,1359.74 1852.72,1360.31 1856.2,1361.47C1857.16,1361.79 1857.75,1362.76 1857.6,1363.76C1856.58,1370.38 1856.52,1375.48 1857.54,1379.04C1857.58,1379.17 1857.6,1379.3 1857.61,1379.42C1858.14,1385.18 1859.72,1391.46 1862.33,1398.27C1862.56,1398.87 1862.51,1399.54 1862.17,1400.09ZM1858.09,1398.82C1855.56,1392.05 1854.03,1385.77 1853.48,1379.99C1852.49,1376.36 1852.37,1371.33 1853.22,1364.91C1850.87,1364.25 1848.67,1363.91 1846.64,1363.91C1841.17,1363.91 1837.47,1366.12 1835.65,1370.68C1830.85,1382.93 1827.4,1398.39 1825.27,1417.04L1825.27,1417.06C1824.22,1425.45 1822.91,1436.91 1821.35,1451.43C1825.31,1454.37 1828.58,1455.95 1831.28,1455.95C1833.4,1455.95 1835.48,1454.83 1837.6,1452.78C1841.3,1449.21 1844.95,1442.94 1848.65,1434.05C1849.21,1429.71 1850.28,1423.03 1851.87,1414.02L1851.89,1413.92C1852.95,1409.14 1855.01,1404.1 1858.09,1398.82ZM1870.56,1397.35C1867.26,1391.23 1865.34,1384.84 1864.78,1378.17C1864.78,1378.11 1864.77,1378.05 1864.77,1378L1864.77,1368.3C1864.77,1368.22 1864.78,1368.14 1864.79,1368.07C1865.31,1363.32 1865.58,1359.89 1865.58,1357.79C1865.58,1357.58 1865.61,1357.38 1865.67,1357.19C1870.32,1341.48 1878.43,1333.87 1889.49,1333.87C1891.51,1333.87 1892.95,1333.98 1893.84,1334.17C1894.52,1334.32 1895,1334.53 1895.31,1334.74L1895.83,1335.19L1896.16,1335.68L1896.36,1336.2L1896.43,1336.77C1896.43,1339.56 1895.88,1343.61 1894.77,1348.92C1893.72,1353.86 1893.19,1357.89 1893.19,1361.02C1893.19,1365.12 1895.19,1370.99 1899.04,1378.68C1903.28,1387.16 1905.32,1393.68 1905.32,1398.21C1905.32,1398.34 1905.31,1398.47 1905.28,1398.6L1890.73,1475.4C1890.72,1475.49 1890.69,1475.57 1890.66,1475.66C1882.49,1500.71 1871.32,1521.95 1857.15,1539.38L1857.13,1539.42C1851.09,1546.55 1844.78,1552.58 1838.19,1557.52C1838.01,1557.66 1837.82,1557.76 1837.6,1557.83C1837.23,1557.96 1837.02,1558.27 1836.87,1558.68C1836.68,1559.23 1836.6,1559.91 1836.6,1560.71L1836.6,1630.24C1836.6,1631.15 1836,1631.97 1835.12,1632.23C1813.33,1638.77 1794,1642.02 1777.12,1642.02C1758.43,1642.02 1742.49,1638.69 1729.3,1632.1C1728.59,1631.75 1728.14,1631.02 1728.14,1630.24L1728.14,1573.64C1728.14,1572.3 1727.41,1571.33 1726.06,1570.65C1725.99,1570.62 1725.93,1570.59 1725.87,1570.55C1718.1,1565.55 1710.15,1551.79 1702.39,1529.06C1693.68,1504.57 1689.34,1480.36 1689.34,1456.42C1689.34,1444.35 1691.52,1431.74 1695.91,1418.59C1702.21,1398.54 1711.73,1388.85 1723.76,1388.85C1726.73,1388.85 1730.01,1389.71 1733.58,1391.49C1733.93,1391.66 1734.22,1391.93 1734.42,1392.25C1737.19,1396.68 1739.78,1407.44 1741.99,1424.6C1744.16,1438.72 1745.25,1450.94 1745.25,1461.27C1745.25,1463.18 1744.62,1464.7 1743.47,1465.85C1742.02,1467.3 1739.52,1468.2 1735.89,1468.2C1731.48,1468.2 1727.66,1466.15 1724.51,1461.9C1721.68,1458.08 1719.38,1452.38 1717.68,1444.74C1715.8,1436.28 1713.95,1430.35 1712.08,1426.97C1711.56,1426.05 1711.07,1425.34 1710.56,1424.88C1710.37,1424.71 1710.21,1424.55 1710.02,1424.55C1708.61,1424.55 1707.55,1424.75 1706.93,1425.45C1706.32,1426.15 1706.25,1427.22 1706.42,1428.62C1709.32,1444.69 1713.3,1456.75 1718.44,1464.79C1723.24,1472.29 1729,1476.16 1735.89,1476.16C1737.84,1476.16 1740.75,1475.1 1744.66,1473.15C1745.17,1472.89 1745.77,1472.86 1746.3,1473.06C1746.84,1473.25 1747.28,1473.66 1747.5,1474.19C1751.99,1484.65 1759.69,1489.9 1770.65,1489.9C1777.53,1489.9 1783.16,1486.93 1787.58,1481.04C1788.12,1480.32 1789.05,1480.03 1789.9,1480.31C1791.36,1480.8 1793.29,1481.01 1795.71,1481.01C1805.04,1481.01 1811.31,1475.48 1814.75,1464.68C1814.96,1464.01 1815.49,1463.5 1816.16,1463.31C1816.83,1463.12 1817.56,1463.27 1818.09,1463.73C1821.51,1466.66 1825.91,1468.08 1831.28,1468.08C1836.17,1468.08 1840.89,1465.53 1845.54,1460.64C1850.49,1455.43 1855.28,1447.63 1859.97,1437.26C1861.05,1428.2 1862.12,1421.25 1863.19,1416.41C1863.23,1416.18 1863.3,1415.87 1863.42,1415.5C1863.87,1414.17 1865.18,1411.09 1867.38,1406.24C1868.93,1402.84 1869.93,1400.28 1870.37,1398.54C1870.48,1398.1 1870.54,1397.55 1870.56,1397.35ZM1892.22,1338.18C1891.52,1338.12 1890.52,1338.04 1889.49,1338.04C1880.14,1338.04 1873.72,1344.89 1869.75,1358.09C1869.72,1360.3 1869.46,1363.74 1868.94,1368.41L1868.94,1377.92C1869.47,1384.06 1871.27,1389.96 1874.34,1395.59L1874.38,1395.66C1874.67,1396.24 1874.85,1397.2 1874.62,1398.57C1874.3,1400.44 1873.17,1403.58 1871.18,1407.96C1868.94,1412.89 1867.43,1416.74 1867.31,1417.05C1867.3,1417.12 1867.29,1417.18 1867.27,1417.25C1866.21,1422.06 1865.14,1428.99 1864.08,1438.07C1864.05,1438.28 1863.99,1438.48 1863.9,1438.68C1857.92,1451.98 1851.68,1461.26 1845.29,1466.59C1840.73,1470.39 1836.04,1472.24 1831.28,1472.24C1825.99,1472.24 1821.48,1471.03 1817.76,1468.66C1813.46,1479.74 1806.05,1485.18 1795.71,1485.18C1793.48,1485.18 1791.59,1485 1790.03,1484.66C1787.1,1488.24 1783.74,1490.8 1779.95,1492.34C1782.64,1492.41 1784.55,1493.27 1785.76,1494.66C1787.03,1496.11 1787.63,1498.24 1787.27,1501.13C1784.7,1522.75 1788.25,1537.51 1798.53,1545.26L1798.54,1545.27C1800.79,1546.79 1801.84,1548.73 1801.84,1551.01C1801.84,1554.06 1801.05,1556.32 1799.69,1557.85C1798.26,1559.46 1796.15,1560.37 1793.29,1560.37C1791.12,1560.37 1789.31,1559.64 1787.86,1558.22C1776.14,1548.7 1770.18,1534.19 1770.18,1514.62C1770.18,1506.06 1771.2,1500.08 1773.05,1496.66C1773.77,1495.34 1774.6,1494.33 1775.55,1493.62C1773.98,1493.92 1772.35,1494.07 1770.65,1494.07C1758.6,1494.07 1749.9,1488.66 1744.58,1477.8C1740.82,1479.52 1737.91,1480.33 1735.89,1480.33C1727.68,1480.33 1720.64,1475.98 1714.93,1467.04C1709.57,1458.65 1705.33,1446.08 1702.31,1429.3C1702.3,1429.26 1702.29,1429.23 1702.29,1429.19C1701.93,1426.29 1702.53,1424.15 1703.8,1422.71C1705.07,1421.25 1707.11,1420.38 1710.02,1420.38C1711.5,1420.38 1713.12,1421.18 1714.6,1423.19C1716.96,1426.37 1719.39,1433.23 1721.75,1443.84C1723.29,1450.76 1725.3,1455.96 1727.86,1459.42C1730.1,1462.45 1732.75,1464.04 1735.89,1464.04C1739.15,1464.04 1741.08,1463.44 1741.08,1461.27C1741.08,1451.12 1740.01,1439.1 1737.87,1425.2L1737.86,1425.15C1735.84,1409.51 1733.67,1399.43 1731.18,1394.95C1728.49,1393.68 1726.02,1393.02 1723.76,1393.02C1713.15,1393.02 1705.43,1402.18 1699.88,1419.85L1699.87,1419.89C1695.63,1432.59 1693.5,1444.77 1693.5,1456.42C1693.5,1479.9 1697.78,1503.65 1706.32,1527.67L1706.33,1527.7C1713.62,1549.06 1720.74,1562.23 1728.03,1566.98C1730.92,1568.47 1732.31,1570.71 1732.31,1573.64L1732.31,1628.93C1744.76,1634.9 1759.7,1637.85 1777.12,1637.85C1793.27,1637.85 1811.7,1634.79 1832.43,1628.68L1832.43,1560.71C1832.43,1557.01 1833.8,1554.88 1835.93,1554.01C1842.19,1549.29 1848.19,1543.53 1853.94,1536.73C1867.77,1519.7 1878.67,1498.95 1886.66,1474.49L1901.15,1398.02L1901.15,1398.02C1901.09,1393.92 1899.1,1388.12 1895.31,1380.55C1891.07,1372.07 1889.03,1365.54 1889.03,1361.02C1889.03,1357.67 1889.57,1353.35 1890.69,1348.06C1891.55,1343.96 1892.07,1340.67 1892.22,1338.18ZM1796.08,1548.63C1784.83,1540.2 1780.32,1524.25 1783.13,1500.63L1783.13,1500.62C1783.31,1499.2 1783.24,1498.11 1782.62,1497.4C1782.01,1496.7 1780.95,1496.5 1779.54,1496.5C1777.89,1496.5 1776.87,1497.88 1776.05,1500.17C1774.89,1503.38 1774.35,1508.2 1774.35,1514.62C1774.35,1532.74 1779.68,1546.25 1790.56,1555.05C1790.61,1555.09 1790.67,1555.14 1790.72,1555.19C1791.4,1555.88 1792.26,1556.2 1793.29,1556.2C1794.73,1556.2 1795.86,1555.89 1796.58,1555.08C1797.38,1554.18 1797.67,1552.8 1797.67,1551.01C1797.67,1550.06 1797.12,1549.33 1796.17,1548.7C1796.14,1548.68 1796.11,1548.65 1796.08,1548.63ZM1782.05,1475.41C1778.89,1479.83 1775.06,1481.94 1770.65,1481.94C1766.32,1481.94 1762.23,1479.74 1758.51,1475.1C1754.95,1470.64 1753.21,1466.02 1753.21,1461.27C1753.21,1428.85 1749.03,1404.92 1740.53,1389.51C1740.21,1388.93 1740.18,1388.24 1740.46,1387.64C1744.17,1379.55 1747.82,1373.91 1751.32,1370.68C1754.03,1368.18 1756.73,1367.02 1759.33,1367.02C1766.21,1367.02 1770.86,1369.9 1773.36,1375.53C1773.47,1375.77 1773.53,1376.03 1773.54,1376.3L1775.97,1436.12L1775.97,1436.15C1776.49,1454.51 1778.48,1466.86 1782.15,1473.15C1782.56,1473.86 1782.52,1474.75 1782.05,1475.41ZM1777.88,1474C1774.41,1467.05 1772.32,1454.49 1771.8,1436.28L1769.39,1376.88C1767.54,1373.04 1764.16,1371.19 1759.33,1371.19C1757.62,1371.19 1755.92,1372.1 1754.15,1373.74C1751.06,1376.59 1747.93,1381.5 1744.68,1388.43C1753.09,1404.31 1757.37,1428.58 1757.37,1461.27C1757.37,1465.14 1758.87,1468.87 1761.77,1472.5C1764.52,1475.94 1767.44,1477.78 1770.65,1477.78C1773.43,1477.78 1775.81,1476.48 1777.88,1474Z"/>
    </g>
    <g transform="matrix(1.15921,0,0,1.15921,-455.088,-1291.91)">
        <g>
            <g transform="matrix(1.29908,0,0,1.41351,-510.145,-408.921)">
                <path d="M1116.72,2315.25L1247.24,2315.25L1222.8,1225.75L1141.16,1225.75L1116.72,2315.25Z" style="stroke:white;stroke-width:7.94px;"/>
            </g>
            <g transform="matrix(1.22515,0,0,1.15106,-228.868,-183.664)">
                <path d="M980.436,1309.54L1067,1309.54L1023.77,1160.93L980.436,1309.54Z" style="stroke:white;stroke-width:9.07px;"/>
            </g>
            <g transform="matrix(1.35841,0,0,0.919449,-336.348,251.1)">
                <path d="M940.053,2841.59L891.224,2769.45L937.235,1127.94L963.373,1166.56L940.053,2841.59Z" style="stroke:white;stroke-width:9.3px;"/>
            </g>
            <g transform="matrix(1.26254,0,0,1.19574,-245.368,-245.308)">
                <path d="M964.469,1312.15L936.324,1282.44L1006.52,1169.1L964.469,1312.15Z" style="stroke:white;stroke-width:8.77px;"/>
            </g>
            <g transform="matrix(0.676952,0,0,0.734455,330.132,406.062)">
                <rect x="995.382" y="1220.2" width="22.203" height="4.265" style="stroke:white;stroke-width:5.09px;"/>
            </g>
            <g transform="matrix(0.670224,0,0,0.73576,365.043,404.526)">
                <rect x="995.382" y="1220.2" width="22.203" height="4.265" style="stroke:white;stroke-width:5.11px;"/>
            </g>
        </g>
    </g>
    <g transform="matrix(0.962257,0.0353886,-0.0353886,0.962257,315.24,1179.38)">
        <g transform="matrix(1,0,0,1,-300,-588.105)">
            <g transform="matrix(1.43936,0.292265,-0.292265,1.43936,51.9154,9.85638)">
                <g id="Layer_1">
                    <path d="M368.7,1.858C361.1,4.958 359.1,6.758 357.9,11.258C357.3,13.458 355.5,17.458 353.9,20.058C352.3,22.758 350.1,27.658 349,30.958C345.7,40.758 335.252,55.102 328.468,67.252C322.368,78.179 305.565,100.169 298.518,111.389C293.863,118.802 291.513,127.979 286.188,134.575C272.168,151.941 269.519,149.694 262.871,158.508C256.223,167.322 249.752,187.13 246.3,187.458C242.799,187.791 241.6,167.202 241.665,161.581C241.7,158.476 244.51,155.951 246.685,153.734C249.303,151.066 255.711,148.764 257.372,145.571C259.016,142.411 250.309,130.992 248.946,126.682C247.915,123.425 254.417,122.39 251.581,120.174C249.227,118.334 240.886,116.347 238.013,107.94C237.219,105.616 236.54,100.808 235.664,99.495C234.569,97.854 240.976,96.129 239.575,94.816C234.814,90.352 217.478,75.354 205.829,74.131C194.18,72.908 178.213,80.137 169.681,87.48C161.148,94.824 155.564,108.097 154.635,118.193C153.706,128.288 162.323,148.639 164.107,148.052C171.105,145.751 171.384,137.677 169.749,142.168C165.377,154.177 157.83,179.062 160.996,197.447C164.514,217.874 182.829,266.161 190.857,264.728C188.214,243.129 191.752,244.831 190.73,234.962C189.424,222.361 185.576,194.096 183.022,189.117C180.794,184.772 178.093,163.178 179.203,160.045C180.19,157.283 187.789,171.623 194.972,174.475C201.327,176.999 197.961,192.709 197.961,193.909C197.961,195.009 183.858,203.336 176.787,207.918C169.747,212.481 165.201,212.2 155.535,221.401C143.759,232.611 145.639,243.134 143.123,244.29C130.056,250.295 129.421,269.04 127.8,262.612C125.815,254.745 117.529,247.26 94.717,214.306C86.319,202.174 87.689,192.597 88.607,189.089C90.753,180.896 89.91,170.046 93.163,163.409C99.834,149.799 106.52,150.409 106.384,148.103C106.248,145.798 96.212,146.896 92.344,149.577C88.128,152.499 81.92,168.121 81.088,165.635C78.612,158.239 73.767,137.695 73.124,130.098C72.656,124.57 70.643,118.992 67.7,119.659C64.668,120.346 65.44,127.664 66.072,130.982C67.047,136.105 68.252,153.819 67.619,154.158C66.365,154.831 62.856,144.777 59.522,146.098C55.902,147.532 58.836,152.868 58.057,154.651C57.943,154.911 57.132,150.163 51.442,152.881C46.287,155.343 55.557,173.717 53.294,173.125C51.86,172.763 41.572,160.01 37.732,157.019C35.708,155.442 33.038,151.686 30.256,155.18C29.404,156.25 34.106,162.206 36.601,165.314C50.084,182.115 46.524,185.307 58.261,197.125C60.283,199.161 68.493,207.535 76.21,232.062C80.375,245.296 86.617,259.187 96.179,272.155C102.068,280.141 117.34,310.988 130.596,311.987C149.139,313.384 161.62,271.606 162.037,270.817C159.582,272.398 179.081,295.336 183.764,322.405C184.122,324.471 184.356,330.729 181.856,330.729C179.556,330.729 170.682,355.122 171.974,355.949C176.576,358.896 168.495,371.832 164.949,392.212C160.542,417.546 177.715,437.963 198.429,448.67C217.384,458.469 218.904,486.666 230.378,504.143C241.656,521.321 269.638,542.654 267.273,553.534C264.875,564.565 254.175,583.223 251.699,598.591C249.223,613.959 252.577,637.999 252.415,645.742C252.265,652.952 250.074,661.406 248.48,666.108C247.447,669.156 247.422,670.064 242.851,673.953C237.429,678.567 242.553,685.157 245.629,689.022C251.188,696.006 273.396,702.349 278.8,712.259C281.598,717.391 282.083,720.437 288.164,724.352C291.155,726.277 297.343,727.98 297.897,724.426C298.599,719.915 298.71,713.245 292.371,700.56C290.09,695.923 287.982,690.451 287.705,688.458C287.348,686.515 285.684,681.896 283.957,678.248C280.277,670.371 276.758,660.688 278.062,655.716C279.786,648.718 300.176,572.301 302.731,568.285C308.336,559.522 308.229,544.15 306.847,536.037C304.634,522.986 293.648,489.528 287.072,471.414C281.583,456.294 267.329,433.092 267.39,427.353C283.078,418.058 300.073,410.274 313.631,398.065C327.969,385.155 353.417,349.888 353.417,349.888C353.417,349.888 354.765,385.855 360.054,402.839C366.347,423.046 384.479,457.17 391.175,471.127C393.757,476.509 390.241,481.15 400.229,486.58C413.043,493.545 439.199,460.533 445.82,456.069C452.629,451.478 464.835,442.569 464.169,435.91C463.67,430.927 461.236,423.402 456.483,426.918C450.838,431.093 449.577,436.32 445.385,439.123C441.287,441.864 434.757,444.003 431.332,443.736C419.427,442.81 408.939,445.263 404.393,437.22C398.1,426.087 398.006,416.093 393.575,376.937C391.989,362.925 381.684,321.727 374.789,308.706C370.943,301.443 360.213,296.956 352.206,298.812C341.185,301.366 321.465,315.225 308.663,324.032C296.788,332.202 275.396,351.656 275.396,351.656C275.396,351.656 287.516,358.913 284.658,354.908C279.339,347.455 270.083,336.929 265.408,340.598C261.599,343.587 261.707,346.154 260.865,348.08C258.952,352.456 268.527,327.307 271.395,316.63C274.6,304.704 277.493,286.493 280.09,276.522C281.844,269.786 287.057,259.114 286.973,256.806C286.834,253.031 282.111,242.997 281.525,235.781C280.923,228.367 283.732,217.905 283.36,212.326C282.806,204.013 284.211,200.214 286.682,194.809C291.026,185.307 302.251,165.206 309.421,155.316C314.974,147.657 327.106,140.53 329.704,135.467C339.94,115.522 348.219,83.784 352.44,75.524C355.147,70.227 360.4,61.558 361,59.258C361.5,56.958 363,53.958 364.2,52.558C367.6,48.758 370,45.258 374.7,37.558L382.534,26.543C382.534,26.543 377.924,1.301 377.324,0.601C376.124,-0.999 374.5,-0.442 368.7,1.858M272.14,347.589C275.443,349.468 275.516,351.823 275.781,354.39C276.023,357.404 273.151,357.579 271.402,357.62C269.653,357.661 268.89,353.91 269.257,351.242C269.671,347.681 270.575,346.7 272.14,347.589" style="fill-rule:nonzero;"/>
                </g>
            </g>
        </g>
    </g>
    <g transform="matrix(1,0,0,1,-276.595,495.573)">
        <g transform="matrix(416.667,0,0,416.667,1137.63,1497.64)">
            <path d="M0.421,-0.26C0.421,-0.239 0.419,-0.218 0.415,-0.198C0.411,-0.178 0.404,-0.16 0.395,-0.145C0.386,-0.129 0.373,-0.116 0.358,-0.107C0.342,-0.098 0.322,-0.093 0.299,-0.093C0.277,-0.093 0.258,-0.098 0.243,-0.108C0.227,-0.117 0.214,-0.13 0.204,-0.146C0.193,-0.161 0.186,-0.179 0.181,-0.199C0.176,-0.219 0.174,-0.239 0.174,-0.259C0.174,-0.28 0.176,-0.301 0.181,-0.321C0.185,-0.34 0.192,-0.358 0.202,-0.373C0.211,-0.388 0.224,-0.401 0.24,-0.41C0.256,-0.419 0.276,-0.424 0.299,-0.424C0.322,-0.424 0.342,-0.419 0.357,-0.41C0.372,-0.401 0.385,-0.389 0.395,-0.374C0.404,-0.359 0.411,-0.341 0.415,-0.322C0.419,-0.302 0.421,-0.281 0.421,-0.26ZM0.423,-0.066L0.423,-0L0.558,-0L0.558,-0.714L0.416,-0.714L0.416,-0.454L0.414,-0.454C0.398,-0.479 0.376,-0.499 0.349,-0.512C0.321,-0.525 0.292,-0.531 0.261,-0.531C0.223,-0.531 0.19,-0.524 0.161,-0.509C0.132,-0.494 0.109,-0.474 0.09,-0.449C0.07,-0.424 0.056,-0.396 0.047,-0.364C0.037,-0.331 0.032,-0.298 0.032,-0.263C0.032,-0.227 0.037,-0.192 0.047,-0.159C0.056,-0.126 0.07,-0.096 0.09,-0.071C0.109,-0.045 0.133,-0.024 0.162,-0.01C0.191,0.006 0.225,0.013 0.264,0.013C0.298,0.013 0.329,0.007 0.356,-0.006C0.383,-0.018 0.404,-0.038 0.421,-0.066L0.423,-0.066Z" style="fill-rule:nonzero;"/>
        </g>
        <g transform="matrix(416.667,0,0,416.667,1392.21,1497.64)">
            <path d="M0.406,-0.335L0.545,-0.335C0.543,-0.368 0.535,-0.397 0.521,-0.422C0.507,-0.446 0.489,-0.466 0.467,-0.483C0.444,-0.499 0.419,-0.511 0.391,-0.519C0.362,-0.527 0.333,-0.531 0.302,-0.531C0.26,-0.531 0.223,-0.524 0.19,-0.51C0.157,-0.496 0.13,-0.476 0.107,-0.452C0.084,-0.427 0.067,-0.397 0.056,-0.363C0.044,-0.328 0.038,-0.291 0.038,-0.251C0.038,-0.212 0.044,-0.177 0.057,-0.145C0.07,-0.112 0.087,-0.084 0.11,-0.061C0.133,-0.038 0.16,-0.02 0.193,-0.007C0.225,0.007 0.26,0.013 0.299,0.013C0.368,0.013 0.424,-0.005 0.468,-0.041C0.512,-0.077 0.539,-0.129 0.548,-0.198L0.411,-0.198C0.406,-0.166 0.395,-0.14 0.377,-0.122C0.358,-0.102 0.332,-0.093 0.298,-0.093C0.276,-0.093 0.257,-0.098 0.242,-0.108C0.227,-0.118 0.215,-0.131 0.206,-0.147C0.197,-0.162 0.19,-0.18 0.186,-0.199C0.182,-0.218 0.18,-0.237 0.18,-0.256C0.18,-0.275 0.182,-0.295 0.186,-0.315C0.19,-0.334 0.197,-0.352 0.207,-0.369C0.216,-0.385 0.229,-0.398 0.244,-0.409C0.259,-0.419 0.278,-0.424 0.301,-0.424C0.362,-0.424 0.397,-0.394 0.406,-0.335Z" style="fill-rule:nonzero;"/>
        </g>
    </g>
</svg>
