<svg xmlns="http://www.w3.org/2000/svg" xml:space="preserve" fill="currentColor" style="fill-rule:evenodd;clip-rule:evenodd;stroke-linejoin:round;stroke-miterlimit:2" viewBox="0 0 2100 2100">
  <path d="M1262.84 1612.8h42.867c-.616-36.295-3.084-67.689-7.401-94.184-4.318-26.495-9.92-48.635-16.808-66.419-6.887-17.785-14.7-31.032-23.438-39.743-8.738-8.71-17.835-13.066-27.293-13.066-12.953 0-24.466 7.622-34.54 22.866-10.075 15.243-18.607 36.476-25.597 63.697-6.991 27.221-12.285 59.523-15.883 96.906-3.598 37.383-5.397 77.852-5.397 121.405 0 42.102 1.954 80.755 5.86 115.961 3.906 35.206 9.355 65.512 16.345 90.918 6.99 25.406 15.471 45.186 25.443 59.341 9.971 14.155 20.919 21.233 32.844 21.233 21.176 0 38.549-19.599 52.119-58.798 13.569-39.198 21.793-96.18 24.672-170.947h-42.251c-1.439 34.843-4.985 62.608-10.639 83.296-5.654 20.688-13.724 31.032-24.209 31.032-6.785 0-12.542-5.444-17.271-16.332-4.728-10.889-8.481-24.862-11.256-41.921-2.776-17.058-4.78-36.113-6.014-57.163-1.233-21.051-1.85-41.739-1.85-62.064 0-21.051.617-42.283 1.85-63.697 1.234-21.414 3.341-41.013 6.322-58.797s6.836-32.302 11.565-43.553c4.729-11.252 10.588-16.877 17.579-16.877 18.709 0 29.503 32.302 32.381 96.906Zm69.69-412.67h43.792v777.428h-43.792zm123.36 127.4v-127.394h-43.792v127.394h43.792Zm-43.792 87.107v562.928h43.792v-562.928h-43.792Zm79.572.003v562.928h43.793v-326.651c0-27.584 1.131-49.905 3.392-66.963 2.262-17.059 4.986-30.125 8.173-39.198 3.186-9.074 6.476-15.244 9.868-18.51 3.393-3.267 6.117-4.9 8.173-4.9 6.99 0 12.284 4.174 15.882 12.521 3.598 8.348 6.168 19.418 7.71 33.21 1.542 13.792 2.416 28.854 2.621 45.187.206 16.332.309 32.846.309 49.542v315.762h43.792v-313.585c0-17.421.36-34.661 1.08-51.719.719-17.059 2.158-32.303 4.317-45.732 2.159-13.429 5.14-24.317 8.944-32.665 3.803-8.347 8.789-12.521 14.957-12.521 6.168 0 11.051 3.629 14.649 10.888 3.598 7.259 6.322 17.059 8.172 29.399 1.851 12.34 2.981 26.858 3.392 43.553.412 16.696.617 34.48.617 53.353v319.029h43.793v-376.737c0-36.295-1.44-67.327-4.318-93.096-2.878-25.769-6.887-46.638-12.027-62.608-5.14-15.969-11.308-27.584-18.504-34.842-7.196-7.259-15.009-10.889-23.438-10.889-11.103 0-20.714 9.437-28.835 28.31-8.122 18.873-14.546 40.65-19.275 65.33-4.318-34.843-10.64-59.16-18.967-72.952-8.326-13.792-17.527-20.688-27.601-20.688-10.486 0-19.789 7.985-27.91 23.955-8.121 15.969-15.06 38.472-20.817 67.507h-.616v-76.218h-41.326Zm395.05 282c0 23.229-.719 45.731-2.159 67.508-1.439 21.777-3.7 41.013-6.784 57.708-3.084 16.696-6.939 29.943-11.565 39.743-4.626 9.799-10.229 14.699-16.808 14.699-6.373 0-11.924-4.9-16.653-14.699-4.729-9.8-8.635-23.047-11.719-39.743-3.084-16.695-5.346-35.931-6.785-57.708s-2.159-44.279-2.159-67.508c0-23.954.72-46.82 2.159-68.596 1.439-21.777 3.701-41.013 6.785-57.709 3.084-16.695 6.99-29.943 11.719-39.742 4.729-9.8 10.28-14.699 16.653-14.699 6.579 0 12.182 4.899 16.808 14.699 4.626 9.799 8.481 23.047 11.565 39.742 3.084 16.696 5.345 35.932 6.784 57.709 1.44 21.776 2.159 44.642 2.159 68.596Zm-116.882-496.509v777.429h41.633v-71.863h.617c4.729 31.213 11.719 53.353 20.971 66.419 9.252 13.066 19.738 19.599 31.457 19.599 8.018 0 15.933-5.808 23.746-17.422 7.813-11.614 14.855-29.398 21.125-53.353 6.271-23.954 11.36-54.623 15.266-92.006 3.906-37.384 5.859-81.844 5.859-133.383 0-51.538-1.953-95.999-5.859-133.382-3.906-37.383-8.995-68.052-15.266-92.006-6.27-23.955-13.312-41.739-21.125-53.353-7.813-11.615-15.728-17.422-23.746-17.422-9.869 0-19.378 6.715-28.527 20.144-9.149 13.429-16.396 34.661-21.742 63.697h-.617v-283.098h-43.792Z" style="fill-rule:nonzero" transform="matrix(1.35108 0 0 .38267 -682.825 375.209)"/>
  <path d="M1294.99 1869.85c0 92.958-2.435 164.788-7.306 215.492-4.121 45.07-10.866 80.281-20.232 105.633v143.662c0 7.042-.937 11.971-2.81 14.788-13.114 21.127-28.288 31.69-45.523 31.69-14.987 0-28.101-10.563-39.341-31.69-1.124-1.408-1.686-6.338-1.686-14.788v-150c-5.62-18.309-10.865-57.746-15.736-118.309-4.871-66.197-7.306-131.689-7.306-196.478 0-61.971.374-100.703 1.124-116.196 2.248-53.521 7.868-80.282 16.86-80.282-.749-30.985 1.686-57.042 7.306-78.168 5.995-16.902 12.739-23.24 20.232-19.014 3.373-43.662 11.053-65.493 23.043-65.493 5.62 0 10.397 7.747 14.331 23.24 3.934 15.492 6.276 34.506 7.025 57.041l-5.62-236.618c-2.623-102.816 3.185-154.225 17.422-154.225 13.114 0 20.982 52.817 23.605 158.45l7.306 289.435c4.871 53.521 7.306 127.465 7.306 221.83Zm-8.43 50.704v-50.704c0-97.182-2.248-168.309-6.744-213.379l-7.306-293.66c-1.124-42.254-2.248-71.127-3.372-86.62-2.623-29.577-6.744-44.366-12.365-44.366-6.744 0-10.116 24.648-10.116 73.944 0 12.676.188 27.464.562 44.366l6.744 268.308c0 11.268-1.311 16.901-3.934 16.901l6.182 59.155c1.499 14.085 0 21.127-4.496 21.127-1.498 0-2.622-2.817-3.372-8.451l-11.802-118.309c-2.997-30.986-7.306-46.479-12.926-46.479-9.742 0-14.987 18.31-15.736 54.929 1.498 23.944 3.934 62.676 7.306 116.197l2.248 31.69c2.622 2.817 7.119 10.563 13.488 23.239h4.496l-2.248-86.619c-.375-11.267.749-16.901 3.372-16.901 2.248 0 3.559 4.929 3.934 14.788l2.81 92.958c4.122 0 8.43 3.521 12.926 10.563 9.367 15.493 19.483 61.267 30.349 137.323Zm-77.557-177.464c0-1.408-.562-8.45-1.686-21.126-2.998-36.62-5.246-73.944-6.745-111.972-5.245-7.042-10.209-3.873-14.893 9.507-4.683 13.381-6.088 33.451-4.215 60.211 1.124 1.409 1.874 4.226 2.248 8.451l14.05 118.309c.75-32.394 4.496-53.521 11.241-63.38Zm5.058 160.563c-.75-2.817-1.78-5.986-3.091-9.507-1.312-3.521-2.717-8.099-4.215-13.732.374 5.633 1.686 12.676 3.934 21.126.749 1.409 1.873 2.113 3.372 2.113Zm-16.299-16.901-21.356-181.69c-2.623 0-4.683.705-6.182 2.113-3.747 1.409-5.995 26.056-6.744 73.943v2.113l.562 2.113c9.741 76.056 18.359 114.084 25.852 114.084 2.998 0 5.62-4.226 7.868-12.676Zm87.112 109.858c-1.499-15.493-3.747-38.028-6.744-67.605-4.871-33.803-13.301-73.239-25.291-118.309-3.746-4.226-7.868-7.747-12.364-10.564h-6.182c-2.997-1.408-5.058-2.112-6.182-2.112-5.995-16.902-11.615-25.352-16.86-25.352-3.372 7.042-5.058 21.831-5.058 44.366 0 9.859 2.06 22.887 6.182 39.084 4.121 16.197 8.523 28.169 13.207 35.915 4.683 7.747 8.898 11.62 12.645 11.62 1.873 0 2.997 2.113 3.372 6.338 2.248 12.676 6.37 30.986 12.364 54.929 1.124 2.817 1.686 7.042 1.686 12.676 0 11.268-1.498 16.902-4.496 16.902-2.997 0-7.868-19.014-14.612-57.042-8.243 30.985-12.364 61.267-12.364 90.844 0 36.62 2.061 63.38 6.182 80.281 1.124 4.226 1.686 8.451 1.686 12.676 0 11.268-1.499 16.902-4.496 16.902-1.124 0-2.061-1.409-2.81-4.226-5.995-21.126-8.992-56.337-8.992-105.633 0-30.986 3.746-64.084 11.24-99.295l-5.058-6.338c-2.623 7.042-4.871 10.563-6.744 10.563-5.246 0-9.554-6.338-12.927-19.014-3.372 11.268-7.493 16.902-12.364 16.902-7.493 0-16.298-30.282-26.414-90.845v29.577c0 63.38 2.248 125 6.744 184.859 4.496 59.858 9.179 96.126 14.05 108.802 1.499 2.817 2.248 7.042 2.248 12.676v147.886c8.992 16.902 19.858 25.352 32.597 25.352 11.615 0 24.916-8.45 39.902-25.352v-139.436c0-7.042.562-11.267 1.687-12.676 13.113-32.394 21.169-90.844 24.166-175.351Zm195.576-35.92c0 22.535-2.997 57.746-8.992 105.633-5.245 40.845-9.554 69.718-12.926 86.619-2.248 11.268-7.494 23.944-15.736 38.028v143.662c0 7.042-.937 11.971-2.81 14.788-13.114 21.127-28.288 31.69-45.523 31.69-14.987 0-28.101-10.563-39.341-31.69-1.124-1.408-1.686-6.338-1.686-14.788v-150c-5.245-18.309-10.116-59.154-14.612-122.534s-6.744-127.464-6.744-192.253c0-25.352 1.03-60.915 3.091-106.689 2.06-45.775 4.215-75.704 6.463-89.789 2.997-21.126 7.493-33.802 13.488-38.028 1.124-64.788 8.805-97.182 23.043-97.182 4.496 0 8.804 5.634 12.926 16.901 4.496-35.211 12.551-52.816 24.166-52.816 9.367 0 15.736 12.676 19.108 38.028 3.373-4.226 7.681-6.338 12.927-6.338 7.493 0 13.769 17.957 18.827 53.872 5.058 35.916 7.587 74.296 7.587 115.141 0 54.929-2.623 93.661-7.868 116.196l-1.124 19.014c10.491 36.62 15.736 77.465 15.736 122.535Zm-15.174-257.745c0-33.803-1.592-65.141-4.777-94.014-3.185-28.873-7.587-43.31-13.207-43.31-2.998 0-5.995 1.409-8.992 4.226 5.245 43.662 8.43 81.69 9.554 114.084 1.124 36.619.749 66.901-1.124 90.844 0 18.31 3.559 27.465 10.678 27.465 5.245 0 7.868-33.098 7.868-99.295Zm-25.29-14.789c-5.995-102.816-14.238-154.224-24.729-154.224-8.617 0-14.612 15.492-17.984 46.478 4.871 21.127 11.615 57.746 20.232 109.859 2.998 23.943 4.871 54.225 5.62 90.844 1.874 7.043 4.871 10.564 8.992 10.564 6.37 0 9.555-19.014 9.555-57.042 0-14.085-.562-29.578-1.686-46.479Zm-24.729 107.746c0-33.803-1.873-64.788-5.62-92.957-13.488-88.732-23.979-133.098-31.472-133.098-8.993 0-14.051 21.126-15.175 63.38 7.119 5.634 15.175 28.169 24.167 67.605 7.118 30.986 12.177 64.788 15.174 101.408 2.248 5.634 5.058 8.451 8.43 8.451 2.997 0 4.496-4.93 4.496-14.789Zm56.763 164.788c0-30.986-3.185-60.563-9.554-88.732-5.62-23.944-10.959-37.324-16.017-40.141s-9.461-4.225-13.208-4.225c-7.118 0-11.989 4.225-14.612 12.676-.749 2.817-2.06 4.225-3.934 4.225-13.113-2.817-19.67 8.451-19.67 33.803 0 35.211 12.739 52.817 38.216 52.817 5.246 0 9.555-.705 12.927-2.113 2.997-1.409 4.496 3.521 4.496 14.789 0 8.45-1.124 13.38-3.372 14.788-8.992 7.042-19.858 6.338-32.597-2.112-7.119 19.718-10.678 45.774-10.678 78.168 0 26.761 1.686 52.113 5.058 76.056.375 2.817.562 5.634.562 8.451 0 9.859-1.311 14.788-3.934 14.788-1.499 0-2.623-2.112-3.372-6.338-4.496-26.76-6.744-57.746-6.744-92.957 0-33.802 3.185-62.676 9.554-86.619-12.364-14.085-18.546-37.324-18.546-69.718v-8.451c-4.496-1.408-11.615-17.605-21.357-48.591-8.617-26.76-13.113-43.662-13.488-50.704-1.124-15.493-.187-23.239 2.81-23.239 1.499 0 3.185 3.521 5.058 10.563 14.238 53.521 23.417 80.281 27.539 80.281 5.245 0 7.868-5.633 7.868-16.901 0-25.352-4.777-58.098-14.331-98.239-9.555-40.141-16.018-60.211-19.39-60.211-5.245 0-9.367 9.155-12.364 27.465-2.248 12.676-4.215 39.788-5.901 81.337-1.686 41.549-2.529 74.296-2.529 98.239 0 64.789 1.967 127.112 5.901 186.971 3.934 59.859 8.336 95.422 13.207 106.69 1.499 2.817 2.248 7.042 2.248 12.676v147.886c8.992 16.902 19.858 25.352 32.597 25.352 11.615 0 24.916-8.45 39.902-25.352v-143.661c0-8.451.75-13.38 2.249-14.789 7.118-8.45 12.27-19.718 15.455-33.802 3.185-14.085 7.025-39.437 11.521-76.056 5.62-42.253 8.43-73.943 8.43-95.07Zm205.7-240.84-10.117 204.929c-8.617 99.999-20.981 174.647-37.092 223.942v185.915c0 7.042-.937 11.971-2.81 14.788-13.114 21.127-28.288 31.69-45.523 31.69-14.987 0-28.1-10.563-39.341-31.69-1.124-1.408-1.686-6.338-1.686-14.788v-150c-5.994-18.309-11.802-57.746-17.422-118.309-6.369-67.605-9.554-133.098-9.554-196.478 0-33.802 2.435-72.535 7.306-116.196 6.369-57.746 14.238-86.62 23.604-86.62 1.499 0 3.747 1.409 6.744 4.226 5.246-42.254 11.241-61.972 17.985-59.155 4.496 0 8.43 4.225 11.802 12.676 4.496-29.577 10.678-44.366 18.546-44.366 7.119 0 12.927 9.859 17.423 29.577 2.622-12.676 6.931-19.014 12.926-19.014 1.873 0 4.309 1.409 7.306 4.226 5.245-47.887 12.739-71.831 22.48-71.831 2.998 0 5.714 3.521 8.149 10.564 2.436 7.042 3.654 14.788 3.654 23.239 0 7.042-.375 17.253-1.124 30.633-.75 13.381-1.124 24.296-1.124 32.747 0 11.267 1.311 27.464 3.934 48.591 2.622 21.127 3.934 38.028 3.934 50.704Zm-37.655 0c-1.873-18.31-2.997-35.211-3.372-50.704-.749-9.859-.749-23.943 0-42.253-2.248-2.817-4.309-4.226-6.182-4.226-4.496 0-7.494 7.043-8.992 21.127-3.372 32.394-5.808 73.239-7.306 122.535-.75 22.535-1.686 53.521-2.81 92.957 3.372 9.859 6.182 14.789 8.43 14.789 4.496 0 8.992-20.423 13.488-61.268.375-11.267 1.124-28.873 2.248-52.816.749-12.676 2.248-26.057 4.496-40.141Zm-27.538-76.056c-2.248-21.127-6.37-31.69-12.365-31.69-5.245 0-9.929 16.197-14.05 48.591l2.248 156.338v50.704c0 15.493.656 26.056 1.967 31.69 1.312 5.633 2.904 8.45 4.777 8.45 5.246 0 8.43-11.971 9.554-35.915 0-100 2.623-176.055 7.869-228.168Zm-28.101 272.534c-2.623-16.901-4.121-50-4.496-99.295l-1.686-156.338c-1.499-12.676-4.309-19.014-8.43-19.014-3.747 0-7.681 16.902-11.802 50.704 5.994 40.845 8.992 104.225 8.992 190.14 0 11.268 1.124 22.183 3.372 32.747 2.248 10.563 4.683 15.845 7.306 15.845s4.871-4.93 6.744-14.789Zm85.426-198.591c0-11.267-1.406-27.464-4.216-48.591-2.81-21.127-4.215-37.324-4.215-48.591 0-8.451.375-19.366 1.124-32.747.75-13.38 1.124-23.591 1.124-30.633 0-1.409-1.124-2.113-3.372-2.113-7.118 0-12.177 19.014-15.174 57.042 0 5.634-.187 14.789-.562 27.465v25.352c.375 16.901 1.686 33.098 3.934 48.591.375 2.817-.375 11.972-2.248 27.465-1.873 15.493-2.81 23.943-2.81 25.352-.749 12.676-1.499 30.985-2.248 54.929-6.744 56.338-13.863 84.507-21.356 84.507-4.122 0-7.494-4.226-10.117-12.676-2.622 30.985-7.493 46.478-14.612 46.478-1.873 0-3.372-.704-4.496-2.112-3.372 16.901-7.681 25.352-12.926 25.352-8.243 0-14.05-14.789-17.422-44.366-2.998 5.633-5.246 8.45-6.744 8.45-10.491 0-17.797-42.957-21.919-128.872-.375-11.268.937-16.902 3.934-16.902 2.248 0 4.496 19.014 6.744 57.042 2.248 38.028 5.995 57.042 11.241 57.042 3.372 0 5.058-4.225 5.058-12.676 0-26.76-.75-58.45-2.248-95.07-1.499-43.661-3.185-71.126-5.059-82.394-2.248-4.225-4.308-6.338-6.182-6.338-7.868 0-13.863 24.648-17.984 73.944-2.997 33.802-4.496 66.197-4.496 97.182 0 61.972 2.997 124.648 8.992 188.028 5.246 57.746 10.491 92.957 15.736 105.633 1.499 2.817 2.248 7.042 2.248 12.676v147.886c8.993 16.902 19.858 25.352 32.597 25.352 11.615 0 24.916-8.45 39.903-25.352v-181.689c0-7.042.562-11.267 1.686-12.676 4.496-12.676 8.805-28.169 12.926-46.478 9.741-45.071 17.422-100 23.042-164.788l10.117-200.704Zm-73.624 388.731c1.124 2.817 1.686 6.338 1.686 10.563 0 12.676-1.498 19.014-4.496 19.014-1.124 0-2.06-1.408-2.81-4.225-7.868-23.944-11.802-60.563-11.802-109.859 0-35.211 1.686-52.816 5.058-52.816 2.997 0 4.309 5.633 3.934 16.901-1.873 59.155.937 99.295 8.43 120.422Zm278.192-274.648c0 22.535-4.121 83.098-12.364 181.69l-24.729 128.872c-1.873 5.634-5.058 13.38-9.554 23.239-1.873 1.409-3.934 3.522-6.182 6.338v162.676c0 7.042-.937 11.971-2.81 14.788-13.113 21.127-28.288 31.69-45.523 31.69-14.987 0-28.1-10.563-39.34-31.69-1.124-1.408-1.686-6.338-1.686-14.788v-150c-5.621-18.309-10.866-57.746-15.737-118.309-4.87-66.197-7.306-131.689-7.306-196.478 0-60.563 2.436-116.901 7.306-169.013l3.372-211.266c1.499-91.549 8.056-137.324 19.671-137.324 1.873 0 3.934 1.409 6.182 4.226v-54.93c0-32.394 1.78-59.859 5.339-82.394 3.559-22.535 8.149-33.802 13.769-33.802 4.496 0 8.243 4.225 11.24 12.676 3.372-38.028 9.18-57.042 17.423-57.042 5.994 0 10.678 9.155 14.05 27.464 3.372 18.31 5.058 39.437 5.058 63.38v261.971c3.372-4.225 6.369-6.338 8.992-6.338 7.494 0 13.957 13.732 19.389 41.197 5.433 27.464 8.15 58.802 8.15 94.013v52.817h.562c1.873 9.859 4.121 24.648 6.744 44.366.374 8.451.936 19.014 1.686 31.69 10.865 32.394 16.298 59.155 16.298 80.281Zm-33.721-162.675v-46.479c0-28.168-1.779-52.464-5.339-72.887-3.559-20.422-8.149-30.633-13.769-30.633-7.868 0-11.802 17.605-11.802 52.816 0 9.86.562 21.831 1.686 35.916 1.873 23.943 5.62 59.154 11.24 105.633 1.124-8.451 2.436-15.493 3.934-21.127 4.496-12.676 9.18-20.422 14.05-23.239Zm25.291 162.675c0-9.859-1.78-21.126-5.339-33.802-3.56-12.676-6.276-20.071-8.149-22.183-1.874-2.113-2.81-6.69-2.81-13.733 0-7.042-.375-18.309-1.124-33.802-.75-7.042-1.874-15.493-3.372-25.352-4.122-4.226-8.15 0-12.084 12.676-3.934 12.676-5.901 34.507-5.901 65.492 0 30.986 2.623 58.451 7.868 82.394.375 2.817.562 6.338.562 10.564a63.96 63.96 0 0 1-.562 8.45c-2.622 15.493-3.934 33.099-3.934 52.817 0 9.859.375 19.014 1.124 27.465 1.124 12.676-.187 19.014-3.934 19.014-1.873 0-3.184-3.522-3.934-10.564-2.623-30.986-2.248-59.859 1.124-86.619-11.615 9.859-21.169 30.986-28.662 63.38-7.494 32.394-11.24 64.084-11.24 95.07 0 7.042.187 14.084.562 21.127.749 12.676-.75 19.014-4.497 19.014-2.997 0-4.496-13.381-4.496-40.141 0-40.845 4.215-79.577 12.646-116.197 8.43-36.619 19.576-59.859 33.439-69.718-4.121-33.802-5.245-68.309-3.372-103.52-4.121-16.902-9.554-62.676-16.298-137.324-2.998-40.844-2.81-72.534.562-95.069v-289.436c0-39.436-3.56-59.154-10.678-59.154-7.119 0-10.679 22.535-10.679 67.605v371.829c0 11.268-1.498 16.901-4.496 16.901-2.622 0-3.934-5.633-3.934-16.901v-371.829c0-15.493-3.184-23.239-9.554-23.239-7.119 0-10.678 28.169-10.678 84.506v352.815c0 11.268-1.499 16.902-4.496 16.902-2.623 0-3.934-5.634-3.934-16.902v-240.843c0-19.719-2.061-29.578-6.182-29.578-6.744 0-10.678 35.211-11.802 105.634l-3.373 217.604c-4.496 43.662-6.744 97.887-6.744 162.675 0 63.38 2.248 125 6.744 184.859 4.497 59.858 9.18 96.126 14.051 108.802 1.498 2.817 2.248 7.042 2.248 12.676v147.886c8.992 16.902 19.857 25.352 32.596 25.352 11.615 0 24.916-8.45 39.903-25.352v-164.788c0-8.45 1.03-13.38 3.091-14.788 2.061-1.409 5.152-4.226 9.273-8.451 1.874-2.817 3.747-7.746 5.62-14.789l23.605-120.421c7.493-84.507 11.24-140.845 11.24-169.014Z" style="fill-rule:nonzero" transform="matrix(1.43851 0 0 .38267 -781.507 735.999)"/>
  <path d="M677.681 249.309h117.431l36.675 1778.427H641.738l35.943-1778.427Zm59.063-194.788 56.21 181.54H680.072l56.671-181.54Zm-10.621 161.477H708.7v5.29h17.423v-5.29Zm32.532 0h-17.25v5.363h17.25v-5.363ZM629.73 2022.238l-65.532-65.533 72.267-1741.193 29.17 30.179-35.905 1776.557ZM668.8 231.567l-30.536-31.157 77.224-118.4-46.687 149.557Z"/>
  <path d="M252.933 963.22c-.54-9.307-.642-17.751-.217-24.136 1.634-24.527 17.927-53.72 28.232-69.77a14.076 14.076 0 0 1-7.548 2.9c-2.647.215-7.733-30.624-3.103-44.193 4.631-13.57 16.716-29.962 30.886-37.223 14.168-7.26 38.519-11.894 54.126-6.343 15.608 5.55 34.458 31.926 39.52 39.644 1.49 2.27-7.891 2.514-6.93 5.134.767 2.095.104 8.93.423 12.39 1.157 12.51 11.963 18.013 14.588 21.324 3.163 3.988-6.12 3.251-5.784 8.071.442 6.378 8.619 24.968 5.309 28.766-3.344 3.837-12.918 4.873-17.403 7.671-3.726 2.325-8.428 4.863-9.507 9.12-1.957 7.706-7.148 36.407-2.224 37.112 4.854.696 20.33-24.384 32.396-34.292 12.067-9.909 14.962-5.94 40.004-25.156 9.51-7.298 15.79-19.133 24.651-27.778 13.415-13.083 43.818-37.73 55.833-50.726 13.362-14.449 32.49-30.697 40.281-43.073 2.609-4.17 7.26-10.176 10.357-13.356 3.063-3.043 6.866-7.944 8.422-10.769 3.144-5.787 6.491-7.597 17.969-9.335 8.737-1.235 11.155-1.461 12.273 1.137.592 1.162-1.455 37.393-1.455 37.393l-14.429 12.54c-9.018 9.024-13.48 13.038-19.416 17.133-2.115 1.526-5.174 5.151-6.625 8.147-1.589 2.963-11.69 13.135-17.17 19.517-8.547 9.953-30.47 50.833-51.167 74.851-5.253 6.097-24.298 11.865-34.476 20.55-13.142 11.213-35.25 35.117-44.377 46.737-5.193 6.609-8.386 11.365-10.386 22.977-1.342 7.793-8.678 21.241-10.313 31.633-1.592 10.115 1.568 25.477.505 30.713-.651 3.2-11.362 16.14-16.011 24.817-6.882 12.844-16.908 36.918-25.276 52.248-7.489 13.725-29.005 45.116-24.922 39.736 1.797-2.368 2.502-5.932 8.73-8.776 5.453-2.49 11.71 5.72 16.606 14.991 11.243-5.992 34.355-18.036 48.36-23.396 20.524-7.855 52.236-20.356 68.235-20.206 11.624.108 24.884 9.84 27.758 21.102 5.154 20.19 5.635 80.248 3.16 100.037-6.914 55.3-10.105 69.07-5.152 86.464 3.578 12.567 18.81 12.678 34.868 17.906 4.62 1.505 14.307.733 20.851-1.674 6.694-2.46 10.164-9.227 19.31-13.091 7.703-3.255 8.549 7.898 7.58 14.914-1.297 9.375-21.035 17.568-31.92 21.617-10.585 3.938-57.507 40.63-72.81 26.8-11.926-10.783-5.55-15.995-7.313-24.25-4.568-21.412-18.16-74.345-20.098-104.213-1.63-25.105 8.465-74.996 8.465-74.996s-46.698 40.028-70.697 53.012c-22.693 12.28-48.642 17.336-73.295 24.903-1.99 7.869 9.897 44.499 12.42 67.108 3.024 27.085 7.012 76.729 5.72 95.405-.796 11.612-5.755 32.78-16.37 42.964-4.847 4.672-58.26 102.949-62.955 111.996-3.444 6.402-1.823 20.882.62 32.933 1.162 5.588 1.915 12.49 1.76 15.28-.281 2.832.8 11.055 2.394 18.187 4.501 19.543 2.133 28.676-.33 34.644-1.943 4.701-9.884.305-13.356-3.335-7.059-7.402-6.714-11.75-8.856-19.735-4.137-15.418-32.559-31.514-37.88-42.962-2.945-6.335-7.8-17.096 1.186-21.638 7.575-3.828 7.911-5.067 10.344-8.914 3.753-5.935 9.573-16.829 12.174-26.69 2.795-10.59 6.17-44.752 14.678-65.056 8.509-20.304 29.416-42.399 36.376-56.766 6.865-14.171-24.515-52.793-34.313-80.153-9.968-27.837-2.69-67.104-25.493-86.871-24.92-21.6-41.745-55.37-27.271-88.733 11.644-26.839 27.05-41.937 21.703-47.517-1.502-1.566 18.8-32.152 21.962-31.388 3.436.83 5.193-7.85 5.387-10.809 2.385-36.22-14.202-71.777-13.214-77.403-4.12 6.493-32.915 53.007-56.415 45.42-17.89-5.776-28.638-53.254-34.081-66.188-8.837-21.003-12.804-42.173-14.134-61.749-2.461-36.28-10.966-50.519-13.069-53.99-12.21-20.144-6.255-23.35-19.21-50.925-2.397-5.1-6.882-14.85-5.355-16.038 4.985-3.88 7.407 2.17 9.666 5.011 4.285 5.387 14.192 26.336 16.043 27.31 2.914 1.566-3.726-26.772 4.179-28.444 8.724-1.847 8.262 4.95 8.505 4.63 1.663-2.192-.598-10.502 4.855-11.271 5.022-.709 6.506 14.278 8.454 13.77.982-.256 5.21-25.008 5.571-32.374.234-4.771 1.603-15.088 6-15.025 4.267.06 5.181 8.397 3.988 16.152-1.64 10.657-1.803 40.508-.856 51.498.318 3.694 14.041-15.72 20.808-18.336 6.207-2.4 20.369-.576 19.79 2.637-.58 3.216-9.568.156-23.26 16.65-6.676 8.043-9.12 23.239-14.792 33.789-2.428 4.517-7.492 17.227.023 36.695 20.413 52.879 29.317 65.92 29.433 77.395.093 9.375 7.192-16.183 27.15-20.097 3.843-.754 4.754-15.844 24.666-27.343 6.53-3.77 11.433-5.731 15.681-6.979Zm105.824 225.854c-.012-2.187-.65-4.346-3.125-6.673-1.856-1.741-3.425-.693-5.177 4.065-1.39 3.545-1.588 8.955.83 9.48 2.418.524 6.424 1.238 7.093-2.986.18-1.33.385-2.613.379-3.886Zm-72.973-235.326c9.517-3.16 18.689-6.281 18.923-7.25.398-1.649 10.244-22.127 2.346-27.708-8.927-6.306-14.61-28.544-16.884-25.075-2.567 3.939-6.027 34.52-4.407 41.234.68 2.815.561 9.978.022 18.799Z"/>
  <path d="M1267.46 1694.47c0 23.228-.617 45.731-1.85 67.507-1.234 21.777-3.29 41.195-6.168 58.253s-6.733 30.669-11.565 40.831c-4.831 10.163-10.845 15.244-18.041 15.244-6.785 0-12.593-5.263-17.424-15.788-4.832-10.525-8.841-24.317-12.028-41.376-3.187-17.058-5.5-36.476-6.939-58.252a990.571 990.571 0 0 1-2.159-65.331c0-23.228.669-45.549 2.005-66.963 1.336-21.414 3.495-40.468 6.476-57.164 2.981-16.695 6.939-30.124 11.874-40.287 4.934-10.162 10.999-15.243 18.195-15.243s13.158 5.081 17.887 15.243c4.729 10.163 8.584 23.41 11.565 39.743 2.981 16.332 5.088 35.205 6.322 56.619 1.233 21.414 1.85 43.735 1.85 66.964Zm.617 211.234v71.863h41.634v-777.429h-43.793v283.098h-.617c-4.934-27.584-11.667-48.454-20.199-62.608-8.533-14.155-17.528-21.233-26.985-21.233-11.719 0-21.999 8.166-30.84 24.499-8.84 16.333-16.191 37.928-22.05 64.786-5.86 26.858-10.28 57.889-13.261 93.095-2.981 35.206-4.472 71.682-4.472 109.428 0 39.198 1.491 76.944 4.472 113.239 2.981 36.294 7.401 68.415 13.261 96.362 5.859 27.947 13.312 50.086 22.359 66.419 9.046 16.332 19.531 24.499 31.456 24.499 10.486 0 19.892-6.715 28.218-20.144 8.327-13.429 15.06-35.387 20.2-65.874h.617ZM1451.27 1612.8h42.867c-.617-36.295-3.084-67.689-7.402-94.184-4.317-26.495-9.92-48.635-16.808-66.419-6.887-17.785-14.7-31.032-23.438-39.743-8.738-8.71-17.835-13.066-27.293-13.066-12.952 0-24.466 7.622-34.54 22.866-10.074 15.243-18.607 36.476-25.597 63.697-6.99 27.221-12.284 59.523-15.882 96.906-3.598 37.383-5.397 77.852-5.397 121.405 0 42.102 1.953 80.755 5.859 115.961 3.907 35.206 9.355 65.512 16.345 90.918 6.99 25.406 15.471 45.186 25.443 59.341 9.971 14.155 20.919 21.233 32.844 21.233 21.177 0 38.55-19.599 52.119-58.798 13.57-39.198 21.793-96.18 24.672-170.947h-42.251c-1.439 34.843-4.985 62.608-10.639 83.296-5.654 20.688-13.724 31.032-24.209 31.032-6.785 0-12.542-5.444-17.271-16.332-4.728-10.889-8.48-24.862-11.256-41.921-2.776-17.058-4.78-36.113-6.014-57.163-1.233-21.051-1.85-41.739-1.85-62.064 0-21.051.617-42.283 1.85-63.697 1.234-21.414 3.341-41.013 6.322-58.797 2.982-17.784 6.837-32.302 11.565-43.553 4.729-11.252 10.589-16.877 17.579-16.877 18.709 0 29.503 32.302 32.382 96.906Z" style="fill-rule:nonzero" transform="matrix(1.35108 0 0 .38267 -675.988 1236.45)"/>
</svg>
